<svg viewBox="0 0 750 300" xmlns="http://www.w3.org/2000/svg" role="img" aria-labelledby="milosti-title milosti-desc">
  <title id="milosti-title">Kumulativní počet udělených prezidentských milostí</title>
  <desc id="milosti-desc">Zeman dosáhl 26 milostí za 3652 dní mandátu, Pavel 23 milostí za 1118 dní – výrazně rychlejší tempo.</desc>
  <rect x="0" y="0" width="750" height="300" fill="#f8f6f0" />

  <line x1="50" y1="230" x2="720" y2="230" stroke="#c9c4b4" stroke-width="1" />
  <line x1="50" y1="168.5" x2="720" y2="168.5" stroke="#e8e3d2" stroke-width="1" />
  <line x1="50" y1="106.9" x2="720" y2="106.9" stroke="#e8e3d2" stroke-width="1" />

  <path d="M50,230 H143.6 V205.4 H183.9 V174.6 H197.7 V150.0 H228.9 V113.0 H255.1 V88.5 H273.3"
        fill="none" stroke="#6267a3" stroke-width="4" stroke-linejoin="round" />

  <path d="M50,230 H247.2 V223.8 H298.4 V199.2 H427.0 V162.3 H521.2 V143.8 H571.1 V125.4 H620.2 V106.9 H700.8 V82.3 H719.9 V70.0"
        fill="none" stroke="#de1743" stroke-width="4" stroke-linejoin="round" />

  <circle cx="273.3" cy="88.5" r="5" fill="#6267a3" />
  <circle cx="719.9" cy="70.0" r="5" fill="#de1743" />

  <text x="185" y="68" font-family="'Roboto Condensed', Arial, sans-serif" font-size="19" font-weight="700" fill="#6267a3">Pavel · 23</text>
  <text x="595" y="55" font-family="'Roboto Condensed', Arial, sans-serif" font-size="19" font-weight="700" fill="#de1743">Zeman · 26</text>

  <text x="50" y="270" font-family="'Roboto Condensed', Arial, sans-serif" font-size="12" fill="#999">data: KPR k 7. 7. 2026</text>

  <text x="672" y="205" text-anchor="end" font-family="'Roboto Slab', Georgia, serif" font-size="15" font-weight="700" fill="#101432" fill-opacity="0.85">DataTimes.cz</text>
  <circle cx="700" cy="200" r="20" fill="#F8F6F0" fill-opacity="0.9" />
  <g transform="translate(683.9,183.9) scale(0.117) translate(-112,-112)">
    <defs>
      <linearGradient id="logoGradientMilosti" x1="1" x2="0.25" y1="0.5" y2="1">
        <stop offset="0%" stop-color="#ffdc33" stop-opacity="0" />
        <stop offset="50%" stop-color="#ffdc33" stop-opacity="0" />
        <stop offset="50%" stop-color="#ffdc33" stop-opacity="1" />
        <stop offset="100%" stop-color="#ffdc33" stop-opacity="1" />
      </linearGradient>
    </defs>
    <g transform="rotate(-30 250 250)">
      <path fill="none" stroke="#ffdc33" stroke-width="76" stroke-linecap="round" d="M 250 350 A 100 100 0 0 0 336.60254037844385 300" />
      <path fill="none" stroke="#f76800" stroke-width="76" stroke-linecap="round" d="M 336.6025403784439 300 A 100 100 0 0 0 250 150" />
      <path fill="none" stroke="#de1743" stroke-width="76" stroke-linecap="round" d="M 250 150 A 100 100 0 0 0 250 350" />
      <path fill="none" stroke="url(#logoGradientMilosti)" stroke-width="76" stroke-linecap="round" d="M 250 350 A 100 100 0 0 0 336.60254037844385 300" />
    </g>
  </g>
</svg>
