<svg xmlns="http://www.w3.org/2000/svg" viewBox="0 0 1388 495" width="1388" height="495" font-family="Roboto Condensed, Arial, sans-serif">
<rect width="1388" height="495" fill="#f8f6f0"/>
<text x="242" y="150" font-size="96" font-weight="700" fill="#de1743">77×</text>
<text x="242" y="196" font-size="29" font-weight="700" fill="#1a1a1a">sněmovna veto přehlasovala</text>
<text x="1146" y="150" font-size="96" font-weight="700" fill="#272a59" text-anchor="end">16×</text>
<text x="1146" y="196" font-size="29" font-weight="700" fill="#1a1a1a" text-anchor="end">zákon díky vetu nevyšel</text>
<text x="242" y="252" font-size="21" fill="#8a8577">93 vet čtyř prezidentů, 1993–2026 · čtverec = jedno veto</text>
<rect x="242" y="285" width="30" height="30" rx="5" fill="#de1743"/>
<rect x="280" y="285" width="30" height="30" rx="5" fill="#de1743"/>
<rect x="318" y="285" width="30" height="30" rx="5" fill="#de1743"/>
<rect x="356" y="285" width="30" height="30" rx="5" fill="#de1743"/>
<rect x="394" y="285" width="30" height="30" rx="5" fill="#de1743"/>
<rect x="432" y="285" width="30" height="30" rx="5" fill="#de1743"/>
<rect x="470" y="285" width="30" height="30" rx="5" fill="#de1743"/>
<rect x="508" y="285" width="30" height="30" rx="5" fill="#de1743"/>
<rect x="546" y="285" width="30" height="30" rx="5" fill="#de1743"/>
<rect x="584" y="285" width="30" height="30" rx="5" fill="#de1743"/>
<rect x="622" y="285" width="30" height="30" rx="5" fill="#de1743"/>
<rect x="660" y="285" width="30" height="30" rx="5" fill="#de1743"/>
<rect x="698" y="285" width="30" height="30" rx="5" fill="#de1743"/>
<rect x="736" y="285" width="30" height="30" rx="5" fill="#de1743"/>
<rect x="774" y="285" width="30" height="30" rx="5" fill="#de1743"/>
<rect x="812" y="285" width="30" height="30" rx="5" fill="#de1743"/>
<rect x="850" y="285" width="30" height="30" rx="5" fill="#de1743"/>
<rect x="888" y="285" width="30" height="30" rx="5" fill="#de1743"/>
<rect x="926" y="285" width="30" height="30" rx="5" fill="#de1743"/>
<rect x="964" y="285" width="30" height="30" rx="5" fill="#de1743"/>
<rect x="1002" y="285" width="30" height="30" rx="5" fill="#de1743"/>
<rect x="1040" y="285" width="30" height="30" rx="5" fill="#de1743"/>
<rect x="1078" y="285" width="30" height="30" rx="5" fill="#de1743"/>
<rect x="1116" y="285" width="30" height="30" rx="5" fill="#de1743"/>
<rect x="242" y="323" width="30" height="30" rx="5" fill="#de1743"/>
<rect x="280" y="323" width="30" height="30" rx="5" fill="#de1743"/>
<rect x="318" y="323" width="30" height="30" rx="5" fill="#de1743"/>
<rect x="356" y="323" width="30" height="30" rx="5" fill="#de1743"/>
<rect x="394" y="323" width="30" height="30" rx="5" fill="#de1743"/>
<rect x="432" y="323" width="30" height="30" rx="5" fill="#de1743"/>
<rect x="470" y="323" width="30" height="30" rx="5" fill="#de1743"/>
<rect x="508" y="323" width="30" height="30" rx="5" fill="#de1743"/>
<rect x="546" y="323" width="30" height="30" rx="5" fill="#de1743"/>
<rect x="584" y="323" width="30" height="30" rx="5" fill="#de1743"/>
<rect x="622" y="323" width="30" height="30" rx="5" fill="#de1743"/>
<rect x="660" y="323" width="30" height="30" rx="5" fill="#de1743"/>
<rect x="698" y="323" width="30" height="30" rx="5" fill="#de1743"/>
<rect x="736" y="323" width="30" height="30" rx="5" fill="#de1743"/>
<rect x="774" y="323" width="30" height="30" rx="5" fill="#de1743"/>
<rect x="812" y="323" width="30" height="30" rx="5" fill="#de1743"/>
<rect x="850" y="323" width="30" height="30" rx="5" fill="#de1743"/>
<rect x="888" y="323" width="30" height="30" rx="5" fill="#de1743"/>
<rect x="926" y="323" width="30" height="30" rx="5" fill="#de1743"/>
<rect x="964" y="323" width="30" height="30" rx="5" fill="#de1743"/>
<rect x="1002" y="323" width="30" height="30" rx="5" fill="#de1743"/>
<rect x="1040" y="323" width="30" height="30" rx="5" fill="#de1743"/>
<rect x="1078" y="323" width="30" height="30" rx="5" fill="#de1743"/>
<rect x="1116" y="323" width="30" height="30" rx="5" fill="#de1743"/>
<rect x="242" y="361" width="30" height="30" rx="5" fill="#de1743"/>
<rect x="280" y="361" width="30" height="30" rx="5" fill="#de1743"/>
<rect x="318" y="361" width="30" height="30" rx="5" fill="#de1743"/>
<rect x="356" y="361" width="30" height="30" rx="5" fill="#de1743"/>
<rect x="394" y="361" width="30" height="30" rx="5" fill="#de1743"/>
<rect x="432" y="361" width="30" height="30" rx="5" fill="#de1743"/>
<rect x="470" y="361" width="30" height="30" rx="5" fill="#de1743"/>
<rect x="508" y="361" width="30" height="30" rx="5" fill="#de1743"/>
<rect x="546" y="361" width="30" height="30" rx="5" fill="#de1743"/>
<rect x="584" y="361" width="30" height="30" rx="5" fill="#de1743"/>
<rect x="622" y="361" width="30" height="30" rx="5" fill="#de1743"/>
<rect x="660" y="361" width="30" height="30" rx="5" fill="#de1743"/>
<rect x="698" y="361" width="30" height="30" rx="5" fill="#de1743"/>
<rect x="736" y="361" width="30" height="30" rx="5" fill="#de1743"/>
<rect x="774" y="361" width="30" height="30" rx="5" fill="#de1743"/>
<rect x="812" y="361" width="30" height="30" rx="5" fill="#de1743"/>
<rect x="850" y="361" width="30" height="30" rx="5" fill="#de1743"/>
<rect x="888" y="361" width="30" height="30" rx="5" fill="#de1743"/>
<rect x="926" y="361" width="30" height="30" rx="5" fill="#de1743"/>
<rect x="964" y="361" width="30" height="30" rx="5" fill="#de1743"/>
<rect x="1002" y="361" width="30" height="30" rx="5" fill="#de1743"/>
<rect x="1040" y="361" width="30" height="30" rx="5" fill="#de1743"/>
<rect x="1078" y="361" width="30" height="30" rx="5" fill="#de1743"/>
<rect x="1116" y="361" width="30" height="30" rx="5" fill="#de1743"/>
<rect x="242" y="399" width="30" height="30" rx="5" fill="#de1743"/>
<rect x="280" y="399" width="30" height="30" rx="5" fill="#de1743"/>
<rect x="318" y="399" width="30" height="30" rx="5" fill="#de1743"/>
<rect x="356" y="399" width="30" height="30" rx="5" fill="#de1743"/>
<rect x="394" y="399" width="30" height="30" rx="5" fill="#de1743"/>
<rect x="432" y="399" width="30" height="30" rx="5" fill="#272a59"/>
<rect x="470" y="399" width="30" height="30" rx="5" fill="#272a59"/>
<rect x="508" y="399" width="30" height="30" rx="5" fill="#272a59"/>
<rect x="546" y="399" width="30" height="30" rx="5" fill="#272a59"/>
<rect x="584" y="399" width="30" height="30" rx="5" fill="#272a59"/>
<rect x="622" y="399" width="30" height="30" rx="5" fill="#272a59"/>
<rect x="660" y="399" width="30" height="30" rx="5" fill="#272a59"/>
<rect x="698" y="399" width="30" height="30" rx="5" fill="#272a59"/>
<rect x="736" y="399" width="30" height="30" rx="5" fill="#272a59"/>
<rect x="774" y="399" width="30" height="30" rx="5" fill="#272a59"/>
<rect x="812" y="399" width="30" height="30" rx="5" fill="#272a59"/>
<rect x="850" y="399" width="30" height="30" rx="5" fill="#272a59"/>
<rect x="888" y="399" width="30" height="30" rx="5" fill="#272a59"/>
<rect x="926" y="399" width="30" height="30" rx="5" fill="#272a59"/>
<rect x="964" y="399" width="30" height="30" rx="5" fill="#272a59"/>
<rect x="1002" y="399" width="30" height="30" rx="5" fill="#272a59"/>
<g>
<circle cx="1122" cy="252" r="24" fill="#F8F6F0" fill-opacity="0.92"/>
<text x="1090" y="257" text-anchor="end" font-size="15" font-weight="700" fill="#101432" fill-opacity="0.85" font-family="'Roboto Slab', Georgia, serif">DataTimes.cz</text>
<g transform="translate(1101.336,231.336) scale(0.1497) translate(-112,-112)">
<defs>
<linearGradient id="vetoLogoGradient" x1="1" x2="0.25" y1="0.5" y2="1">
<stop offset="0%" stop-color="#ffdc33" stop-opacity="0"/>
<stop offset="50%" stop-color="#ffdc33" stop-opacity="0"/>
<stop offset="50%" stop-color="#ffdc33" stop-opacity="1"/>
<stop offset="100%" stop-color="#ffdc33" stop-opacity="1"/>
</linearGradient>
</defs>
<g transform="rotate(-30 250 250)">
<path fill="none" stroke="#ffdc33" stroke-width="76" stroke-linecap="round" d="M 250 350 A 100 100 0 0 0 336.60254037844385 300"/>
<path fill="none" stroke="#f76800" stroke-width="76" stroke-linecap="round" d="M 336.6025403784439 300 A 100 100 0 0 0 250 150"/>
<path fill="none" stroke="#de1743" stroke-width="76" stroke-linecap="round" d="M 250 150 A 100 100 0 0 0 250 350"/>
<path fill="none" stroke="url(#vetoLogoGradient)" stroke-width="76" stroke-linecap="round" d="M 250 350 A 100 100 0 0 0 336.60254037844385 300"/>
</g>
</g>
</g>
</svg>
