<svg xmlns="http://www.w3.org/2000/svg" viewBox="0 0 1388 495" width="1388" height="495" font-family="Roboto Condensed, Arial, sans-serif">
<rect width="1388" height="495" fill="#f8f6f0"/>
<text x="105.4" y="34" font-size="30" font-weight="700" fill="#2E8B6E">Havel</text><line x1="469.9" y1="36" x2="469.9" y2="463" stroke="#d9d3c2" stroke-width="2"/><text x="481.9" y="34" font-size="30" font-weight="700" fill="#C08A00">Klaus</text><line x1="843.1" y1="36" x2="843.1" y2="463" stroke="#d9d3c2" stroke-width="2"/><text x="855.1" y="34" font-size="30" font-weight="700" fill="#DE1743">Zeman</text><line x1="1216.6" y1="36" x2="1216.6" y2="463" stroke="#d9d3c2" stroke-width="2"/><text x="1228.6" y="34" font-size="30" font-weight="700" fill="#6267A3">Pavel</text>
<line x1="90" y1="400" x2="1370" y2="400" stroke="#c9c2af" stroke-width="2"/>
<text x="164.6" y="430" font-size="22" fill="#8a8577" text-anchor="middle">1995</text><text x="351.2" y="430" font-size="22" fill="#8a8577" text-anchor="middle">2000</text><text x="537.8" y="430" font-size="22" fill="#8a8577" text-anchor="middle">2005</text><text x="724.4" y="430" font-size="22" fill="#8a8577" text-anchor="middle">2010</text><text x="911.0" y="430" font-size="22" fill="#8a8577" text-anchor="middle">2015</text><text x="1097.6" y="430" font-size="22" fill="#8a8577" text-anchor="middle">2020</text><text x="1284.2" y="430" font-size="22" fill="#8a8577" text-anchor="middle">2025</text>
<line x1="90" y1="209.2" x2="1370" y2="209.2" stroke="#101432" stroke-width="3" stroke-dasharray="14 8"/>
<text x="1370" y="197.2" font-size="26" font-weight="700" fill="#101432" text-anchor="end">101 hlasů = hranice přehlasování veta</text>
<text x="78" y="217.2" font-size="22" font-weight="700" fill="#101432" text-anchor="end">101</text>
<text x="78" y="124.7" font-size="22" fill="#8a8577" text-anchor="end">150</text>
<text x="78" y="313.6" font-size="22" fill="#8a8577" text-anchor="end">50</text>
<text x="90" y="453" font-size="20" fill="#8a8577" text-anchor="end" transform="translate(-8,0)"></text>
<circle cx="108.7" cy="343.3" r="9" fill="#f8f6f0" stroke="#2E8B6E" stroke-width="3.5"/><circle cx="161.5" cy="171.4" r="9" fill="#2E8B6E" fill-opacity="0.9"/><circle cx="161.5" cy="116.7" r="9" fill="#2E8B6E" fill-opacity="0.9"/><circle cx="177.1" cy="252.7" r="9" fill="#f8f6f0" stroke="#2E8B6E" stroke-width="3.5"/><circle cx="192.1" cy="264.0" r="9" fill="#f8f6f0" stroke="#2E8B6E" stroke-width="3.5"/><circle cx="192.6" cy="160.1" r="9" fill="#2E8B6E" fill-opacity="0.9"/><circle cx="245.5" cy="335.8" r="9" fill="#f8f6f0" stroke="#2E8B6E" stroke-width="3.5"/><circle cx="254.8" cy="216.8" r="9" fill="#2E8B6E" fill-opacity="0.9"/><circle cx="285.9" cy="158.2" r="9" fill="#2E8B6E" fill-opacity="0.9"/><circle cx="304.0" cy="148.8" r="9" fill="#2E8B6E" fill-opacity="0.9"/><circle cx="329.5" cy="205.4" r="9" fill="#2E8B6E" fill-opacity="0.9"/><circle cx="335.7" cy="73.2" r="9" fill="#2E8B6E" fill-opacity="0.9"/><circle cx="354.3" cy="180.9" r="9" fill="#2E8B6E" fill-opacity="0.9"/><circle cx="366.8" cy="165.8" r="9" fill="#2E8B6E" fill-opacity="0.9"/><circle cx="369.9" cy="118.6" r="9" fill="#2E8B6E" fill-opacity="0.9"/><circle cx="394.2" cy="169.6" r="9" fill="#2E8B6E" fill-opacity="0.9"/><circle cx="412.3" cy="182.8" r="9" fill="#2E8B6E" fill-opacity="0.9"/><circle cx="397.9" cy="97.8" r="9" fill="#2E8B6E" fill-opacity="0.9"/><circle cx="397.9" cy="126.1" r="9" fill="#2E8B6E" fill-opacity="0.9"/><circle cx="404.1" cy="145.0" r="9" fill="#2E8B6E" fill-opacity="0.9"/><circle cx="437.8" cy="171.4" r="9" fill="#2E8B6E" fill-opacity="0.9"/><circle cx="429.0" cy="188.4" r="9" fill="#2E8B6E" fill-opacity="0.9"/><circle cx="447.1" cy="197.9" r="9" fill="#2E8B6E" fill-opacity="0.9"/><circle cx="435.2" cy="150.7" r="9" fill="#2E8B6E" fill-opacity="0.9"/><circle cx="475.6" cy="145.0" r="9" fill="#C08A00" fill-opacity="0.9"/><circle cx="481.8" cy="209.2" r="9" fill="#C08A00" fill-opacity="0.9"/><circle cx="509.3" cy="207.3" r="9" fill="#C08A00" fill-opacity="0.9"/><circle cx="539.3" cy="209.2" r="9" fill="#C08A00" fill-opacity="0.9"/><circle cx="560.5" cy="209.2" r="9" fill="#C08A00" fill-opacity="0.9"/><circle cx="500.5" cy="148.8" r="9" fill="#C08A00" fill-opacity="0.9"/><circle cx="506.7" cy="165.8" r="9" fill="#C08A00" fill-opacity="0.9"/><circle cx="584.8" cy="209.2" r="9" fill="#C08A00" fill-opacity="0.9"/><circle cx="612.3" cy="201.7" r="9" fill="#C08A00" fill-opacity="0.9"/><circle cx="627.3" cy="209.2" r="9" fill="#C08A00" fill-opacity="0.9"/><circle cx="645.9" cy="211.1" r="9" fill="#f8f6f0" stroke="#C08A00" stroke-width="3.5"/><circle cx="540.9" cy="188.4" r="9" fill="#C08A00" fill-opacity="0.9"/><circle cx="670.3" cy="203.6" r="9" fill="#C08A00" fill-opacity="0.9"/><circle cx="565.3" cy="188.4" r="9" fill="#C08A00" fill-opacity="0.9"/><circle cx="697.7" cy="197.9" r="9" fill="#C08A00" fill-opacity="0.9"/><circle cx="562.7" cy="262.1" r="9" fill="#f8f6f0" stroke="#C08A00" stroke-width="3.5"/><circle cx="565.8" cy="165.8" r="9" fill="#C08A00" fill-opacity="0.9"/><circle cx="713.2" cy="209.2" r="9" fill="#C08A00" fill-opacity="0.9"/><circle cx="731.4" cy="205.4" r="9" fill="#C08A00" fill-opacity="0.9"/><circle cx="584.5" cy="182.8" r="9" fill="#C08A00" fill-opacity="0.9"/><circle cx="599.5" cy="180.9" r="9" fill="#C08A00" fill-opacity="0.9"/><circle cx="617.6" cy="180.9" r="9" fill="#C08A00" fill-opacity="0.9"/><circle cx="632.6" cy="192.2" r="9" fill="#C08A00" fill-opacity="0.9"/><circle cx="752.6" cy="197.9" r="9" fill="#C08A00" fill-opacity="0.9"/><circle cx="602.6" cy="220.6" r="9" fill="#f8f6f0" stroke="#C08A00" stroke-width="3.5"/><circle cx="590.7" cy="445" r="9" fill="#f8f6f0" stroke="#C08A00" stroke-width="3.5"/><circle cx="605.7" cy="445" r="9" fill="#f8f6f0" stroke="#C08A00" stroke-width="3.5"/><circle cx="620.7" cy="445" r="9" fill="#f8f6f0" stroke="#C08A00" stroke-width="3.5"/><circle cx="635.7" cy="445" r="9" fill="#f8f6f0" stroke="#C08A00" stroke-width="3.5"/><circle cx="652.9" cy="237.6" r="9" fill="#f8f6f0" stroke="#C08A00" stroke-width="3.5"/><circle cx="662.2" cy="139.3" r="9" fill="#C08A00" fill-opacity="0.9"/><circle cx="662.2" cy="177.1" r="9" fill="#C08A00" fill-opacity="0.9"/><circle cx="686.5" cy="148.8" r="9" fill="#C08A00" fill-opacity="0.9"/><circle cx="780.7" cy="209.2" r="9" fill="#C08A00" fill-opacity="0.9"/><circle cx="802.0" cy="199.8" r="9" fill="#C08A00" fill-opacity="0.9"/><circle cx="715.1" cy="179.0" r="9" fill="#C08A00" fill-opacity="0.9"/><circle cx="736.3" cy="175.2" r="9" fill="#C08A00" fill-opacity="0.9"/><circle cx="826.3" cy="209.2" r="9" fill="#C08A00" fill-opacity="0.9"/><circle cx="850.6" cy="203.6" r="9" fill="#C08A00" fill-opacity="0.9"/><circle cx="865.6" cy="199.8" r="9" fill="#C08A00" fill-opacity="0.9"/><circle cx="733.7" cy="109.1" r="9" fill="#C08A00" fill-opacity="0.9"/><circle cx="733.7" cy="190.3" r="9" fill="#C08A00" fill-opacity="0.9"/><circle cx="751.8" cy="163.9" r="9" fill="#C08A00" fill-opacity="0.9"/><circle cx="740.0" cy="445" r="9" fill="#f8f6f0" stroke="#C08A00" stroke-width="3.5"/><circle cx="755.0" cy="445" r="9" fill="#f8f6f0" stroke="#C08A00" stroke-width="3.5"/><circle cx="770.0" cy="445" r="9" fill="#f8f6f0" stroke="#C08A00" stroke-width="3.5"/><circle cx="884.8" cy="197.9" r="9" fill="#C08A00" fill-opacity="0.9"/><circle cx="777.3" cy="192.2" r="9" fill="#C08A00" fill-opacity="0.9"/><circle cx="792.8" cy="173.3" r="9" fill="#C08A00" fill-opacity="0.9"/><circle cx="805.3" cy="126.1" r="9" fill="#C08A00" fill-opacity="0.9"/><circle cx="904.6" cy="209.2" r="9" fill="#C08A00" fill-opacity="0.9"/><circle cx="925.8" cy="201.7" r="9" fill="#C08A00" fill-opacity="0.9"/><circle cx="943.9" cy="203.6" r="9" fill="#C08A00" fill-opacity="0.9"/><circle cx="958.9" cy="205.4" r="9" fill="#C08A00" fill-opacity="0.9"/><circle cx="973.9" cy="207.3" r="9" fill="#C08A00" fill-opacity="0.9"/><circle cx="830.1" cy="133.7" r="9" fill="#C08A00" fill-opacity="0.9"/><circle cx="830.1" cy="173.3" r="9" fill="#C08A00" fill-opacity="0.9"/><circle cx="848.8" cy="398.1" r="9" fill="#f8f6f0" stroke="#DE1743" stroke-width="3.5"/><circle cx="901.7" cy="167.7" r="9" fill="#DE1743" fill-opacity="0.9"/><circle cx="991.7" cy="209.2" r="9" fill="#DE1743" fill-opacity="0.9"/><circle cx="1020.7" cy="199.8" r="9" fill="#DE1743" fill-opacity="0.9"/><circle cx="982.5" cy="156.3" r="9" fill="#DE1743" fill-opacity="0.9"/><circle cx="997.5" cy="148.8" r="9" fill="#DE1743" fill-opacity="0.9"/><circle cx="991.8" cy="179.0" r="9" fill="#DE1743" fill-opacity="0.9"/><circle cx="1194.0" cy="203.6" r="9" fill="#DE1743" fill-opacity="0.9"/><circle cx="1218.3" cy="205.4" r="9" fill="#DE1743" fill-opacity="0.9"/><circle cx="1233.3" cy="205.4" r="9" fill="#DE1743" fill-opacity="0.9"/><circle cx="1268.6" cy="197.9" r="9" fill="#6267A3" fill-opacity="0.9"/><circle cx="1287.3" cy="209.2" r="9" fill="#6267A3" fill-opacity="0.9"/>
</svg>