<svg xmlns="http://www.w3.org/2000/svg" viewBox="0 0 1388 495" width="1388" height="495" font-family="Roboto Condensed, Arial, sans-serif">
<rect width="1388" height="495" fill="#f8f6f0"/>
<text x="180" y="168" font-size="104" font-weight="700" fill="#de1743">77×</text>
<text x="180" y="216" font-size="30" font-weight="700" fill="#1a1a1a">sněmovna veto přehlasovala</text>
<text x="1197" y="168" font-size="104" font-weight="700" fill="#272a59" text-anchor="end">16×</text>
<text x="1197" y="216" font-size="30" font-weight="700" fill="#1a1a1a" text-anchor="end">zákon díky vetu nevyšel</text>
<rect x="180" y="300" width="27" height="27" rx="4" fill="#de1743"/>
<rect x="213" y="300" width="27" height="27" rx="4" fill="#de1743"/>
<rect x="246" y="300" width="27" height="27" rx="4" fill="#de1743"/>
<rect x="279" y="300" width="27" height="27" rx="4" fill="#de1743"/>
<rect x="312" y="300" width="27" height="27" rx="4" fill="#de1743"/>
<rect x="345" y="300" width="27" height="27" rx="4" fill="#de1743"/>
<rect x="378" y="300" width="27" height="27" rx="4" fill="#de1743"/>
<rect x="411" y="300" width="27" height="27" rx="4" fill="#de1743"/>
<rect x="444" y="300" width="27" height="27" rx="4" fill="#de1743"/>
<rect x="477" y="300" width="27" height="27" rx="4" fill="#de1743"/>
<rect x="510" y="300" width="27" height="27" rx="4" fill="#de1743"/>
<rect x="543" y="300" width="27" height="27" rx="4" fill="#de1743"/>
<rect x="576" y="300" width="27" height="27" rx="4" fill="#de1743"/>
<rect x="609" y="300" width="27" height="27" rx="4" fill="#de1743"/>
<rect x="642" y="300" width="27" height="27" rx="4" fill="#de1743"/>
<rect x="675" y="300" width="27" height="27" rx="4" fill="#de1743"/>
<rect x="708" y="300" width="27" height="27" rx="4" fill="#de1743"/>
<rect x="741" y="300" width="27" height="27" rx="4" fill="#de1743"/>
<rect x="774" y="300" width="27" height="27" rx="4" fill="#de1743"/>
<rect x="807" y="300" width="27" height="27" rx="4" fill="#de1743"/>
<rect x="840" y="300" width="27" height="27" rx="4" fill="#de1743"/>
<rect x="873" y="300" width="27" height="27" rx="4" fill="#de1743"/>
<rect x="906" y="300" width="27" height="27" rx="4" fill="#de1743"/>
<rect x="939" y="300" width="27" height="27" rx="4" fill="#de1743"/>
<rect x="972" y="300" width="27" height="27" rx="4" fill="#de1743"/>
<rect x="1005" y="300" width="27" height="27" rx="4" fill="#de1743"/>
<rect x="1038" y="300" width="27" height="27" rx="4" fill="#de1743"/>
<rect x="1071" y="300" width="27" height="27" rx="4" fill="#de1743"/>
<rect x="1104" y="300" width="27" height="27" rx="4" fill="#de1743"/>
<rect x="1137" y="300" width="27" height="27" rx="4" fill="#de1743"/>
<rect x="1170" y="300" width="27" height="27" rx="4" fill="#de1743"/>
<rect x="180" y="333" width="27" height="27" rx="4" fill="#de1743"/>
<rect x="213" y="333" width="27" height="27" rx="4" fill="#de1743"/>
<rect x="246" y="333" width="27" height="27" rx="4" fill="#de1743"/>
<rect x="279" y="333" width="27" height="27" rx="4" fill="#de1743"/>
<rect x="312" y="333" width="27" height="27" rx="4" fill="#de1743"/>
<rect x="345" y="333" width="27" height="27" rx="4" fill="#de1743"/>
<rect x="378" y="333" width="27" height="27" rx="4" fill="#de1743"/>
<rect x="411" y="333" width="27" height="27" rx="4" fill="#de1743"/>
<rect x="444" y="333" width="27" height="27" rx="4" fill="#de1743"/>
<rect x="477" y="333" width="27" height="27" rx="4" fill="#de1743"/>
<rect x="510" y="333" width="27" height="27" rx="4" fill="#de1743"/>
<rect x="543" y="333" width="27" height="27" rx="4" fill="#de1743"/>
<rect x="576" y="333" width="27" height="27" rx="4" fill="#de1743"/>
<rect x="609" y="333" width="27" height="27" rx="4" fill="#de1743"/>
<rect x="642" y="333" width="27" height="27" rx="4" fill="#de1743"/>
<rect x="675" y="333" width="27" height="27" rx="4" fill="#de1743"/>
<rect x="708" y="333" width="27" height="27" rx="4" fill="#de1743"/>
<rect x="741" y="333" width="27" height="27" rx="4" fill="#de1743"/>
<rect x="774" y="333" width="27" height="27" rx="4" fill="#de1743"/>
<rect x="807" y="333" width="27" height="27" rx="4" fill="#de1743"/>
<rect x="840" y="333" width="27" height="27" rx="4" fill="#de1743"/>
<rect x="873" y="333" width="27" height="27" rx="4" fill="#de1743"/>
<rect x="906" y="333" width="27" height="27" rx="4" fill="#de1743"/>
<rect x="939" y="333" width="27" height="27" rx="4" fill="#de1743"/>
<rect x="972" y="333" width="27" height="27" rx="4" fill="#de1743"/>
<rect x="1005" y="333" width="27" height="27" rx="4" fill="#de1743"/>
<rect x="1038" y="333" width="27" height="27" rx="4" fill="#de1743"/>
<rect x="1071" y="333" width="27" height="27" rx="4" fill="#de1743"/>
<rect x="1104" y="333" width="27" height="27" rx="4" fill="#de1743"/>
<rect x="1137" y="333" width="27" height="27" rx="4" fill="#de1743"/>
<rect x="1170" y="333" width="27" height="27" rx="4" fill="#de1743"/>
<rect x="180" y="366" width="27" height="27" rx="4" fill="#de1743"/>
<rect x="213" y="366" width="27" height="27" rx="4" fill="#de1743"/>
<rect x="246" y="366" width="27" height="27" rx="4" fill="#de1743"/>
<rect x="279" y="366" width="27" height="27" rx="4" fill="#de1743"/>
<rect x="312" y="366" width="27" height="27" rx="4" fill="#de1743"/>
<rect x="345" y="366" width="27" height="27" rx="4" fill="#de1743"/>
<rect x="378" y="366" width="27" height="27" rx="4" fill="#de1743"/>
<rect x="411" y="366" width="27" height="27" rx="4" fill="#de1743"/>
<rect x="444" y="366" width="27" height="27" rx="4" fill="#de1743"/>
<rect x="477" y="366" width="27" height="27" rx="4" fill="#de1743"/>
<rect x="510" y="366" width="27" height="27" rx="4" fill="#de1743"/>
<rect x="543" y="366" width="27" height="27" rx="4" fill="#de1743"/>
<rect x="576" y="366" width="27" height="27" rx="4" fill="#de1743"/>
<rect x="609" y="366" width="27" height="27" rx="4" fill="#de1743"/>
<rect x="642" y="366" width="27" height="27" rx="4" fill="#de1743"/>
<rect x="675" y="366" width="27" height="27" rx="4" fill="#272a59"/>
<rect x="708" y="366" width="27" height="27" rx="4" fill="#272a59"/>
<rect x="741" y="366" width="27" height="27" rx="4" fill="#272a59"/>
<rect x="774" y="366" width="27" height="27" rx="4" fill="#272a59"/>
<rect x="807" y="366" width="27" height="27" rx="4" fill="#272a59"/>
<rect x="840" y="366" width="27" height="27" rx="4" fill="#272a59"/>
<rect x="873" y="366" width="27" height="27" rx="4" fill="#272a59"/>
<rect x="906" y="366" width="27" height="27" rx="4" fill="#272a59"/>
<rect x="939" y="366" width="27" height="27" rx="4" fill="#272a59"/>
<rect x="972" y="366" width="27" height="27" rx="4" fill="#272a59"/>
<rect x="1005" y="366" width="27" height="27" rx="4" fill="#272a59"/>
<rect x="1038" y="366" width="27" height="27" rx="4" fill="#272a59"/>
<rect x="1071" y="366" width="27" height="27" rx="4" fill="#272a59"/>
<rect x="1104" y="366" width="27" height="27" rx="4" fill="#272a59"/>
<rect x="1137" y="366" width="27" height="27" rx="4" fill="#272a59"/>
<rect x="1170" y="366" width="27" height="27" rx="4" fill="#272a59"/>
<text x="180" y="446" font-size="21" fill="#8a8577">93 vet čtyř prezidentů, 1993–2026 · čtverec = jedno veto</text>
<g>
<circle cx="1173" cy="436" r="26" fill="#F8F6F0" fill-opacity="0.92"/>
<text x="1139" y="441.5" text-anchor="end" font-size="16" font-weight="700" fill="#101432" fill-opacity="0.85" font-family="'Roboto Slab', Georgia, serif">DataTimes.cz</text>
<g transform="translate(1150.368,413.368) scale(0.164) translate(-112,-112)">
<defs>
<linearGradient id="vetoLogoGradient" x1="1" x2="0.25" y1="0.5" y2="1">
<stop offset="0%" stop-color="#ffdc33" stop-opacity="0"/>
<stop offset="50%" stop-color="#ffdc33" stop-opacity="0"/>
<stop offset="50%" stop-color="#ffdc33" stop-opacity="1"/>
<stop offset="100%" stop-color="#ffdc33" stop-opacity="1"/>
</linearGradient>
</defs>
<g transform="rotate(-30 250 250)">
<path fill="none" stroke="#ffdc33" stroke-width="76" stroke-linecap="round" d="M 250 350 A 100 100 0 0 0 336.60254037844385 300"/>
<path fill="none" stroke="#f76800" stroke-width="76" stroke-linecap="round" d="M 336.6025403784439 300 A 100 100 0 0 0 250 150"/>
<path fill="none" stroke="#de1743" stroke-width="76" stroke-linecap="round" d="M 250 150 A 100 100 0 0 0 250 350"/>
<path fill="none" stroke="url(#vetoLogoGradient)" stroke-width="76" stroke-linecap="round" d="M 250 350 A 100 100 0 0 0 336.60254037844385 300"/>
</g>
</g>
</g>
</svg>
