<svg xmlns="http://www.w3.org/2000/svg" xmlns:xlink="http://www.w3.org/1999/xlink" width="500" zoomAndPan="magnify" viewBox="0 0 375 374.999991" height="500" preserveAspectRatio="xMidYMid meet" version="1.0"><path stroke-linecap="round" transform="matrix(0.986842, 0, 0, 0.986842, -59.210514, -59.210519)" fill="none" stroke-linejoin="miter" d="M 234.788123 348.835632 C 237.258123 349.215632 239.743956 349.50459 242.233748 349.698549 C 244.727498 349.892507 247.225206 349.991465 249.726873 349.999382 C 252.22854 350.007299 254.726248 349.920215 257.219998 349.738132 C 259.713749 349.560007 262.199582 349.282924 264.67354 348.918757 C 267.147499 348.550632 269.605624 348.091465 272.043957 347.541257 C 274.482291 346.98709 276.896874 346.34584 279.287708 345.613548 C 281.6825 344.881257 284.041666 344.061882 286.369166 343.151465 C 288.700625 342.241048 290.9925 341.247507 293.24875 340.162923 C 295.501042 339.082298 297.71375 337.918548 299.882917 336.671673 C 302.048125 335.424798 304.165834 334.094798 306.236042 332.68959 C 308.302292 331.284381 310.317084 329.800006 312.272501 328.244381 C 314.227918 326.684798 316.123959 325.057923 317.960626 323.359798 C 319.793334 321.657714 321.56271 319.892297 323.264793 318.059589 C 324.966876 316.226881 326.59771 314.334797 328.157293 312.37938 C 329.720835 310.423964 331.20521 308.41313 332.614377 306.34688 C 334.023543 304.28063 335.353543 302.16688 336.604377 300.001672 " stroke="#ffdc33" stroke-width="76" stroke-opacity="1" stroke-miterlimit="4"/><path stroke-linecap="round" transform="matrix(0.986842, 0, 0, 0.986842, -59.210514, -59.210519)" fill="none" stroke-linejoin="miter" d="M 163.395619 199.998334 C 162.386244 201.751876 161.428328 203.533126 160.525828 205.342084 C 159.619369 207.155001 158.772286 208.991668 157.980619 210.852084 C 157.188953 212.712501 156.452703 214.596668 155.775828 216.504585 C 155.098952 218.408543 154.481452 220.336251 153.919369 222.279793 C 153.357286 224.223335 152.858536 226.18271 152.415202 228.157918 C 151.971869 230.129169 151.591869 232.116252 151.271244 234.11521 C 150.946661 236.11021 150.689369 238.117086 150.487494 240.131877 C 150.289577 242.142711 150.151036 244.161461 150.071869 246.184169 C 149.996661 248.202919 149.980827 250.225628 150.024369 252.248336 C 150.071869 254.271045 150.178744 256.289795 150.344994 258.308545 C 150.515202 260.323337 150.744786 262.33417 151.033744 264.337087 C 151.322702 266.340003 151.674994 268.331045 152.082702 270.310212 C 152.494369 272.293337 152.965411 274.25667 153.495827 276.212087 C 154.026244 278.163546 154.616036 280.099171 155.265202 282.015004 C 155.910411 283.930838 156.614994 285.826879 157.378953 287.699171 C 158.142911 289.575421 158.962286 291.423963 159.837078 293.248755 C 160.711869 295.073546 161.642078 296.866671 162.623744 298.636046 C 163.60937 300.405422 164.646453 302.139172 165.734995 303.845213 C 166.823536 305.551255 167.963536 307.221672 169.154995 308.856464 C 170.346453 310.491255 171.585412 312.090422 172.87187 313.650005 C 174.158328 315.209589 175.492287 316.729589 176.873745 318.210006 C 178.255203 319.690422 179.676245 321.127297 181.144787 322.516673 C 182.613329 323.910006 184.121454 325.259798 185.669162 326.562089 C 187.216871 327.860423 188.804162 329.115214 190.431037 330.322506 C 192.053954 331.52584 193.716454 332.681673 195.410621 333.786048 C 197.104788 334.890423 198.830621 335.94334 200.592079 336.94084 C 202.349579 337.942298 204.138746 338.88834 205.955621 339.778965 C 207.772496 340.66959 209.613121 341.504798 211.481455 342.28459 C 213.34583 343.064382 215.233955 343.784798 217.14583 344.449798 C 219.057705 345.114798 220.985414 345.720423 222.932914 346.266674 C 224.884372 346.816882 226.843747 347.303757 228.822914 347.731257 C 230.798122 348.158757 232.789164 348.526882 234.788123 348.835632 " stroke="#f76800" stroke-width="76" stroke-opacity="1" stroke-miterlimit="4"/><path stroke-linecap="round" transform="matrix(0.986842, 0, 0, 0.986842, -59.210514, -59.210519)" fill="none" stroke-linejoin="miter" d="M 336.604377 300.001672 C 337.419794 298.584588 338.203544 297.147713 338.94771 295.691046 C 339.695835 294.23438 340.408335 292.76188 341.081252 291.269588 C 341.758127 289.781254 342.395419 288.273129 342.997085 286.753129 C 343.598752 285.229171 344.160836 283.693338 344.687294 282.145629 C 345.209794 280.593962 345.696669 279.034379 346.147919 277.458962 C 346.595211 275.887504 347.006877 274.30417 347.375002 272.708962 C 347.747086 271.117712 348.079586 269.514587 348.372502 267.903545 C 348.665419 266.296462 348.918752 264.677503 349.132502 263.058545 C 349.342294 261.435628 349.516461 259.808753 349.651044 258.17792 C 349.781669 256.547086 349.876669 254.912295 349.928127 253.277503 C 349.983544 251.642711 349.995419 250.007919 349.967711 248.369169 C 349.940002 246.734378 349.872711 245.099586 349.765836 243.468752 C 349.658961 241.833961 349.512502 240.207086 349.326461 238.580211 C 349.136461 236.957294 348.910836 235.334377 348.645627 233.719377 C 348.376461 232.108335 348.071669 230.501252 347.723336 228.902085 C 347.378961 227.302918 346.995002 225.711668 346.571461 224.132293 C 346.147919 222.552918 345.684794 220.98146 345.182086 219.425835 C 344.683336 217.866251 344.145002 216.322501 343.567086 214.790626 C 342.993127 213.258751 342.379585 211.742709 341.72646 210.242501 C 341.077294 208.742293 340.388544 207.257918 339.664169 205.789376 C 338.939794 204.320834 338.179794 202.872084 337.384169 201.443126 C 336.592502 200.014167 335.761252 198.605001 334.898335 197.215625 C 334.03146 195.82625 333.136877 194.456667 332.20271 193.110834 C 331.272502 191.765 330.310627 190.446875 329.313127 189.148542 C 328.315627 187.850208 327.290418 186.575625 326.229585 185.32875 C 325.17271 184.081875 324.084168 182.85875 322.96396 181.667292 C 321.84771 180.471875 320.699793 179.304166 319.524168 178.168125 C 318.348543 177.032083 317.145209 175.92375 315.914168 174.843125 C 314.683126 173.762499 313.428334 172.717499 312.145834 171.700208 C 310.863334 170.682916 309.557084 169.697291 308.227084 168.743333 C 306.897084 167.789374 305.547292 166.871041 304.169792 165.984374 C 302.79625 165.097707 301.398959 164.246666 299.981875 163.427291 C 298.564792 162.607916 297.127917 161.828124 295.675208 161.079999 C 294.218542 160.331874 292.746042 159.619374 291.25375 158.942499 C 289.765417 158.269582 288.257291 157.63229 286.737291 157.030624 C 285.217291 156.428957 283.681458 155.862915 282.129791 155.336457 C 280.582083 154.813957 279.018541 154.323124 277.447083 153.875832 C 275.871666 153.424582 274.288333 153.016874 272.697082 152.64479 C 271.101874 152.272707 269.502707 151.940207 267.891666 151.64729 C 266.280624 151.354374 264.665624 151.10104 263.042707 150.88729 C 261.41979 150.67354 259.796874 150.499374 258.16604 150.36479 C 256.535207 150.230207 254.900415 150.139165 253.265623 150.083748 C 251.630832 150.028332 249.99604 150.016457 248.35729 150.044165 C 246.722498 150.067915 245.087706 150.135207 243.456873 150.242082 C 241.822081 150.348957 240.195206 150.495415 238.568331 150.685415 C 236.941456 150.871457 235.322498 151.097082 233.707497 151.36229 C 232.092497 151.627499 230.485414 151.936249 228.886247 152.280624 C 227.287081 152.624999 225.699789 153.008957 224.116455 153.432499 C 222.53708 153.85604 220.96958 154.319165 219.409997 154.817915 C 217.850413 155.316665 216.306663 155.854999 214.774788 156.432915 C 213.242913 157.006874 211.726872 157.620415 210.226663 158.273541 C 208.726455 158.922707 207.24208 159.611457 205.773538 160.331874 C 204.304996 161.056249 202.856246 161.816249 201.427288 162.607916 C 199.994371 163.403541 198.585204 164.234791 197.195829 165.097707 C 195.806454 165.960624 194.436871 166.859166 193.094996 167.789374 C 191.749162 168.719583 190.427079 169.681458 189.128746 170.678958 C 187.830412 171.676458 186.555829 172.701666 185.308954 173.758541 C 184.05812 174.819375 182.838954 175.907916 181.643537 177.024166 C 180.44812 178.144375 179.28437 179.288333 178.14437 180.463958 C 177.008328 181.639583 175.896037 182.842917 174.81937 184.073958 C 173.738745 185.301042 172.689787 186.559792 171.672495 187.838333 C 170.655203 189.120833 169.669578 190.427084 168.71562 191.757084 C 167.761661 193.087084 166.843328 194.436875 165.956661 195.814375 C 165.069995 197.187917 164.214995 198.585209 163.395619 199.998334 " stroke="#de1743" stroke-width="76" stroke-opacity="1" stroke-miterlimit="4"/><path stroke-linecap="round" transform="matrix(0.986842, 0, 0, 0.986842, -59.210514, -59.210519)" fill="none" stroke-linejoin="miter" d="M 335.71771 301.50188 C 336.014585 301.007088 336.31146 300.50438 336.604377 300.001672 " stroke="#ffdc33" stroke-width="76" stroke-opacity="1" stroke-miterlimit="4"/></svg>