<svg xmlns="http://www.w3.org/2000/svg" width="1200" height="630" viewBox="0 0 1200 630">
  <rect width="1200" height="630" fill="#f8f6f0"/>
  <rect x="0" y="0" width="1200" height="14" fill="#de1743"/>
  <text x="70" y="92" font-family="Arial, sans-serif" font-size="26" letter-spacing="6" fill="#555555" font-weight="700">DATA PRO BUDOUCÍ PREMIÉRKU · DEMOGRAFIE</text>
  <text x="70" y="290" font-family="Georgia, serif" font-size="170" font-weight="700" fill="#de1743">53 %</text>
  <text x="70" y="364" font-family="Arial, sans-serif" font-size="30" fill="#555555">voličů 2029 starších 50 let</text>
  <text x="70" y="450" font-family="Georgia, serif" font-size="48" font-weight="700" fill="#101432"><tspan x="70" dy="0">Kdo bude volit</tspan><tspan x="70" dy="58">příští Sněmovnu</tspan></text>
  <line x1="770" y1="170" x2="1110" y2="170" stroke="#e8e3d2" stroke-width="2"/><line x1="770" y1="260" x2="1110" y2="260" stroke="#e8e3d2" stroke-width="2"/><line x1="770" y1="350" x2="1110" y2="350" stroke="#e8e3d2" stroke-width="2"/><line x1="770" y1="440" x2="1110" y2="440" stroke="#e8e3d2" stroke-width="2"/><line x1="770" y1="440" x2="1110" y2="440" stroke="#101432" stroke-width="3"/><rect x="790" y="210" width="108.8" height="44" rx="22" fill="#101432" opacity="0.8"/>
      <rect x="790" y="350" width="272" height="44" rx="22" fill="#de1743"/>
      <path d="M892.4 232 C 1008 232, 940 372, 1035.2 372"
        fill="none" stroke="#f76800" stroke-width="6" stroke-dasharray="2 14" stroke-linecap="round"/>
  <g transform="translate(70,566)">
    <circle cx="16" cy="0" r="16" fill="none" stroke="#de1743" stroke-width="9"/>
    <path d="M16 -16 A16 16 0 0 1 30 8" fill="none" stroke="#ffcf02" stroke-width="9"/>
    <text x="48" y="10" font-family="Arial, sans-serif" font-size="30" font-weight="700">
      <tspan fill="#de1743">Data</tspan><tspan fill="#c99a00">Times</tspan><tspan fill="#555555" font-weight="400">.cz</tspan>
    </text>
  </g>
  <text x="1130" y="576" font-family="Arial, sans-serif" font-size="26" fill="#555555" text-anchor="end">mahdalova-skop.cz</text>
</svg>