<svg xmlns="http://www.w3.org/2000/svg" xmlns:xlink="http://www.w3.org/1999/xlink" width="940" zoomAndPan="magnify" viewBox="0 0 705 591.000005" height="788" preserveAspectRatio="xMidYMid meet" version="1.0"><defs><g/><clipPath id="d4179930ba"><path d="M 0.59375 0 L 704.402344 0 L 704.402344 590 L 0.59375 590 Z M 0.59375 0 " clip-rule="nonzero"/></clipPath><clipPath id="9ea5b0f9b5"><path d="M 0.59375 0 L 590.578125 0 L 590.578125 589.984375 L 0.59375 589.984375 Z M 0.59375 0 " clip-rule="nonzero"/></clipPath><clipPath id="19d5f171a8"><rect x="0" width="251" y="0" height="38"/></clipPath><clipPath id="0a9f29ca20"><rect x="0" width="592" y="0" height="590"/></clipPath></defs><g clip-path="url(#d4179930ba)"><path fill="#ffffff" d="M 0.59375 0 L 704.40625 0 L 704.40625 590 L 0.59375 590 Z M 0.59375 0 " fill-opacity="1" fill-rule="nonzero"/><path fill="#f8f6f0" d="M 0.59375 0 L 704.40625 0 L 704.40625 590 L 0.59375 590 Z M 0.59375 0 " fill-opacity="1" fill-rule="nonzero"/></g><g transform="matrix(1, 0, 0, 1, 59, -0.000000000000107785)"><g clip-path="url(#0a9f29ca20)"><g clip-path="url(#9ea5b0f9b5)"><path stroke-linecap="round" transform="matrix(0, 1.552588, 1.552588, 0, -92.559675, -93.155273)" fill="none" stroke-linejoin="miter" d="M 234.788765 348.836045 C 237.256922 349.215955 239.745206 349.50529 242.233491 349.699019 C 244.726807 349.892748 247.225155 349.99087 249.72602 349.998418 C 252.2294 350.008482 254.725232 349.920424 257.221065 349.739274 C 259.714381 349.560641 262.20015 349.283886 264.673338 348.919071 C 267.146527 348.551741 269.60462 348.091321 272.045101 347.540325 C 274.483067 346.986814 276.895872 346.345244 279.288551 345.6131 C 281.683744 344.880956 284.041199 344.060753 286.368462 343.152491 C 288.700757 342.241713 290.992797 341.247909 293.249613 340.16353 C 295.501397 339.081668 297.712926 337.919294 299.881684 336.671378 C 302.047925 335.425978 304.166364 334.095035 306.236999 332.688613 C 308.302602 331.284707 310.317886 329.800291 312.272787 328.245428 C 314.227688 326.685532 316.124722 325.057706 317.961373 323.359433 C 319.792992 321.658644 321.561712 319.89244 323.265017 318.060821 C 324.965806 316.226686 326.598664 314.334684 328.156043 312.379783 C 329.72097 310.424882 331.205387 308.412114 332.614324 306.346511 C 334.023262 304.280908 335.354205 302.167501 336.604637 300.00126 " stroke="#ffdc33" stroke-width="76" stroke-opacity="1" stroke-miterlimit="4"/><path stroke-linecap="round" transform="matrix(0, 1.552588, 1.552588, 0, -92.559675, -93.155273)" fill="none" stroke-linejoin="miter" d="M 163.395882 199.999395 C 162.386982 201.753019 161.428401 203.534319 160.525171 205.343294 C 159.619426 207.154785 158.771547 208.991436 157.981536 210.853247 C 157.189008 212.712541 156.451832 214.596995 155.775039 216.504093 C 155.098245 218.408675 154.481835 220.3359 153.91826 222.280737 C 153.357201 224.223058 152.859041 226.182991 152.416232 228.15802 C 151.970907 230.128017 151.590997 232.115625 151.27147 234.115813 C 150.946911 236.11097 150.690283 238.11619 150.486491 240.131474 C 150.290246 242.141726 150.151868 244.162042 150.071357 246.184874 C 149.995878 248.202674 149.980783 250.225506 150.023554 252.248338 C 150.071357 254.27117 150.179543 256.288969 150.345597 258.309285 C 150.514166 260.324569 150.745634 262.334822 151.03497 264.337526 C 151.321789 266.34023 151.674024 268.330354 152.081609 270.310415 C 152.494227 272.292992 152.964711 274.25544 153.495579 276.212857 C 154.026446 278.162726 154.615181 280.100016 155.264299 282.014661 C 155.9109 283.931823 156.615369 285.826341 157.377705 287.698215 C 158.142557 289.575121 158.96276 291.424352 159.838314 293.248423 C 160.711352 295.072494 161.642258 296.866374 162.623482 298.635093 C 163.609738 300.406329 164.646314 302.139826 165.735725 303.845647 C 166.822619 305.551468 167.962349 307.222065 169.154914 308.857439 C 170.347479 310.490297 171.585332 312.090448 172.870987 313.650343 C 174.159159 315.210238 175.492618 316.729878 176.87388 318.209263 C 178.255142 319.691163 179.676659 321.127777 181.14598 322.516586 C 182.612785 323.910428 184.122361 325.258983 185.669676 326.56225 C 187.216992 327.860486 188.804562 329.11595 190.429873 330.323611 C 192.055183 331.526239 193.715717 332.681065 195.411474 333.785572 C 197.104715 334.890078 198.830663 335.944265 200.591835 336.940586 C 202.350491 337.941938 204.139339 338.887939 205.955862 339.778589 C 207.772385 340.669238 209.614068 341.504537 211.480911 342.284485 C 213.345237 343.064432 215.234723 343.783997 217.146853 344.450726 C 219.056466 345.11494 220.986208 345.721286 222.933561 346.26725 C 224.88343 346.815729 226.843363 347.303825 228.823423 347.731538 C 230.798452 348.159252 232.788576 348.526582 234.788765 348.836045 " stroke="#f76800" stroke-width="76" stroke-opacity="1" stroke-miterlimit="4"/><path stroke-linecap="round" transform="matrix(0, 1.552588, 1.552588, 0, -92.559675, -93.155273)" fill="none" stroke-linejoin="miter" d="M 336.604637 300.00126 C 337.419808 298.584774 338.204788 297.148161 338.946996 295.69142 C 339.696752 294.234679 340.408769 292.762843 341.08053 291.268362 C 341.757323 289.78143 342.396377 288.27437 342.997691 286.752214 C 343.599006 285.230058 344.160065 283.692807 344.688417 282.145491 C 345.20922 280.593144 345.697317 279.033249 346.147673 277.458258 C 346.595514 275.888298 347.008132 274.303244 347.375462 272.708125 C 347.747824 271.118038 348.079931 269.515372 348.371782 267.902641 C 348.66615 266.297459 348.917746 264.67718 349.131602 263.059418 C 349.342943 261.436624 349.516544 259.808798 349.64989 258.178455 C 349.78072 256.548113 349.876326 254.912739 349.929161 253.277365 C 349.984513 251.641991 349.994576 250.009133 349.966901 248.368727 C 349.939225 246.733353 349.87381 245.100495 349.765624 243.467637 C 349.659954 241.834779 349.511512 240.206953 349.325331 238.579127 C 349.136634 236.956332 348.910198 235.333538 348.646022 233.718292 C 348.376814 232.108077 348.072383 230.500379 347.722664 228.902744 C 347.377978 227.302593 346.995552 225.712507 346.570355 224.132484 C 346.147673 222.552461 345.684737 220.982502 345.181545 219.425122 C 344.683385 217.865227 344.144969 216.322944 343.566298 214.790724 C 342.99266 213.258504 342.378765 211.743896 341.727132 210.241868 C 341.078014 208.742356 340.388641 207.25794 339.664044 205.788619 C 338.939448 204.321814 338.179628 202.872621 337.384585 201.443556 C 336.592057 200.014491 335.76179 198.605553 334.898816 197.216743 C 334.03081 195.825417 333.137644 194.456735 332.201707 193.110696 C 331.273318 191.764657 330.309705 190.446294 329.313385 189.148059 C 328.314548 187.849824 327.290553 186.576748 326.228818 185.328832 C 325.172114 184.080915 324.08522 182.858159 322.963101 181.66811 C 321.848531 180.473029 320.698737 179.303107 319.523784 178.168409 C 318.348831 177.031195 317.146202 175.924173 315.913381 174.84231 C 314.683077 173.762963 313.427613 172.716324 312.146989 171.699876 C 310.863849 170.683428 309.558066 169.697172 308.227123 168.743623 C 306.89618 167.790074 305.547626 166.871748 304.16888 165.983615 C 302.795165 165.097997 301.398808 164.247602 299.982322 163.427399 C 298.565837 162.607196 297.126707 161.827249 295.674998 161.080008 C 294.218258 160.332768 292.746421 159.618236 291.254457 158.941442 C 289.765008 158.269681 288.257948 157.633143 286.738308 157.031829 C 285.216152 156.427998 283.681417 155.861907 282.129069 155.336072 C 280.581754 154.812752 279.019343 154.32214 277.446868 153.876815 C 275.871877 153.423942 274.289338 153.016356 272.696735 152.643994 C 271.101616 152.271632 269.501466 151.939525 267.891251 151.647674 C 266.281037 151.353307 264.665791 151.101711 263.042996 150.887854 C 261.420202 150.673998 259.797408 150.500396 258.167066 150.364534 C 256.534208 150.231189 254.90135 150.138098 253.265975 150.082747 C 251.630601 150.027396 249.995227 150.017332 248.357337 150.045008 C 246.721963 150.067651 245.086589 150.135582 243.456247 150.241252 C 241.820873 150.349439 240.195563 150.495364 238.567737 150.686577 C 236.942427 150.870242 235.322148 151.096679 233.706902 151.363371 C 232.091656 151.627546 230.486473 151.93701 228.886322 152.281696 C 227.286172 152.623867 225.698601 153.008808 224.116062 153.43149 C 222.536039 153.856687 220.968596 154.319624 219.411217 154.817784 C 217.851321 155.315944 216.306522 155.854359 214.774302 156.43303 C 213.242083 157.006669 211.727475 157.620563 210.225447 158.274713 C 208.725934 158.923831 207.241518 159.610688 205.774713 160.332768 C 204.305392 161.057365 202.856199 161.817185 201.427134 162.607196 C 199.995553 163.404756 198.584099 164.235022 197.195289 165.097997 C 195.806479 165.960971 194.437797 166.859169 193.094274 167.790074 C 191.748236 168.718463 190.427357 169.682076 189.129121 170.678396 C 187.830886 171.677232 186.555294 172.701228 185.309894 173.757931 C 184.056946 174.819666 182.839221 175.909077 181.64414 177.023647 C 180.449059 178.14325 179.28417 179.288011 178.14444 180.462965 C 177.007226 181.640434 175.895171 182.843063 174.81834 184.073368 C 173.738994 185.301156 172.689838 186.559136 171.67339 187.837244 C 170.654426 189.120383 169.670686 190.426167 168.714621 191.75711 C 167.761072 193.088052 166.842747 194.436607 165.957129 195.815353 C 165.068995 197.189067 164.216085 198.585425 163.395882 199.999395 " stroke="#de1743" stroke-width="76" stroke-opacity="1" stroke-miterlimit="4"/><path stroke-linecap="round" transform="matrix(0, 1.552588, 1.552588, 0, -92.559675, -93.155273)" fill="none" stroke-linejoin="miter" d="M 335.716503 301.500772 C 336.013386 301.007644 336.31027 300.504452 336.604637 300.00126 " stroke="#ffdc33" stroke-width="76" stroke-opacity="1" stroke-miterlimit="4"/></g><g transform="matrix(1, 0, 0, 1, 170, 318)"><g clip-path="url(#19d5f171a8)"><g fill="#000000" fill-opacity="1"><g transform="translate(1.003673, 29.372605)"><g><path d="M 0.65625 -1.65625 L 2.8125 -2.03125 L 2.8125 -12.21875 L 0.65625 -12.59375 L 0.65625 -14.265625 L 5.140625 -14.265625 L 5.3125 -12.40625 C 5.769531 -13.082031 6.359375 -13.601562 7.078125 -13.96875 C 7.796875 -14.34375 8.628906 -14.53125 9.578125 -14.53125 C 10.535156 -14.53125 11.351562 -14.304688 12.03125 -13.859375 C 12.707031 -13.421875 13.21875 -12.765625 13.5625 -11.890625 C 14.007812 -12.703125 14.601562 -13.34375 15.34375 -13.8125 C 16.082031 -14.289062 16.945312 -14.53125 17.9375 -14.53125 C 19.394531 -14.53125 20.546875 -14.03125 21.390625 -13.03125 C 22.234375 -12.03125 22.65625 -10.53125 22.65625 -8.53125 L 22.65625 -2.03125 L 24.796875 -1.65625 L 24.796875 0 L 17.890625 0 L 17.890625 -1.65625 L 20.046875 -2.03125 L 20.046875 -8.5625 C 20.046875 -9.96875 19.800781 -10.960938 19.3125 -11.546875 C 18.832031 -12.128906 18.117188 -12.421875 17.171875 -12.421875 C 16.265625 -12.421875 15.535156 -12.097656 14.984375 -11.453125 C 14.429688 -10.816406 14.113281 -10.019531 14.03125 -9.0625 L 14.03125 -2.03125 L 16.171875 -1.65625 L 16.171875 0 L 9.28125 0 L 9.28125 -1.65625 L 11.4375 -2.03125 L 11.4375 -8.5625 C 11.4375 -9.894531 11.1875 -10.867188 10.6875 -11.484375 C 10.1875 -12.109375 9.46875 -12.421875 8.53125 -12.421875 C 7.738281 -12.421875 7.085938 -12.253906 6.578125 -11.921875 C 6.066406 -11.597656 5.675781 -11.144531 5.40625 -10.5625 L 5.40625 -2.03125 L 7.546875 -1.65625 L 7.546875 0 L 0.65625 0 Z M 0.65625 -1.65625 "/></g></g></g><g fill="#000000" fill-opacity="1"><g transform="translate(26.510312, 29.372605)"><g><path d="M 10.484375 0 C 10.398438 -0.382812 10.335938 -0.726562 10.296875 -1.03125 C 10.253906 -1.34375 10.222656 -1.65625 10.203125 -1.96875 C 9.703125 -1.320312 9.078125 -0.785156 8.328125 -0.359375 C 7.578125 0.0664062 6.773438 0.28125 5.921875 0.28125 C 4.429688 0.28125 3.300781 -0.0820312 2.53125 -0.8125 C 1.757812 -1.539062 1.375 -2.5625 1.375 -3.875 C 1.375 -5.226562 1.921875 -6.269531 3.015625 -7 C 4.109375 -7.738281 5.609375 -8.109375 7.515625 -8.109375 L 10.1875 -8.109375 L 10.1875 -9.765625 C 10.1875 -10.597656 9.921875 -11.257812 9.390625 -11.75 C 8.867188 -12.238281 8.140625 -12.484375 7.203125 -12.484375 C 6.546875 -12.484375 5.96875 -12.398438 5.46875 -12.234375 C 4.976562 -12.066406 4.578125 -11.835938 4.265625 -11.546875 L 4 -10.046875 L 1.984375 -10.046875 L 1.984375 -12.8125 C 2.640625 -13.332031 3.425781 -13.75 4.34375 -14.0625 C 5.269531 -14.375 6.273438 -14.53125 7.359375 -14.53125 C 8.972656 -14.53125 10.28125 -14.113281 11.28125 -13.28125 C 12.28125 -12.457031 12.78125 -11.28125 12.78125 -9.75 L 12.78125 -2.875 C 12.78125 -2.6875 12.78125 -2.503906 12.78125 -2.328125 C 12.789062 -2.148438 12.804688 -1.976562 12.828125 -1.8125 L 13.875 -1.65625 L 13.875 0 Z M 6.296875 -1.90625 C 7.160156 -1.90625 7.945312 -2.109375 8.65625 -2.515625 C 9.375 -2.929688 9.882812 -3.429688 10.1875 -4.015625 L 10.1875 -6.359375 L 7.421875 -6.359375 C 6.359375 -6.359375 5.515625 -6.109375 4.890625 -5.609375 C 4.273438 -5.117188 3.96875 -4.523438 3.96875 -3.828125 C 3.96875 -3.203125 4.160156 -2.722656 4.546875 -2.390625 C 4.929688 -2.066406 5.515625 -1.90625 6.296875 -1.90625 Z M 6.296875 -1.90625 "/></g></g></g><g fill="#000000" fill-opacity="1"><g transform="translate(41.379299, 29.372605)"><g><path d="M 0.8125 -1.65625 L 2.96875 -2.03125 L 2.96875 -18.515625 L 0.8125 -18.890625 L 0.8125 -20.5625 L 5.5625 -20.5625 L 5.5625 -12.359375 C 6.050781 -13.046875 6.648438 -13.578125 7.359375 -13.953125 C 8.078125 -14.335938 8.875 -14.53125 9.75 -14.53125 C 11.269531 -14.53125 12.453125 -14.070312 13.296875 -13.15625 C 14.140625 -12.238281 14.5625 -10.832031 14.5625 -8.9375 L 14.5625 -2.03125 L 16.71875 -1.65625 L 16.71875 0 L 9.828125 0 L 9.828125 -1.65625 L 11.96875 -2.03125 L 11.96875 -8.96875 C 11.96875 -10.144531 11.710938 -11.015625 11.203125 -11.578125 C 10.703125 -12.140625 9.953125 -12.421875 8.953125 -12.421875 C 8.242188 -12.421875 7.59375 -12.25 7 -11.90625 C 6.414062 -11.570312 5.9375 -11.113281 5.5625 -10.53125 L 5.5625 -2.03125 L 7.71875 -1.65625 L 7.71875 0 L 0.8125 0 Z M 0.8125 -1.65625 "/></g></g></g><g fill="#000000" fill-opacity="1"><g transform="translate(58.673713, 29.372605)"><g><path d="M 10.78125 -1.703125 C 10.3125 -1.046875 9.738281 -0.550781 9.0625 -0.21875 C 8.394531 0.113281 7.617188 0.28125 6.734375 0.28125 C 4.992188 0.28125 3.632812 -0.347656 2.65625 -1.609375 C 1.675781 -2.867188 1.1875 -4.53125 1.1875 -6.59375 L 1.1875 -6.875 C 1.1875 -9.164062 1.675781 -11.015625 2.65625 -12.421875 C 3.632812 -13.828125 5.003906 -14.53125 6.765625 -14.53125 C 7.609375 -14.53125 8.351562 -14.375 9 -14.0625 C 9.644531 -13.75 10.195312 -13.296875 10.65625 -12.703125 L 10.65625 -18.515625 L 8.5 -18.890625 L 8.5 -20.5625 L 13.25 -20.5625 L 13.25 -2.03125 L 15.40625 -1.65625 L 15.40625 0 L 11 0 Z M 3.78125 -6.59375 C 3.78125 -5.15625 4.070312 -4 4.65625 -3.125 C 5.25 -2.257812 6.160156 -1.828125 7.390625 -1.828125 C 8.171875 -1.828125 8.820312 -2.003906 9.34375 -2.359375 C 9.875 -2.710938 10.3125 -3.207031 10.65625 -3.84375 L 10.65625 -10.46875 C 10.320312 -11.0625 9.882812 -11.535156 9.34375 -11.890625 C 8.8125 -12.242188 8.171875 -12.421875 7.421875 -12.421875 C 6.179688 -12.421875 5.265625 -11.90625 4.671875 -10.875 C 4.078125 -9.84375 3.78125 -8.507812 3.78125 -6.875 Z M 3.78125 -6.59375 "/></g></g></g><g fill="#000000" fill-opacity="1"><g transform="translate(74.874054, 29.372605)"><g><path d="M 10.484375 0 C 10.398438 -0.382812 10.335938 -0.726562 10.296875 -1.03125 C 10.253906 -1.34375 10.222656 -1.65625 10.203125 -1.96875 C 9.703125 -1.320312 9.078125 -0.785156 8.328125 -0.359375 C 7.578125 0.0664062 6.773438 0.28125 5.921875 0.28125 C 4.429688 0.28125 3.300781 -0.0820312 2.53125 -0.8125 C 1.757812 -1.539062 1.375 -2.5625 1.375 -3.875 C 1.375 -5.226562 1.921875 -6.269531 3.015625 -7 C 4.109375 -7.738281 5.609375 -8.109375 7.515625 -8.109375 L 10.1875 -8.109375 L 10.1875 -9.765625 C 10.1875 -10.597656 9.921875 -11.257812 9.390625 -11.75 C 8.867188 -12.238281 8.140625 -12.484375 7.203125 -12.484375 C 6.546875 -12.484375 5.96875 -12.398438 5.46875 -12.234375 C 4.976562 -12.066406 4.578125 -11.835938 4.265625 -11.546875 L 4 -10.046875 L 1.984375 -10.046875 L 1.984375 -12.8125 C 2.640625 -13.332031 3.425781 -13.75 4.34375 -14.0625 C 5.269531 -14.375 6.273438 -14.53125 7.359375 -14.53125 C 8.972656 -14.53125 10.28125 -14.113281 11.28125 -13.28125 C 12.28125 -12.457031 12.78125 -11.28125 12.78125 -9.75 L 12.78125 -2.875 C 12.78125 -2.6875 12.78125 -2.503906 12.78125 -2.328125 C 12.789062 -2.148438 12.804688 -1.976562 12.828125 -1.8125 L 13.875 -1.65625 L 13.875 0 Z M 6.296875 -1.90625 C 7.160156 -1.90625 7.945312 -2.109375 8.65625 -2.515625 C 9.375 -2.929688 9.882812 -3.429688 10.1875 -4.015625 L 10.1875 -6.359375 L 7.421875 -6.359375 C 6.359375 -6.359375 5.515625 -6.109375 4.890625 -5.609375 C 4.273438 -5.117188 3.96875 -4.523438 3.96875 -3.828125 C 3.96875 -3.203125 4.160156 -2.722656 4.546875 -2.390625 C 4.929688 -2.066406 5.515625 -1.90625 6.296875 -1.90625 Z M 6.296875 -1.90625 "/></g></g></g><g fill="#000000" fill-opacity="1"><g transform="translate(89.74304, 29.372605)"><g><path d="M 0.8125 -18.890625 L 0.8125 -20.5625 L 5.5625 -20.5625 L 5.5625 -2.03125 L 7.71875 -1.65625 L 7.71875 0 L 0.8125 0 L 0.8125 -1.65625 L 2.96875 -2.03125 L 2.96875 -18.515625 Z M 0.8125 -18.890625 "/></g></g></g><g fill="#000000" fill-opacity="1"><g transform="translate(97.9816, 29.372605)"><g><path d="M 1.1875 -7.265625 C 1.1875 -9.367188 1.753906 -11.101562 2.890625 -12.46875 C 4.035156 -13.84375 5.585938 -14.53125 7.546875 -14.53125 C 9.515625 -14.53125 11.070312 -13.847656 12.21875 -12.484375 C 13.375 -11.117188 13.953125 -9.378906 13.953125 -7.265625 L 13.953125 -6.96875 C 13.953125 -4.84375 13.378906 -3.101562 12.234375 -1.75 C 11.085938 -0.394531 9.535156 0.28125 7.578125 0.28125 C 5.597656 0.28125 4.035156 -0.394531 2.890625 -1.75 C 1.753906 -3.113281 1.1875 -4.851562 1.1875 -6.96875 Z M 3.78125 -6.96875 C 3.78125 -5.457031 4.097656 -4.207031 4.734375 -3.21875 C 5.378906 -2.238281 6.328125 -1.75 7.578125 -1.75 C 8.804688 -1.75 9.738281 -2.238281 10.375 -3.21875 C 11.019531 -4.207031 11.34375 -5.457031 11.34375 -6.96875 L 11.34375 -7.265625 C 11.34375 -8.753906 11.019531 -9.992188 10.375 -10.984375 C 9.738281 -11.984375 8.796875 -12.484375 7.546875 -12.484375 C 6.304688 -12.484375 5.367188 -11.984375 4.734375 -10.984375 C 4.097656 -9.992188 3.78125 -8.753906 3.78125 -7.265625 Z M 3.78125 -6.96875 "/></g></g></g><g fill="#000000" fill-opacity="1"><g transform="translate(112.929657, 29.372605)"><g><path d="M 6.0625 -12.59375 L 4.34375 -12.328125 L 7.296875 -4.203125 L 7.53125 -3.171875 L 7.609375 -3.171875 L 7.859375 -4.203125 L 10.703125 -12.328125 L 8.984375 -12.59375 L 8.984375 -14.265625 L 14.484375 -14.265625 L 14.484375 -12.59375 L 13.3125 -12.390625 L 8.53125 0 L 6.5625 0 L 1.734375 -12.390625 L 0.546875 -12.59375 L 0.546875 -14.265625 L 6.0625 -14.265625 Z M 6.0625 -12.59375 "/></g></g></g><g fill="#000000" fill-opacity="1"><g transform="translate(127.798624, 29.372605)"><g><path d="M 10.484375 0 C 10.398438 -0.382812 10.335938 -0.726562 10.296875 -1.03125 C 10.253906 -1.34375 10.222656 -1.65625 10.203125 -1.96875 C 9.703125 -1.320312 9.078125 -0.785156 8.328125 -0.359375 C 7.578125 0.0664062 6.773438 0.28125 5.921875 0.28125 C 4.429688 0.28125 3.300781 -0.0820312 2.53125 -0.8125 C 1.757812 -1.539062 1.375 -2.5625 1.375 -3.875 C 1.375 -5.226562 1.921875 -6.269531 3.015625 -7 C 4.109375 -7.738281 5.609375 -8.109375 7.515625 -8.109375 L 10.1875 -8.109375 L 10.1875 -9.765625 C 10.1875 -10.597656 9.921875 -11.257812 9.390625 -11.75 C 8.867188 -12.238281 8.140625 -12.484375 7.203125 -12.484375 C 6.546875 -12.484375 5.96875 -12.398438 5.46875 -12.234375 C 4.976562 -12.066406 4.578125 -11.835938 4.265625 -11.546875 L 4 -10.046875 L 1.984375 -10.046875 L 1.984375 -12.8125 C 2.640625 -13.332031 3.425781 -13.75 4.34375 -14.0625 C 5.269531 -14.375 6.273438 -14.53125 7.359375 -14.53125 C 8.972656 -14.53125 10.28125 -14.113281 11.28125 -13.28125 C 12.28125 -12.457031 12.78125 -11.28125 12.78125 -9.75 L 12.78125 -2.875 C 12.78125 -2.6875 12.78125 -2.503906 12.78125 -2.328125 C 12.789062 -2.148438 12.804688 -1.976562 12.828125 -1.8125 L 13.875 -1.65625 L 13.875 0 Z M 6.296875 -1.90625 C 7.160156 -1.90625 7.945312 -2.109375 8.65625 -2.515625 C 9.375 -2.929688 9.882812 -3.429688 10.1875 -4.015625 L 10.1875 -6.359375 L 7.421875 -6.359375 C 6.359375 -6.359375 5.515625 -6.109375 4.890625 -5.609375 C 4.273438 -5.117188 3.96875 -4.523438 3.96875 -3.828125 C 3.96875 -3.203125 4.160156 -2.722656 4.546875 -2.390625 C 4.929688 -2.066406 5.515625 -1.90625 6.296875 -1.90625 Z M 6.296875 -1.90625 "/></g></g></g><g fill="#000000" fill-opacity="1"><g transform="translate(142.667611, 29.372605)"><g><path d="M 8.484375 -7.09375 L 2.03125 -7.09375 L 2.03125 -9.125 L 8.484375 -9.125 Z M 8.484375 -7.09375 "/></g></g></g><g fill="#000000" fill-opacity="1"><g transform="translate(153.173446, 29.372605)"><g><path d="M 12.09375 -9.78125 L 10.140625 -9.78125 L 9.71875 -11.5 C 9.394531 -11.789062 8.992188 -12.023438 8.515625 -12.203125 C 8.046875 -12.390625 7.503906 -12.484375 6.890625 -12.484375 C 5.972656 -12.484375 5.289062 -12.28125 4.84375 -11.875 C 4.394531 -11.46875 4.171875 -10.984375 4.171875 -10.421875 C 4.171875 -9.859375 4.367188 -9.410156 4.765625 -9.078125 C 5.160156 -8.753906 5.960938 -8.46875 7.171875 -8.21875 C 8.972656 -7.832031 10.3125 -7.304688 11.1875 -6.640625 C 12.070312 -5.972656 12.515625 -5.082031 12.515625 -3.96875 C 12.515625 -2.695312 12 -1.671875 10.96875 -0.890625 C 9.945312 -0.109375 8.613281 0.28125 6.96875 0.28125 C 5.882812 0.28125 4.910156 0.15625 4.046875 -0.09375 C 3.179688 -0.34375 2.410156 -0.707031 1.734375 -1.1875 L 1.734375 -4.4375 L 3.671875 -4.4375 L 4.171875 -2.53125 C 4.460938 -2.257812 4.863281 -2.0625 5.375 -1.9375 C 5.894531 -1.8125 6.425781 -1.75 6.96875 -1.75 C 7.882812 -1.75 8.601562 -1.9375 9.125 -2.3125 C 9.65625 -2.6875 9.921875 -3.175781 9.921875 -3.78125 C 9.921875 -4.351562 9.703125 -4.820312 9.265625 -5.1875 C 8.828125 -5.5625 8.003906 -5.882812 6.796875 -6.15625 C 5.054688 -6.53125 3.75 -7.039062 2.875 -7.6875 C 2 -8.34375 1.5625 -9.226562 1.5625 -10.34375 C 1.5625 -11.5 2.050781 -12.484375 3.03125 -13.296875 C 4.019531 -14.117188 5.304688 -14.53125 6.890625 -14.53125 C 7.972656 -14.53125 8.941406 -14.390625 9.796875 -14.109375 C 10.660156 -13.828125 11.378906 -13.4375 11.953125 -12.9375 Z M 12.09375 -9.78125 "/></g></g></g><g fill="#000000" fill-opacity="1"><g transform="translate(166.935158, 29.372605)"><g><path d="M 0.8125 -18.890625 L 0.8125 -20.5625 L 5.5625 -20.5625 L 5.5625 -8.65625 L 7.21875 -8.65625 L 10.265625 -12.421875 L 8.96875 -12.59375 L 8.96875 -14.265625 L 14.9375 -14.265625 L 14.9375 -12.59375 L 13.203125 -12.25 L 9.4375 -7.765625 L 14.015625 -1.984375 L 15.640625 -1.65625 L 15.640625 0 L 9.71875 0 L 9.71875 -1.65625 L 11.046875 -1.828125 L 7.265625 -6.578125 L 5.5625 -6.578125 L 5.5625 -2.03125 L 7.71875 -1.65625 L 7.71875 0 L 0.8125 0 L 0.8125 -1.65625 L 2.96875 -2.03125 L 2.96875 -18.515625 Z M 0.8125 -18.890625 "/></g></g></g><g fill="#000000" fill-opacity="1"><g transform="translate(183.346416, 29.372605)"><g><path d="M 1.1875 -7.265625 C 1.1875 -9.367188 1.753906 -11.101562 2.890625 -12.46875 C 4.035156 -13.84375 5.585938 -14.53125 7.546875 -14.53125 C 9.515625 -14.53125 11.070312 -13.847656 12.21875 -12.484375 C 13.375 -11.117188 13.953125 -9.378906 13.953125 -7.265625 L 13.953125 -6.96875 C 13.953125 -4.84375 13.378906 -3.101562 12.234375 -1.75 C 11.085938 -0.394531 9.535156 0.28125 7.578125 0.28125 C 5.597656 0.28125 4.035156 -0.394531 2.890625 -1.75 C 1.753906 -3.113281 1.1875 -4.851562 1.1875 -6.96875 Z M 3.78125 -6.96875 C 3.78125 -5.457031 4.097656 -4.207031 4.734375 -3.21875 C 5.378906 -2.238281 6.328125 -1.75 7.578125 -1.75 C 8.804688 -1.75 9.738281 -2.238281 10.375 -3.21875 C 11.019531 -4.207031 11.34375 -5.457031 11.34375 -6.96875 L 11.34375 -7.265625 C 11.34375 -8.753906 11.019531 -9.992188 10.375 -10.984375 C 9.738281 -11.984375 8.796875 -12.484375 7.546875 -12.484375 C 6.304688 -12.484375 5.367188 -11.984375 4.734375 -10.984375 C 4.097656 -9.992188 3.78125 -8.753906 3.78125 -7.265625 Z M 3.78125 -6.96875 "/></g></g></g><g fill="#000000" fill-opacity="1"><g transform="translate(198.492228, 29.372605)"><g><path d="M 0.859375 3.8125 L 3 3.4375 L 3 -12.21875 L 0.859375 -12.59375 L 0.859375 -14.265625 L 5.234375 -14.265625 L 5.46875 -12.53125 C 5.945312 -13.175781 6.523438 -13.671875 7.203125 -14.015625 C 7.890625 -14.359375 8.679688 -14.53125 9.578125 -14.53125 C 11.335938 -14.53125 12.707031 -13.828125 13.6875 -12.421875 C 14.664062 -11.023438 15.15625 -9.175781 15.15625 -6.875 L 15.15625 -6.59375 C 15.15625 -4.53125 14.660156 -2.867188 13.671875 -1.609375 C 12.691406 -0.347656 11.335938 0.28125 9.609375 0.28125 C 8.734375 0.28125 7.960938 0.132812 7.296875 -0.15625 C 6.628906 -0.457031 6.066406 -0.898438 5.609375 -1.484375 L 5.609375 3.4375 L 7.75 3.8125 L 7.75 5.484375 L 0.859375 5.484375 Z M 12.546875 -6.875 C 12.546875 -8.5 12.226562 -9.828125 11.59375 -10.859375 C 10.96875 -11.898438 10.03125 -12.421875 8.78125 -12.421875 C 8.039062 -12.421875 7.40625 -12.253906 6.875 -11.921875 C 6.351562 -11.585938 5.929688 -11.128906 5.609375 -10.546875 L 5.609375 -3.59375 C 5.929688 -3.007812 6.351562 -2.554688 6.875 -2.234375 C 7.394531 -1.910156 8.039062 -1.75 8.8125 -1.75 C 10.039062 -1.75 10.96875 -2.195312 11.59375 -3.09375 C 12.226562 -3.988281 12.546875 -5.15625 12.546875 -6.59375 Z M 12.546875 -6.875 "/></g></g></g><g fill="#000000" fill-opacity="1"><g transform="translate(214.837568, 29.372605)"><g><path d="M 4.515625 0 L 1.90625 0 L 1.90625 -2.65625 L 4.515625 -2.65625 Z M 4.515625 0 "/></g></g></g><g fill="#000000" fill-opacity="1"><g transform="translate(221.336149, 29.372605)"><g><path d="M 7.578125 -1.75 C 8.441406 -1.75 9.203125 -2.015625 9.859375 -2.546875 C 10.515625 -3.078125 10.84375 -3.734375 10.84375 -4.515625 L 13.171875 -4.515625 L 13.203125 -4.4375 C 13.242188 -3.195312 12.691406 -2.097656 11.546875 -1.140625 C 10.410156 -0.191406 9.085938 0.28125 7.578125 0.28125 C 5.503906 0.28125 3.921875 -0.394531 2.828125 -1.75 C 1.734375 -3.101562 1.1875 -4.804688 1.1875 -6.859375 L 1.1875 -7.40625 C 1.1875 -9.4375 1.734375 -11.128906 2.828125 -12.484375 C 3.929688 -13.847656 5.515625 -14.53125 7.578125 -14.53125 C 8.722656 -14.53125 9.75 -14.335938 10.65625 -13.953125 C 11.570312 -13.578125 12.328125 -13.0625 12.921875 -12.40625 L 13.03125 -9.234375 L 10.96875 -9.234375 L 10.40625 -11.484375 C 10.09375 -11.785156 9.691406 -12.023438 9.203125 -12.203125 C 8.722656 -12.390625 8.179688 -12.484375 7.578125 -12.484375 C 6.210938 -12.484375 5.238281 -11.992188 4.65625 -11.015625 C 4.070312 -10.035156 3.78125 -8.832031 3.78125 -7.40625 L 3.78125 -6.859375 C 3.78125 -5.398438 4.070312 -4.179688 4.65625 -3.203125 C 5.238281 -2.234375 6.210938 -1.75 7.578125 -1.75 Z M 7.578125 -1.75 "/></g></g></g><g fill="#000000" fill-opacity="1"><g transform="translate(235.888774, 29.372605)"><g><path d="M 4.5625 -2.03125 L 10.390625 -2.03125 L 10.59375 -4.234375 L 12.796875 -4.234375 L 12.796875 0 L 1.484375 0 L 1.484375 -1.8125 L 9.1875 -12.203125 L 3.96875 -12.203125 L 3.765625 -10.015625 L 1.5625 -10.015625 L 1.5625 -14.265625 L 12.359375 -14.265625 L 12.359375 -12.5 Z M 4.5625 -2.03125 "/></g></g></g></g></g><g fill="#000000" fill-opacity="1"><g transform="translate(24.900338, 309.299099)"><g><path d="M 14.296875 -32.328125 L 11.5 -31.828125 L 18.015625 -9.78125 L 18.46875 -7.75 L 18.625 -7.75 L 19.046875 -9.71875 L 25.59375 -31.828125 L 22.8125 -32.328125 L 22.8125 -36.78125 L 36.25 -36.78125 L 36.25 -32.328125 L 33.171875 -31.9375 L 22.328125 0 L 14.75 0 L 3.890625 -31.9375 L 0.859375 -32.328125 L 0.859375 -36.78125 L 14.296875 -36.78125 Z M 14.296875 -32.328125 "/></g></g></g><g fill="#000000" fill-opacity="1"><g transform="translate(60.814064, 309.299099)"><g><path d="M 1.59375 -13.921875 C 1.59375 -17.992188 2.734375 -21.332031 5.015625 -23.9375 C 7.296875 -26.539062 10.445312 -27.84375 14.46875 -27.84375 C 18.507812 -27.84375 21.671875 -26.546875 23.953125 -23.953125 C 26.242188 -21.359375 27.390625 -18.015625 27.390625 -13.921875 L 27.390625 -13.390625 C 27.390625 -9.273438 26.242188 -5.925781 23.953125 -3.34375 C 21.671875 -0.757812 18.53125 0.53125 14.53125 0.53125 C 10.46875 0.53125 7.296875 -0.757812 5.015625 -3.34375 C 2.734375 -5.925781 1.59375 -9.273438 1.59375 -13.390625 Z M 8.96875 -13.390625 C 8.96875 -10.898438 9.40625 -8.898438 10.28125 -7.390625 C 11.15625 -5.878906 12.570312 -5.125 14.53125 -5.125 C 16.425781 -5.125 17.816406 -5.878906 18.703125 -7.390625 C 19.585938 -8.910156 20.03125 -10.910156 20.03125 -13.390625 L 20.03125 -13.921875 C 20.03125 -16.347656 19.582031 -18.328125 18.6875 -19.859375 C 17.800781 -21.390625 16.394531 -22.15625 14.46875 -22.15625 C 12.550781 -22.15625 11.15625 -21.390625 10.28125 -19.859375 C 9.40625 -18.328125 8.96875 -16.347656 8.96875 -13.921875 Z M 8.96875 -13.390625 "/></g></g></g><g fill="#000000" fill-opacity="1"><g transform="translate(89.302627, 309.299099)"><g><path d="M 0.8125 -34.96875 L 0.8125 -39.40625 L 12.125 -39.40625 L 12.125 -5.171875 L 15.6875 -4.421875 L 15.6875 0 L 1.1875 0 L 1.1875 -4.421875 L 4.75 -5.171875 L 4.75 -34.203125 Z M 0.8125 -34.96875 "/></g></g></g><g fill="#000000" fill-opacity="1"><g transform="translate(105.794703, 309.299099)"><g><path d="M 14.671875 0.53125 C 10.734375 0.53125 7.582031 -0.726562 5.21875 -3.25 C 2.863281 -5.78125 1.6875 -8.992188 1.6875 -12.890625 L 1.6875 -13.890625 C 1.6875 -17.953125 2.800781 -21.296875 5.03125 -23.921875 C 7.269531 -26.546875 10.265625 -27.851562 14.015625 -27.84375 C 17.703125 -27.84375 20.566406 -26.726562 22.609375 -24.5 C 24.648438 -22.28125 25.671875 -19.273438 25.671875 -15.484375 L 25.671875 -11.46875 L 9.34375 -11.46875 L 9.296875 -11.3125 C 9.429688 -9.507812 10.03125 -8.023438 11.09375 -6.859375 C 12.164062 -5.703125 13.617188 -5.125 15.453125 -5.125 C 17.085938 -5.125 18.441406 -5.285156 19.515625 -5.609375 C 20.597656 -5.941406 21.78125 -6.460938 23.0625 -7.171875 L 25.0625 -2.625 C 23.925781 -1.726562 22.460938 -0.976562 20.671875 -0.375 C 18.878906 0.226562 16.878906 0.53125 14.671875 0.53125 Z M 14.015625 -22.15625 C 12.648438 -22.15625 11.570312 -21.628906 10.78125 -20.578125 C 9.988281 -19.535156 9.503906 -18.164062 9.328125 -16.46875 L 9.390625 -16.34375 L 18.4375 -16.34375 L 18.4375 -17 C 18.4375 -18.5625 18.070312 -19.8125 17.34375 -20.75 C 16.613281 -21.6875 15.503906 -22.15625 14.015625 -22.15625 Z M 14.015625 -22.15625 "/></g></g></g><g fill="#000000" fill-opacity="1"><g transform="translate(133.348846, 309.299099)"><g><path d="M 28.015625 -12.90625 C 28.015625 -8.832031 27.101562 -5.570312 25.28125 -3.125 C 23.46875 -0.6875 20.84375 0.53125 17.40625 0.53125 C 15.800781 0.53125 14.410156 0.195312 13.234375 -0.46875 C 12.054688 -1.132812 11.0625 -2.097656 10.25 -3.359375 L 9.71875 0 L 3.359375 0 L 3.359375 -34.203125 L -0.5625 -34.96875 L -0.5625 -39.40625 L 10.703125 -39.40625 L 10.703125 -24.421875 C 11.492188 -25.515625 12.441406 -26.359375 13.546875 -26.953125 C 14.648438 -27.546875 15.921875 -27.84375 17.359375 -27.84375 C 20.828125 -27.84375 23.46875 -26.53125 25.28125 -23.90625 C 27.101562 -21.289062 28.015625 -17.800781 28.015625 -13.4375 Z M 20.65625 -13.4375 C 20.65625 -16.101562 20.265625 -18.210938 19.484375 -19.765625 C 18.703125 -21.328125 17.367188 -22.109375 15.484375 -22.109375 C 14.335938 -22.109375 13.367188 -21.863281 12.578125 -21.375 C 11.785156 -20.894531 11.160156 -20.210938 10.703125 -19.328125 L 10.703125 -7.78125 C 11.160156 -6.9375 11.789062 -6.296875 12.59375 -5.859375 C 13.394531 -5.421875 14.375 -5.203125 15.53125 -5.203125 C 17.4375 -5.203125 18.765625 -5.867188 19.515625 -7.203125 C 20.273438 -8.546875 20.65625 -10.445312 20.65625 -12.90625 Z M 20.65625 -13.4375 "/></g></g></g><g fill="#000000" fill-opacity="1"><g transform="translate(163.176015, 309.299099)"><g><path d="M 1.1875 -4.421875 L 4.71875 -5.171875 L 4.71875 -22.125 L 0.8125 -22.890625 L 0.8125 -27.328125 L 11.59375 -27.328125 L 11.921875 -23.421875 C 12.828125 -24.816406 13.945312 -25.898438 15.28125 -26.671875 C 16.613281 -27.453125 18.101562 -27.84375 19.75 -27.84375 C 22.507812 -27.84375 24.664062 -26.972656 26.21875 -25.234375 C 27.769531 -23.503906 28.546875 -20.785156 28.546875 -17.078125 L 28.546875 -5.171875 L 32.078125 -4.421875 L 32.078125 0 L 17.984375 0 L 17.984375 -4.421875 L 21.140625 -5.171875 L 21.140625 -17.046875 C 21.140625 -18.878906 20.769531 -20.179688 20.03125 -20.953125 C 19.289062 -21.722656 18.171875 -22.109375 16.671875 -22.109375 C 15.691406 -22.109375 14.816406 -21.910156 14.046875 -21.515625 C 13.273438 -21.117188 12.625 -20.554688 12.09375 -19.828125 L 12.09375 -5.171875 L 15.078125 -4.421875 L 15.078125 0 L 1.1875 0 Z M 1.1875 -4.421875 "/></g></g></g><g fill="#000000" fill-opacity="1"><g transform="translate(196.008633, 309.299099)"><g><path d="M 1.765625 0 Z M 1.765625 -22.890625 L 1.765625 -27.328125 L 13.078125 -27.328125 L 13.078125 -5.171875 L 16.625 -4.421875 L 16.625 0 L 2.140625 0 L 2.140625 -4.421875 L 5.703125 -5.171875 L 5.703125 -22.125 Z M 9.703125 -37.984375 L 17.515625 -37.984375 L 17.5625 -37.84375 L 10.59375 -31.265625 L 4.6875 -31.265625 Z M 9.703125 -37.984375 "/></g></g></g><g fill="#000000" fill-opacity="1"><g transform="translate(213.334152, 309.299099)"><g/></g></g><g fill="#000000" fill-opacity="1"><g transform="translate(226.012593, 309.299099)"><g><path d="M 1.03125 -22.890625 L 1.03125 -27.328125 L 11.75 -27.328125 L 12.09375 -24.15625 C 12.90625 -25.332031 13.875 -26.238281 15 -26.875 C 16.132812 -27.519531 17.453125 -27.84375 18.953125 -27.84375 C 22.328125 -27.84375 24.945312 -26.519531 26.8125 -23.875 C 28.6875 -21.226562 29.625 -17.75 29.625 -13.4375 L 29.625 -12.90625 C 29.625 -8.863281 28.6875 -5.613281 26.8125 -3.15625 C 24.945312 -0.695312 22.34375 0.53125 19 0.53125 C 17.5625 0.53125 16.285156 0.265625 15.171875 -0.265625 C 14.066406 -0.796875 13.117188 -1.578125 12.328125 -2.609375 L 12.328125 5.3125 L 15.890625 6.0625 L 15.890625 10.515625 L 1.421875 10.515625 L 1.421875 6.0625 L 4.96875 5.3125 L 4.96875 -22.125 Z M 22.25 -13.4375 C 22.25 -16.007812 21.816406 -18.097656 20.953125 -19.703125 C 20.097656 -21.304688 18.789062 -22.109375 17.03125 -22.109375 C 15.914062 -22.109375 14.96875 -21.878906 14.1875 -21.421875 C 13.40625 -20.960938 12.785156 -20.3125 12.328125 -19.46875 L 12.328125 -7.5 C 12.785156 -6.726562 13.40625 -6.140625 14.1875 -5.734375 C 14.96875 -5.328125 15.929688 -5.125 17.078125 -5.125 C 18.859375 -5.125 20.164062 -5.820312 21 -7.21875 C 21.832031 -8.625 22.25 -10.519531 22.25 -12.90625 Z M 22.25 -13.4375 "/></g></g></g><g fill="#000000" fill-opacity="1"><g transform="translate(257.329859, 309.299099)"><g><path d="M 2.140625 -4.421875 L 5.6875 -5.171875 L 5.6875 -22.125 L 1.765625 -22.890625 L 1.765625 -27.328125 L 12.546875 -27.328125 L 12.890625 -23.34375 C 13.523438 -24.757812 14.347656 -25.863281 15.359375 -26.65625 C 16.367188 -27.445312 17.539062 -27.84375 18.875 -27.84375 C 19.257812 -27.84375 19.664062 -27.8125 20.09375 -27.75 C 20.519531 -27.6875 20.878906 -27.613281 21.171875 -27.53125 L 20.390625 -20.8125 L 17.359375 -20.890625 C 16.273438 -20.890625 15.378906 -20.675781 14.671875 -20.25 C 13.960938 -19.832031 13.425781 -19.238281 13.0625 -18.46875 L 13.0625 -5.171875 L 16.59375 -4.421875 L 16.59375 0 L 2.140625 0 Z M 2.140625 -4.421875 "/></g></g></g><g fill="#000000" fill-opacity="1"><g transform="translate(278.62049, 309.299099)"><g><path d="M 14.671875 0.53125 C 10.734375 0.53125 7.582031 -0.726562 5.21875 -3.25 C 2.863281 -5.78125 1.6875 -8.992188 1.6875 -12.890625 L 1.6875 -13.890625 C 1.6875 -17.953125 2.800781 -21.296875 5.03125 -23.921875 C 7.269531 -26.546875 10.265625 -27.851562 14.015625 -27.84375 C 17.703125 -27.84375 20.566406 -26.726562 22.609375 -24.5 C 24.648438 -22.28125 25.671875 -19.273438 25.671875 -15.484375 L 25.671875 -11.46875 L 9.34375 -11.46875 L 9.296875 -11.3125 C 9.429688 -9.507812 10.03125 -8.023438 11.09375 -6.859375 C 12.164062 -5.703125 13.617188 -5.125 15.453125 -5.125 C 17.085938 -5.125 18.441406 -5.285156 19.515625 -5.609375 C 20.597656 -5.941406 21.78125 -6.460938 23.0625 -7.171875 L 25.0625 -2.625 C 23.925781 -1.726562 22.460938 -0.976562 20.671875 -0.375 C 18.878906 0.226562 16.878906 0.53125 14.671875 0.53125 Z M 14.015625 -22.15625 C 12.648438 -22.15625 11.570312 -21.628906 10.78125 -20.578125 C 9.988281 -19.535156 9.503906 -18.164062 9.328125 -16.46875 L 9.390625 -16.34375 L 18.4375 -16.34375 L 18.4375 -17 C 18.4375 -18.5625 18.070312 -19.8125 17.34375 -20.75 C 16.613281 -21.6875 15.503906 -22.15625 14.015625 -22.15625 Z M 14.015625 -22.15625 "/></g></g></g><g fill="#000000" fill-opacity="1"><g transform="translate(306.174644, 309.299099)"><g><path d="M 19.375 -3.328125 C 18.519531 -2.066406 17.503906 -1.109375 16.328125 -0.453125 C 15.160156 0.203125 13.828125 0.53125 12.328125 0.53125 C 8.960938 0.53125 6.347656 -0.695312 4.484375 -3.15625 C 2.617188 -5.613281 1.6875 -8.863281 1.6875 -12.90625 L 1.6875 -13.4375 C 1.6875 -17.75 2.617188 -21.226562 4.484375 -23.875 C 6.359375 -26.519531 8.988281 -27.84375 12.375 -27.84375 C 13.738281 -27.84375 14.96875 -27.539062 16.0625 -26.9375 C 17.15625 -26.34375 18.117188 -25.5 18.953125 -24.40625 L 18.953125 -34.203125 L 15 -34.96875 L 15 -39.40625 L 26.328125 -39.40625 L 26.328125 -5.171875 L 29.859375 -4.421875 L 29.859375 0 L 19.9375 0 Z M 9.0625 -12.90625 C 9.0625 -10.519531 9.460938 -8.640625 10.265625 -7.265625 C 11.066406 -5.890625 12.378906 -5.203125 14.203125 -5.203125 C 15.273438 -5.203125 16.207031 -5.421875 17 -5.859375 C 17.789062 -6.296875 18.441406 -6.925781 18.953125 -7.75 L 18.953125 -19.34375 C 18.441406 -20.21875 17.796875 -20.894531 17.015625 -21.375 C 16.234375 -21.863281 15.3125 -22.109375 14.25 -22.109375 C 12.445312 -22.109375 11.128906 -21.304688 10.296875 -19.703125 C 9.472656 -18.097656 9.0625 -16.007812 9.0625 -13.4375 Z M 9.0625 -12.90625 "/></g></g></g><g fill="#000000" fill-opacity="1"><g transform="translate(336.784745, 309.299099)"><g><path d="M 1.359375 -4.421875 L 4.921875 -5.171875 L 4.921875 -22.125 L 0.984375 -22.890625 L 0.984375 -27.328125 L 12.296875 -27.328125 L 12.296875 -5.171875 L 15.84375 -4.421875 L 15.84375 0 L 1.359375 0 Z M 12.296875 -33.875 L 4.921875 -33.875 L 4.921875 -39.40625 L 12.296875 -39.40625 Z M 12.296875 -33.875 "/></g></g></g><g fill="#000000" fill-opacity="1"><g transform="translate(353.453612, 309.299099)"><g><path d="M 0.8125 -34.96875 L 0.8125 -39.40625 L 12.09375 -39.40625 L 12.09375 -16.578125 L 13.734375 -16.578125 L 17.984375 -22.5625 L 15.59375 -22.890625 L 15.59375 -27.328125 L 29.03125 -27.328125 L 29.03125 -22.890625 L 25.796875 -22.15625 L 20.859375 -15.390625 L 27.765625 -5 L 30.5625 -4.421875 L 30.5625 0 L 17.9375 0 L 17.9375 -4.421875 L 19.453125 -4.671875 L 15.25 -11.4375 L 12.09375 -11.4375 L 12.09375 -5.171875 L 15.28125 -4.421875 L 15.28125 0 L 1.1875 0 L 1.1875 -4.421875 L 4.75 -5.171875 L 4.75 -34.203125 Z M 0.8125 -34.96875 "/></g></g></g><g fill="#000000" fill-opacity="1"><g transform="translate(384.493005, 309.299099)"><g><path d="M 14.421875 -5.125 C 15.734375 -5.125 16.785156 -5.503906 17.578125 -6.265625 C 18.367188 -7.035156 18.765625 -8.0625 18.765625 -9.34375 L 25.4375 -9.34375 L 25.515625 -9.1875 C 25.578125 -6.425781 24.539062 -4.113281 22.40625 -2.25 C 20.269531 -0.394531 17.609375 0.53125 14.421875 0.53125 C 10.347656 0.53125 7.207031 -0.753906 5 -3.328125 C 2.789062 -5.910156 1.6875 -9.222656 1.6875 -13.265625 L 1.6875 -14.015625 C 1.6875 -18.046875 2.816406 -21.359375 5.078125 -23.953125 C 7.347656 -26.546875 10.582031 -27.84375 14.78125 -27.84375 C 16.988281 -27.84375 18.96875 -27.515625 20.71875 -26.859375 C 22.46875 -26.203125 23.921875 -25.273438 25.078125 -24.078125 L 25.1875 -16.765625 L 19.203125 -16.765625 L 17.984375 -21.046875 C 17.617188 -21.359375 17.164062 -21.617188 16.625 -21.828125 C 16.082031 -22.046875 15.46875 -22.15625 14.78125 -22.15625 C 12.6875 -22.15625 11.207031 -21.394531 10.34375 -19.875 C 9.488281 -18.363281 9.0625 -16.410156 9.0625 -14.015625 L 9.0625 -13.265625 C 9.0625 -10.816406 9.457031 -8.847656 10.25 -7.359375 C 11.039062 -5.867188 12.429688 -5.125 14.421875 -5.125 Z M 14.421875 -5.125 "/></g></g></g><g fill="#000000" fill-opacity="1"><g transform="translate(411.744089, 309.299099)"><g><path d="M 14.671875 0.53125 C 10.734375 0.53125 7.582031 -0.726562 5.21875 -3.25 C 2.863281 -5.78125 1.6875 -8.992188 1.6875 -12.890625 L 1.6875 -13.890625 C 1.6875 -17.953125 2.800781 -21.296875 5.03125 -23.921875 C 7.269531 -26.546875 10.265625 -27.851562 14.015625 -27.84375 C 17.703125 -27.84375 20.566406 -26.726562 22.609375 -24.5 C 24.648438 -22.28125 25.671875 -19.273438 25.671875 -15.484375 L 25.671875 -11.46875 L 9.34375 -11.46875 L 9.296875 -11.3125 C 9.429688 -9.507812 10.03125 -8.023438 11.09375 -6.859375 C 12.164062 -5.703125 13.617188 -5.125 15.453125 -5.125 C 17.085938 -5.125 18.441406 -5.285156 19.515625 -5.609375 C 20.597656 -5.941406 21.78125 -6.460938 23.0625 -7.171875 L 25.0625 -2.625 C 23.925781 -1.726562 22.460938 -0.976562 20.671875 -0.375 C 18.878906 0.226562 16.878906 0.53125 14.671875 0.53125 Z M 14.015625 -22.15625 C 12.648438 -22.15625 11.570312 -21.628906 10.78125 -20.578125 C 9.988281 -19.535156 9.503906 -18.164062 9.328125 -16.46875 L 9.390625 -16.34375 L 18.4375 -16.34375 L 18.4375 -17 C 18.4375 -18.5625 18.070312 -19.8125 17.34375 -20.75 C 16.613281 -21.6875 15.503906 -22.15625 14.015625 -22.15625 Z M 14.015625 -22.15625 "/></g></g></g><g fill="#000000" fill-opacity="1"><g transform="translate(439.298243, 309.299099)"><g/></g></g><g fill="#000000" fill-opacity="1"><g transform="translate(451.976661, 309.299099)"><g><path d="M 1.84375 0 L 1.84375 -4.828125 L 13.734375 -17.578125 C 15.453125 -19.546875 16.671875 -21.207031 17.390625 -22.5625 C 18.117188 -23.925781 18.484375 -25.1875 18.484375 -26.34375 C 18.484375 -27.894531 18.066406 -29.160156 17.234375 -30.140625 C 16.398438 -31.128906 15.21875 -31.625 13.6875 -31.625 C 11.988281 -31.625 10.695312 -31.046875 9.8125 -29.890625 C 8.925781 -28.742188 8.484375 -27.207031 8.484375 -25.28125 L 1.3125 -25.28125 L 1.265625 -25.4375 C 1.179688 -28.757812 2.269531 -31.566406 4.53125 -33.859375 C 6.800781 -36.160156 9.851562 -37.3125 13.6875 -37.3125 C 17.476562 -37.3125 20.457031 -36.328125 22.625 -34.359375 C 24.800781 -32.390625 25.890625 -29.757812 25.890625 -26.46875 C 25.890625 -24.25 25.28125 -22.195312 24.0625 -20.3125 C 22.84375 -18.425781 20.816406 -15.96875 17.984375 -12.9375 L 11.4375 -5.78125 L 11.5 -5.65625 L 21.046875 -5.65625 L 21.34375 -9.296875 L 26.953125 -9.296875 L 26.953125 0 Z M 1.84375 0 "/></g></g></g><g fill="#000000" fill-opacity="1"><g transform="translate(480.566294, 309.299099)"><g><path d="M 27.328125 -14.328125 C 27.328125 -9.453125 26.210938 -5.753906 23.984375 -3.234375 C 21.753906 -0.722656 18.734375 0.53125 14.921875 0.53125 C 11.085938 0.53125 8.050781 -0.722656 5.8125 -3.234375 C 3.570312 -5.753906 2.453125 -9.453125 2.453125 -14.328125 L 2.453125 -22.4375 C 2.453125 -27.28125 3.566406 -30.96875 5.796875 -33.5 C 8.023438 -36.039062 11.050781 -37.3125 14.875 -37.3125 C 18.6875 -37.3125 21.710938 -36.039062 23.953125 -33.5 C 26.203125 -30.96875 27.328125 -27.28125 27.328125 -22.4375 Z M 19.984375 -23.1875 C 19.984375 -26.101562 19.546875 -28.238281 18.671875 -29.59375 C 17.796875 -30.945312 16.53125 -31.625 14.875 -31.625 C 13.207031 -31.625 11.941406 -30.945312 11.078125 -29.59375 C 10.222656 -28.25 9.796875 -26.113281 9.796875 -23.1875 L 9.796875 -13.609375 C 9.796875 -10.648438 10.226562 -8.492188 11.09375 -7.140625 C 11.96875 -5.796875 13.242188 -5.125 14.921875 -5.125 C 16.578125 -5.125 17.832031 -5.796875 18.6875 -7.140625 C 19.550781 -8.492188 19.984375 -10.648438 19.984375 -13.609375 Z M 19.984375 -23.1875 "/></g></g></g><g fill="#000000" fill-opacity="1"><g transform="translate(510.115673, 309.299099)"><g><path d="M 1.84375 0 L 1.84375 -4.828125 L 13.734375 -17.578125 C 15.453125 -19.546875 16.671875 -21.207031 17.390625 -22.5625 C 18.117188 -23.925781 18.484375 -25.1875 18.484375 -26.34375 C 18.484375 -27.894531 18.066406 -29.160156 17.234375 -30.140625 C 16.398438 -31.128906 15.21875 -31.625 13.6875 -31.625 C 11.988281 -31.625 10.695312 -31.046875 9.8125 -29.890625 C 8.925781 -28.742188 8.484375 -27.207031 8.484375 -25.28125 L 1.3125 -25.28125 L 1.265625 -25.4375 C 1.179688 -28.757812 2.269531 -31.566406 4.53125 -33.859375 C 6.800781 -36.160156 9.851562 -37.3125 13.6875 -37.3125 C 17.476562 -37.3125 20.457031 -36.328125 22.625 -34.359375 C 24.800781 -32.390625 25.890625 -29.757812 25.890625 -26.46875 C 25.890625 -24.25 25.28125 -22.195312 24.0625 -20.3125 C 22.84375 -18.425781 20.816406 -15.96875 17.984375 -12.9375 L 11.4375 -5.78125 L 11.5 -5.65625 L 21.046875 -5.65625 L 21.34375 -9.296875 L 26.953125 -9.296875 L 26.953125 0 Z M 1.84375 0 "/></g></g></g><g fill="#000000" fill-opacity="1"><g transform="translate(538.705306, 309.299099)"><g><path d="M 21.0625 -28.390625 L 20.40625 -30.875 L 10.515625 -30.875 L 9.46875 -22.375 C 10.164062 -22.882812 10.992188 -23.300781 11.953125 -23.625 C 12.910156 -23.957031 13.96875 -24.132812 15.125 -24.15625 C 18.664062 -24.195312 21.40625 -23.125 23.34375 -20.9375 C 25.28125 -18.75 26.25 -15.703125 26.25 -11.796875 C 26.25 -8.253906 25.179688 -5.3125 23.046875 -2.96875 C 20.921875 -0.632812 17.851562 0.53125 13.84375 0.53125 C 10.476562 0.53125 7.585938 -0.390625 5.171875 -2.234375 C 2.765625 -4.078125 1.601562 -6.617188 1.6875 -9.859375 L 1.75 -9.984375 L 8.8125 -10.328125 C 8.8125 -8.691406 9.273438 -7.414062 10.203125 -6.5 C 11.128906 -5.582031 12.34375 -5.125 13.84375 -5.125 C 15.5625 -5.125 16.832031 -5.738281 17.65625 -6.96875 C 18.476562 -8.195312 18.890625 -9.789062 18.890625 -11.75 C 18.890625 -13.863281 18.453125 -15.5625 17.578125 -16.84375 C 16.703125 -18.125 15.398438 -18.765625 13.671875 -18.765625 C 12.265625 -18.765625 11.1875 -18.503906 10.4375 -17.984375 C 9.695312 -17.460938 9.164062 -16.753906 8.84375 -15.859375 L 2.328125 -16.296875 L 4.453125 -36.78125 L 25.609375 -36.78125 L 25.609375 -28.390625 Z M 21.0625 -28.390625 "/></g></g></g></g></g></svg>