<svg xmlns="http://www.w3.org/2000/svg" viewBox="-10 -10 220 220">
  <rect x="-10" y="-10" width="220" height="220" fill="#101432"/>
  <g fill="#f76800">
    <circle cx="92.5" cy="70" r="4.5"/>
    <circle cx="92.5" cy="85" r="4.5"/><circle cx="77.5" cy="85" r="4.5"/>
    <circle cx="92.5" cy="100" r="4.5"/><circle cx="77.5" cy="100" r="4.5"/><circle cx="62.5" cy="100" r="4.5"/>
    <circle cx="92.5" cy="115" r="4.5"/><circle cx="77.5" cy="115" r="4.5"/><circle cx="62.5" cy="115" r="4.5"/><circle cx="47.5" cy="115" r="4.5"/>
    <circle cx="92.5" cy="130" r="4.5"/><circle cx="77.5" cy="130" r="4.5"/><circle cx="62.5" cy="130" r="4.5"/><circle cx="47.5" cy="130" r="4.5"/><circle cx="32.5" cy="130" r="4.5"/>
    <circle cx="92.5" cy="145" r="4.5"/><circle cx="77.5" cy="145" r="4.5"/><circle cx="62.5" cy="145" r="4.5"/><circle cx="47.5" cy="145" r="4.5"/><circle cx="32.5" cy="145" r="4.5"/><circle cx="17.5" cy="145" r="4.5"/>
  </g>
  <g fill="#de1743">
    <circle cx="107.5" cy="70" r="4.5"/>
    <circle cx="107.5" cy="85" r="4.5"/><circle cx="122.5" cy="85" r="4.5"/>
    <circle cx="107.5" cy="100" r="4.5"/><circle cx="122.5" cy="100" r="4.5"/><circle cx="137.5" cy="100" r="4.5"/>
    <circle cx="107.5" cy="115" r="4.5"/><circle cx="122.5" cy="115" r="4.5"/><circle cx="137.5" cy="115" r="4.5"/><circle cx="152.5" cy="115" r="4.5"/>
    <circle cx="107.5" cy="130" r="4.5"/><circle cx="122.5" cy="130" r="4.5"/><circle cx="137.5" cy="130" r="4.5"/><circle cx="152.5" cy="130" r="4.5"/><circle cx="167.5" cy="130" r="4.5"/>
    <circle cx="107.5" cy="145" r="4.5"/><circle cx="122.5" cy="145" r="4.5"/><circle cx="137.5" cy="145" r="4.5"/><circle cx="152.5" cy="145" r="4.5"/><circle cx="167.5" cy="145" r="4.5"/><circle cx="182.5" cy="145" r="4.5"/>
  </g>
  <g fill="rgba(255,255,255,0.1)">
    <circle cx="92.5" cy="160" r="4.5"/><circle cx="77.5" cy="160" r="4.5"/><circle cx="62.5" cy="160" r="4.5"/><circle cx="47.5" cy="160" r="4.5"/><circle cx="32.5" cy="160" r="4.5"/><circle cx="17.5" cy="160" r="4.5"/>
    <circle cx="107.5" cy="160" r="4.5"/><circle cx="122.5" cy="160" r="4.5"/><circle cx="137.5" cy="160" r="4.5"/><circle cx="152.5" cy="160" r="4.5"/><circle cx="167.5" cy="160" r="4.5"/><circle cx="182.5" cy="160" r="4.5"/>
  </g>
</svg>
