<svg xmlns="http://www.w3.org/2000/svg" viewBox="-10 -10 220 220">
  <rect x="-10" y="-10" width="220" height="220" fill="#101432"/>
  <g fill="#5e66d5">
    <circle cx="25" cy="130" r="4.5"/><circle cx="40" cy="130" r="4.5"/>
    <circle cx="55" cy="145" r="4.5"/><circle cx="70" cy="145" r="4.5"/><circle cx="85" cy="145" r="4.5"/>
    <circle cx="115" cy="145" r="4.5"/><circle cx="130" cy="145" r="4.5"/><circle cx="145" cy="145" r="4.5"/>
    <circle cx="160" cy="130" r="4.5"/><circle cx="175" cy="130" r="4.5"/>
  </g>
  <g fill="rgba(255,255,255,0.25)">
    <circle cx="40" cy="70" r="4.5"/><circle cx="40" cy="85" r="4.5"/><circle cx="40" cy="100" r="4.5"/><circle cx="40" cy="115" r="4.5"/>
    <circle cx="55" cy="85" r="4.5"/><circle cx="55" cy="100" r="4.5"/><circle cx="55" cy="115" r="4.5"/><circle cx="55" cy="130" r="4.5"/>
    <circle cx="70" cy="100" r="4.5"/><circle cx="70" cy="115" r="4.5"/><circle cx="70" cy="130" r="4.5"/>
    <circle cx="85" cy="115" r="4.5"/><circle cx="85" cy="130" r="4.5"/>
    <circle cx="115" cy="115" r="4.5"/><circle cx="115" cy="130" r="4.5"/>
    <circle cx="130" cy="100" r="4.5"/><circle cx="130" cy="115" r="4.5"/><circle cx="130" cy="130" r="4.5"/>
    <circle cx="145" cy="85" r="4.5"/><circle cx="145" cy="100" r="4.5"/><circle cx="145" cy="115" r="4.5"/><circle cx="145" cy="130" r="4.5"/>
    <circle cx="160" cy="70" r="4.5"/><circle cx="160" cy="85" r="4.5"/><circle cx="160" cy="100" r="4.5"/><circle cx="160" cy="115" r="4.5"/>
  </g>
  <circle cx="100" cy="115" r="4.5" fill="rgba(255,255,255,0.4)"/>
  <circle cx="100" cy="130" r="4.5" fill="rgba(255,255,255,0.4)"/>
  <g fill="#ffcf02">
    <circle cx="100" cy="145" r="4.5"/>
    <circle cx="100" cy="160" r="4.5"/>
  </g>
</svg>
