<svg xmlns="http://www.w3.org/2000/svg" viewBox="-10 -10 220 220">
  <rect x="-10" y="-10" width="220" height="220" fill="#101432"/>
  <g fill="#4d5469">
    <circle cx="80" cy="40" r="4.5"/>
    <circle cx="60" cy="60" r="4.5"/><circle cx="80" cy="60" r="4.5"/>
    <circle cx="40" cy="80" r="4.5"/><circle cx="60" cy="80" r="4.5"/><circle cx="80" cy="80" r="4.5"/>
    <circle cx="40" cy="100" r="4.5"/><circle cx="60" cy="100" r="4.5"/><circle cx="80" cy="100" r="4.5"/>
    <circle cx="40" cy="120" r="4.5"/><circle cx="60" cy="120" r="4.5"/><circle cx="80" cy="120" r="4.5"/><circle cx="100" cy="120" r="4.5"/><circle cx="120" cy="120" r="4.5"/><circle cx="140" cy="120" r="4.5"/><circle cx="160" cy="120" r="4.5"/>
    <circle cx="60" cy="140" r="4.5"/><circle cx="80" cy="140" r="4.5"/><circle cx="100" cy="140" r="4.5"/><circle cx="120" cy="140" r="4.5"/><circle cx="140" cy="140" r="4.5"/>
    <circle cx="80" cy="160" r="4.5"/><circle cx="100" cy="160" r="4.5"/><circle cx="120" cy="160" r="4.5"/>
  </g>
  <g fill="#efb704">
    <circle cx="100" cy="80" r="4.5"/><circle cx="120" cy="80" r="4.5"/>
    <circle cx="100" cy="100" r="4.5"/><circle cx="120" cy="100" r="4.5"/><circle cx="140" cy="100" r="4.5"/><circle cx="160" cy="100" r="4.5"/>
  </g>
  <g fill="#ef6925">
    <circle cx="100" cy="60" r="4.5"/><circle cx="120" cy="60" r="4.5"/>
    <circle cx="140" cy="80" r="4.5"/>
  </g>
  <g fill="#de1743">
    <circle cx="100" cy="40" r="4.5"/><circle cx="120" cy="40" r="4.5"/>
    <circle cx="140" cy="60" r="4.5"/>
    <circle cx="160" cy="80" r="4.5"/>
  </g>
</svg>
