<svg xmlns="http://www.w3.org/2000/svg" xmlns:xlink="http://www.w3.org/1999/xlink" width="1080" zoomAndPan="magnify" viewBox="0 0 810 1012.49997" height="1350" preserveAspectRatio="xMidYMid meet" version="1.0"><defs><clipPath id="a358757245"><path d="M 0.199219 0 L 809.800781 0 L 809.800781 1012 L 0.199219 1012 Z M 0.199219 0 " clip-rule="nonzero"/></clipPath><clipPath id="c089c27464"><path d="M 149.152344 250.152344 L 658 250.152344 L 658 759 L 149.152344 759 Z M 149.152344 250.152344 " clip-rule="nonzero"/></clipPath></defs><g clip-path="url(#a358757245)"><path fill="#ffffff" d="M 0.199219 0 L 809.800781 0 L 809.800781 1012 L 0.199219 1012 Z M 0.199219 0 " fill-opacity="1" fill-rule="nonzero"/><path fill="#351040" d="M 0.199219 0 L 809.800781 0 L 809.800781 1012 L 0.199219 1012 Z M 0.199219 0 " fill-opacity="1" fill-rule="nonzero"/></g><g clip-path="url(#c089c27464)"><path fill="#ff1a4a" d="M 478.042969 624.324219 L 603.371094 749.613281 C 615.78125 762.015625 635.933594 762.011719 648.339844 749.605469 C 660.746094 737.191406 660.742188 717.039062 648.332031 704.632812 L 523.089844 579.433594 C 548.285156 545.164062 563.175781 502.84375 563.175781 457.070312 C 563.175781 342.867188 470.460938 250.152344 356.261719 250.152344 C 242.058594 250.152344 149.34375 342.867188 149.34375 457.070312 C 149.34375 571.273438 242.058594 663.988281 356.261719 663.988281 C 401.769531 663.988281 443.867188 649.265625 478.042969 624.324219 Z M 356.261719 313.75 C 435.359375 313.75 499.585938 377.96875 499.585938 457.070312 C 499.585938 536.171875 435.359375 600.394531 356.261719 600.394531 C 277.160156 600.394531 212.941406 536.171875 212.941406 457.070312 C 212.941406 377.96875 277.160156 313.75 356.261719 313.75 Z M 356.261719 313.75 " fill-opacity="1" fill-rule="evenodd"/></g></svg>