<svg xmlns="http://www.w3.org/2000/svg" xmlns:xlink="http://www.w3.org/1999/xlink" width="1080" zoomAndPan="magnify" viewBox="0 0 810 1012.49997" height="1350" preserveAspectRatio="xMidYMid meet" version="1.0"><defs><clipPath id="cf314bea4a"><path d="M 0.199219 0 L 809.800781 0 L 809.800781 1012 L 0.199219 1012 Z M 0.199219 0 " clip-rule="nonzero"/></clipPath><clipPath id="3f97944943"><path d="M 187 287.871094 L 621 287.871094 L 621 722 L 187 722 Z M 187 287.871094 " clip-rule="nonzero"/></clipPath></defs><g clip-path="url(#cf314bea4a)"><path fill="#ffffff" d="M 0.199219 0 L 809.800781 0 L 809.800781 1012 L 0.199219 1012 Z M 0.199219 0 " fill-opacity="1" fill-rule="nonzero"/><path fill="#351040" d="M 0.199219 0 L 809.800781 0 L 809.800781 1012 L 0.199219 1012 Z M 0.199219 0 " fill-opacity="1" fill-rule="nonzero"/></g><g clip-path="url(#3f97944943)"><path fill="#ff1a4a" d="M 467.269531 606.875 L 574.121094 713.691406 C 584.699219 724.265625 601.878906 724.261719 612.457031 713.683594 C 623.035156 703.101562 623.03125 685.921875 612.453125 675.339844 L 505.671875 568.601562 C 527.152344 539.386719 539.851562 503.304688 539.851562 464.277344 C 539.851562 366.914062 460.804688 287.871094 363.441406 287.871094 C 266.078125 287.871094 187.03125 366.914062 187.03125 464.277344 C 187.03125 561.644531 266.078125 640.6875 363.441406 640.6875 C 402.242188 640.6875 438.132812 628.136719 467.269531 606.875 Z M 363.441406 342.089844 C 430.878906 342.089844 485.632812 396.839844 485.632812 464.277344 C 485.632812 531.71875 430.878906 586.472656 363.441406 586.472656 C 296.003906 586.472656 241.253906 531.71875 241.253906 464.277344 C 241.253906 396.839844 296.003906 342.089844 363.441406 342.089844 Z M 363.441406 342.089844 " fill-opacity="1" fill-rule="evenodd"/></g></svg>