<svg xmlns="http://www.w3.org/2000/svg" xmlns:xlink="http://www.w3.org/1999/xlink" width="1080" zoomAndPan="magnify" viewBox="0 0 810 1012.49997" height="1350" preserveAspectRatio="xMidYMid meet" version="1.0"><defs><clipPath id="af5b37811b"><path d="M 0.199219 0 L 809.800781 0 L 809.800781 1012 L 0.199219 1012 Z M 0.199219 0 " clip-rule="nonzero"/></clipPath><radialGradient gradientTransform="matrix(1, 0, 0, 1, 0.199913, 0)" gradientUnits="userSpaceOnUse" r="647.996483" cx="404.800087" id="196e0ab912" cy="506.000108" fx="404.800087" fy="506.000108"><stop stop-opacity="1" stop-color="rgb(43.086243%, 77.146912%, 24.662781%)" offset="0"/><stop stop-opacity="1" stop-color="rgb(42.982483%, 76.940918%, 24.572754%)" offset="0.00390625"/><stop stop-opacity="1" stop-color="rgb(42.878723%, 76.73645%, 24.482727%)" offset="0.0078125"/><stop stop-opacity="1" stop-color="rgb(42.774963%, 76.530457%, 24.3927%)" offset="0.0117188"/><stop stop-opacity="1" stop-color="rgb(42.669678%, 76.325989%, 24.301147%)" offset="0.015625"/><stop stop-opacity="1" stop-color="rgb(42.565918%, 76.119995%, 24.211121%)" offset="0.0195312"/><stop stop-opacity="1" stop-color="rgb(42.462158%, 75.915527%, 24.121094%)" offset="0.0234375"/><stop stop-opacity="1" stop-color="rgb(42.358398%, 75.709534%, 24.031067%)" offset="0.0273438"/><stop stop-opacity="1" stop-color="rgb(42.253113%, 75.505066%, 23.94104%)" offset="0.03125"/><stop stop-opacity="1" stop-color="rgb(42.149353%, 75.299072%, 23.849487%)" offset="0.0351562"/><stop stop-opacity="1" stop-color="rgb(42.045593%, 75.094604%, 23.75946%)" offset="0.0390625"/><stop stop-opacity="1" stop-color="rgb(41.940308%, 74.888611%, 23.669434%)" offset="0.0429688"/><stop stop-opacity="1" stop-color="rgb(41.836548%, 74.684143%, 23.579407%)" offset="0.046875"/><stop stop-opacity="1" stop-color="rgb(41.732788%, 74.478149%, 23.487854%)" offset="0.0507812"/><stop stop-opacity="1" stop-color="rgb(41.629028%, 74.273682%, 23.397827%)" offset="0.0546875"/><stop stop-opacity="1" stop-color="rgb(41.523743%, 74.067688%, 23.3078%)" offset="0.0585938"/><stop stop-opacity="1" stop-color="rgb(41.419983%, 73.86322%, 23.217773%)" offset="0.0625"/><stop stop-opacity="1" stop-color="rgb(41.316223%, 73.657227%, 23.126221%)" offset="0.0664062"/><stop stop-opacity="1" stop-color="rgb(41.212463%, 73.452759%, 23.036194%)" offset="0.0703125"/><stop stop-opacity="1" stop-color="rgb(41.107178%, 73.246765%, 22.946167%)" offset="0.0742188"/><stop stop-opacity="1" stop-color="rgb(41.003418%, 73.042297%, 22.85614%)" offset="0.078125"/><stop stop-opacity="1" stop-color="rgb(40.899658%, 72.836304%, 22.764587%)" offset="0.0820312"/><stop stop-opacity="1" stop-color="rgb(40.794373%, 72.631836%, 22.674561%)" offset="0.0859375"/><stop stop-opacity="1" stop-color="rgb(40.690613%, 72.425842%, 22.584534%)" offset="0.0898438"/><stop stop-opacity="1" stop-color="rgb(40.586853%, 72.221375%, 22.494507%)" offset="0.09375"/><stop stop-opacity="1" stop-color="rgb(40.483093%, 72.015381%, 22.402954%)" offset="0.0976562"/><stop stop-opacity="1" stop-color="rgb(40.377808%, 71.809387%, 22.312927%)" offset="0.101562"/><stop stop-opacity="1" stop-color="rgb(40.274048%, 71.604919%, 22.2229%)" offset="0.105469"/><stop stop-opacity="1" stop-color="rgb(40.170288%, 71.398926%, 22.132874%)" offset="0.109375"/><stop stop-opacity="1" stop-color="rgb(40.065002%, 71.194458%, 22.042847%)" offset="0.113281"/><stop stop-opacity="1" stop-color="rgb(39.961243%, 70.988464%, 21.951294%)" offset="0.117188"/><stop stop-opacity="1" stop-color="rgb(39.857483%, 70.783997%, 21.861267%)" offset="0.121094"/><stop stop-opacity="1" stop-color="rgb(39.753723%, 70.578003%, 21.77124%)" offset="0.125"/><stop stop-opacity="1" stop-color="rgb(39.648438%, 70.373535%, 21.681213%)" offset="0.128906"/><stop stop-opacity="1" stop-color="rgb(39.544678%, 70.167542%, 21.589661%)" offset="0.132812"/><stop stop-opacity="1" stop-color="rgb(39.440918%, 69.963074%, 21.499634%)" offset="0.136719"/><stop stop-opacity="1" stop-color="rgb(39.337158%, 69.75708%, 21.409607%)" offset="0.140625"/><stop stop-opacity="1" stop-color="rgb(39.231873%, 69.552612%, 21.31958%)" offset="0.144531"/><stop stop-opacity="1" stop-color="rgb(39.128113%, 69.346619%, 21.228027%)" offset="0.148438"/><stop stop-opacity="1" stop-color="rgb(39.024353%, 69.142151%, 21.138%)" offset="0.152344"/><stop stop-opacity="1" stop-color="rgb(38.919067%, 68.936157%, 21.047974%)" offset="0.15625"/><stop stop-opacity="1" stop-color="rgb(38.815308%, 68.731689%, 20.957947%)" offset="0.160156"/><stop stop-opacity="1" stop-color="rgb(38.711548%, 68.525696%, 20.866394%)" offset="0.164062"/><stop stop-opacity="1" stop-color="rgb(38.607788%, 68.321228%, 20.776367%)" offset="0.167969"/><stop stop-opacity="1" stop-color="rgb(38.502502%, 68.115234%, 20.68634%)" offset="0.171875"/><stop stop-opacity="1" stop-color="rgb(38.398743%, 67.910767%, 20.596313%)" offset="0.175781"/><stop stop-opacity="1" stop-color="rgb(38.294983%, 67.704773%, 20.504761%)" offset="0.179688"/><stop stop-opacity="1" stop-color="rgb(38.191223%, 67.500305%, 20.414734%)" offset="0.183594"/><stop stop-opacity="1" stop-color="rgb(38.085938%, 67.294312%, 20.324707%)" offset="0.1875"/><stop stop-opacity="1" stop-color="rgb(37.982178%, 67.089844%, 20.23468%)" offset="0.191406"/><stop stop-opacity="1" stop-color="rgb(37.878418%, 66.88385%, 20.144653%)" offset="0.195312"/><stop stop-opacity="1" stop-color="rgb(37.773132%, 66.679382%, 20.053101%)" offset="0.199219"/><stop stop-opacity="1" stop-color="rgb(37.669373%, 66.473389%, 19.963074%)" offset="0.203125"/><stop stop-opacity="1" stop-color="rgb(37.565613%, 66.268921%, 19.873047%)" offset="0.207031"/><stop stop-opacity="1" stop-color="rgb(37.461853%, 66.062927%, 19.78302%)" offset="0.210938"/><stop stop-opacity="1" stop-color="rgb(37.356567%, 65.858459%, 19.691467%)" offset="0.214844"/><stop stop-opacity="1" stop-color="rgb(37.252808%, 65.652466%, 19.60144%)" offset="0.21875"/><stop stop-opacity="1" stop-color="rgb(37.149048%, 65.447998%, 19.511414%)" offset="0.222656"/><stop stop-opacity="1" stop-color="rgb(37.043762%, 65.242004%, 19.421387%)" offset="0.226562"/><stop stop-opacity="1" stop-color="rgb(36.940002%, 65.037537%, 19.329834%)" offset="0.230469"/><stop stop-opacity="1" stop-color="rgb(36.836243%, 64.831543%, 19.239807%)" offset="0.234375"/><stop stop-opacity="1" stop-color="rgb(36.732483%, 64.627075%, 19.14978%)" offset="0.238281"/><stop stop-opacity="1" stop-color="rgb(36.627197%, 64.421082%, 19.059753%)" offset="0.242188"/><stop stop-opacity="1" stop-color="rgb(36.523438%, 64.216614%, 18.968201%)" offset="0.246094"/><stop stop-opacity="1" stop-color="rgb(36.419678%, 64.01062%, 18.878174%)" offset="0.25"/><stop stop-opacity="1" stop-color="rgb(36.315918%, 63.806152%, 18.788147%)" offset="0.253906"/><stop stop-opacity="1" stop-color="rgb(36.210632%, 63.600159%, 18.69812%)" offset="0.257812"/><stop stop-opacity="1" stop-color="rgb(36.106873%, 63.395691%, 18.606567%)" offset="0.261719"/><stop stop-opacity="1" stop-color="rgb(36.003113%, 63.189697%, 18.516541%)" offset="0.265625"/><stop stop-opacity="1" stop-color="rgb(35.897827%, 62.985229%, 18.426514%)" offset="0.269531"/><stop stop-opacity="1" stop-color="rgb(35.794067%, 62.779236%, 18.336487%)" offset="0.273438"/><stop stop-opacity="1" stop-color="rgb(35.690308%, 62.574768%, 18.24646%)" offset="0.277344"/><stop stop-opacity="1" stop-color="rgb(35.586548%, 62.368774%, 18.154907%)" offset="0.28125"/><stop stop-opacity="1" stop-color="rgb(35.481262%, 62.164307%, 18.06488%)" offset="0.285156"/><stop stop-opacity="1" stop-color="rgb(35.377502%, 61.958313%, 17.974854%)" offset="0.289062"/><stop stop-opacity="1" stop-color="rgb(35.273743%, 61.753845%, 17.884827%)" offset="0.292969"/><stop stop-opacity="1" stop-color="rgb(35.169983%, 61.547852%, 17.793274%)" offset="0.296875"/><stop stop-opacity="1" stop-color="rgb(35.064697%, 61.343384%, 17.703247%)" offset="0.300781"/><stop stop-opacity="1" stop-color="rgb(34.960938%, 61.13739%, 17.61322%)" offset="0.304688"/><stop stop-opacity="1" stop-color="rgb(34.857178%, 60.932922%, 17.523193%)" offset="0.308594"/><stop stop-opacity="1" stop-color="rgb(34.751892%, 60.726929%, 17.431641%)" offset="0.3125"/><stop stop-opacity="1" stop-color="rgb(34.648132%, 60.522461%, 17.341614%)" offset="0.316406"/><stop stop-opacity="1" stop-color="rgb(34.544373%, 60.316467%, 17.251587%)" offset="0.320312"/><stop stop-opacity="1" stop-color="rgb(34.440613%, 60.112%, 17.16156%)" offset="0.324219"/><stop stop-opacity="1" stop-color="rgb(34.335327%, 59.906006%, 17.070007%)" offset="0.328125"/><stop stop-opacity="1" stop-color="rgb(34.231567%, 59.701538%, 16.97998%)" offset="0.332031"/><stop stop-opacity="1" stop-color="rgb(34.127808%, 59.495544%, 16.889954%)" offset="0.335938"/><stop stop-opacity="1" stop-color="rgb(34.024048%, 59.291077%, 16.799927%)" offset="0.339844"/><stop stop-opacity="1" stop-color="rgb(33.918762%, 59.085083%, 16.708374%)" offset="0.34375"/><stop stop-opacity="1" stop-color="rgb(33.815002%, 58.880615%, 16.618347%)" offset="0.347656"/><stop stop-opacity="1" stop-color="rgb(33.711243%, 58.674622%, 16.52832%)" offset="0.351562"/><stop stop-opacity="1" stop-color="rgb(33.605957%, 58.470154%, 16.438293%)" offset="0.355469"/><stop stop-opacity="1" stop-color="rgb(33.502197%, 58.26416%, 16.348267%)" offset="0.359375"/><stop stop-opacity="1" stop-color="rgb(33.398438%, 58.059692%, 16.256714%)" offset="0.363281"/><stop stop-opacity="1" stop-color="rgb(33.294678%, 57.853699%, 16.166687%)" offset="0.367188"/><stop stop-opacity="1" stop-color="rgb(33.189392%, 57.649231%, 16.07666%)" offset="0.371094"/><stop stop-opacity="1" stop-color="rgb(33.085632%, 57.443237%, 15.986633%)" offset="0.375"/><stop stop-opacity="1" stop-color="rgb(32.981873%, 57.23877%, 15.895081%)" offset="0.378906"/><stop stop-opacity="1" stop-color="rgb(32.876587%, 57.032776%, 15.805054%)" offset="0.382812"/><stop stop-opacity="1" stop-color="rgb(32.772827%, 56.828308%, 15.715027%)" offset="0.386719"/><stop stop-opacity="1" stop-color="rgb(32.669067%, 56.622314%, 15.625%)" offset="0.390625"/><stop stop-opacity="1" stop-color="rgb(32.565308%, 56.417847%, 15.533447%)" offset="0.394531"/><stop stop-opacity="1" stop-color="rgb(32.460022%, 56.211853%, 15.44342%)" offset="0.398438"/><stop stop-opacity="1" stop-color="rgb(32.356262%, 56.007385%, 15.353394%)" offset="0.402344"/><stop stop-opacity="1" stop-color="rgb(32.252502%, 55.801392%, 15.263367%)" offset="0.40625"/><stop stop-opacity="1" stop-color="rgb(32.148743%, 55.596924%, 15.171814%)" offset="0.410156"/><stop stop-opacity="1" stop-color="rgb(32.043457%, 55.39093%, 15.081787%)" offset="0.414062"/><stop stop-opacity="1" stop-color="rgb(31.939697%, 55.186462%, 14.99176%)" offset="0.417969"/><stop stop-opacity="1" stop-color="rgb(31.835938%, 54.980469%, 14.901733%)" offset="0.421875"/><stop stop-opacity="1" stop-color="rgb(31.730652%, 54.776001%, 14.810181%)" offset="0.425781"/><stop stop-opacity="1" stop-color="rgb(31.626892%, 54.570007%, 14.720154%)" offset="0.429688"/><stop stop-opacity="1" stop-color="rgb(31.523132%, 54.36554%, 14.630127%)" offset="0.433594"/><stop stop-opacity="1" stop-color="rgb(31.419373%, 54.159546%, 14.5401%)" offset="0.4375"/><stop stop-opacity="1" stop-color="rgb(31.314087%, 53.955078%, 14.450073%)" offset="0.441406"/><stop stop-opacity="1" stop-color="rgb(31.210327%, 53.749084%, 14.358521%)" offset="0.445312"/><stop stop-opacity="1" stop-color="rgb(31.106567%, 53.544617%, 14.268494%)" offset="0.449219"/><stop stop-opacity="1" stop-color="rgb(31.002808%, 53.338623%, 14.178467%)" offset="0.453125"/><stop stop-opacity="1" stop-color="rgb(30.897522%, 53.134155%, 14.08844%)" offset="0.457031"/><stop stop-opacity="1" stop-color="rgb(30.793762%, 52.928162%, 13.996887%)" offset="0.460938"/><stop stop-opacity="1" stop-color="rgb(30.690002%, 52.723694%, 13.90686%)" offset="0.464844"/><stop stop-opacity="1" stop-color="rgb(30.584717%, 52.5177%, 13.816833%)" offset="0.46875"/><stop stop-opacity="1" stop-color="rgb(30.480957%, 52.313232%, 13.726807%)" offset="0.472656"/><stop stop-opacity="1" stop-color="rgb(30.377197%, 52.107239%, 13.635254%)" offset="0.476562"/><stop stop-opacity="1" stop-color="rgb(30.273438%, 51.902771%, 13.545227%)" offset="0.480469"/><stop stop-opacity="1" stop-color="rgb(30.168152%, 51.696777%, 13.4552%)" offset="0.484375"/><stop stop-opacity="1" stop-color="rgb(30.064392%, 51.49231%, 13.365173%)" offset="0.488281"/><stop stop-opacity="1" stop-color="rgb(29.960632%, 51.286316%, 13.273621%)" offset="0.492188"/><stop stop-opacity="1" stop-color="rgb(29.856873%, 51.081848%, 13.183594%)" offset="0.496094"/><stop stop-opacity="1" stop-color="rgb(29.751587%, 50.875854%, 13.093567%)" offset="0.5"/><stop stop-opacity="1" stop-color="rgb(29.647827%, 50.671387%, 13.00354%)" offset="0.503906"/><stop stop-opacity="1" stop-color="rgb(29.544067%, 50.465393%, 12.911987%)" offset="0.507812"/><stop stop-opacity="1" stop-color="rgb(29.438782%, 50.260925%, 12.82196%)" offset="0.511719"/><stop stop-opacity="1" stop-color="rgb(29.335022%, 50.054932%, 12.731934%)" offset="0.515625"/><stop stop-opacity="1" stop-color="rgb(29.231262%, 49.850464%, 12.641907%)" offset="0.519531"/><stop stop-opacity="1" stop-color="rgb(29.127502%, 49.64447%, 12.55188%)" offset="0.523438"/><stop stop-opacity="1" stop-color="rgb(29.022217%, 49.440002%, 12.460327%)" offset="0.527344"/><stop stop-opacity="1" stop-color="rgb(28.918457%, 49.234009%, 12.3703%)" offset="0.53125"/><stop stop-opacity="1" stop-color="rgb(28.814697%, 49.029541%, 12.280273%)" offset="0.535156"/><stop stop-opacity="1" stop-color="rgb(28.709412%, 48.823547%, 12.190247%)" offset="0.539062"/><stop stop-opacity="1" stop-color="rgb(28.605652%, 48.61908%, 12.098694%)" offset="0.542969"/><stop stop-opacity="1" stop-color="rgb(28.501892%, 48.413086%, 12.008667%)" offset="0.546875"/><stop stop-opacity="1" stop-color="rgb(28.398132%, 48.208618%, 11.91864%)" offset="0.550781"/><stop stop-opacity="1" stop-color="rgb(28.292847%, 48.002625%, 11.828613%)" offset="0.554688"/><stop stop-opacity="1" stop-color="rgb(28.189087%, 47.798157%, 11.737061%)" offset="0.558594"/><stop stop-opacity="1" stop-color="rgb(28.085327%, 47.592163%, 11.647034%)" offset="0.5625"/><stop stop-opacity="1" stop-color="rgb(27.981567%, 47.387695%, 11.557007%)" offset="0.566406"/><stop stop-opacity="1" stop-color="rgb(27.876282%, 47.181702%, 11.46698%)" offset="0.570312"/><stop stop-opacity="1" stop-color="rgb(27.772522%, 46.977234%, 11.375427%)" offset="0.574219"/><stop stop-opacity="1" stop-color="rgb(27.668762%, 46.77124%, 11.2854%)" offset="0.578125"/><stop stop-opacity="1" stop-color="rgb(27.563477%, 46.566772%, 11.195374%)" offset="0.582031"/><stop stop-opacity="1" stop-color="rgb(27.459717%, 46.360779%, 11.105347%)" offset="0.585938"/><stop stop-opacity="1" stop-color="rgb(27.355957%, 46.156311%, 11.013794%)" offset="0.589844"/><stop stop-opacity="1" stop-color="rgb(27.252197%, 45.950317%, 10.923767%)" offset="0.59375"/><stop stop-opacity="1" stop-color="rgb(27.146912%, 45.74585%, 10.83374%)" offset="0.597656"/><stop stop-opacity="1" stop-color="rgb(27.043152%, 45.539856%, 10.743713%)" offset="0.601562"/><stop stop-opacity="1" stop-color="rgb(26.939392%, 45.335388%, 10.652161%)" offset="0.605469"/><stop stop-opacity="1" stop-color="rgb(26.835632%, 45.129395%, 10.562134%)" offset="0.609375"/><stop stop-opacity="1" stop-color="rgb(26.730347%, 44.924927%, 10.472107%)" offset="0.613281"/><stop stop-opacity="1" stop-color="rgb(26.626587%, 44.718933%, 10.38208%)" offset="0.617188"/><stop stop-opacity="1" stop-color="rgb(26.522827%, 44.514465%, 10.292053%)" offset="0.621094"/><stop stop-opacity="1" stop-color="rgb(26.417542%, 44.308472%, 10.2005%)" offset="0.625"/><stop stop-opacity="1" stop-color="rgb(26.313782%, 44.104004%, 10.110474%)" offset="0.628906"/><stop stop-opacity="1" stop-color="rgb(26.210022%, 43.89801%, 10.020447%)" offset="0.632812"/><stop stop-opacity="1" stop-color="rgb(26.106262%, 43.693542%, 9.93042%)" offset="0.636719"/><stop stop-opacity="1" stop-color="rgb(26.000977%, 43.487549%, 9.838867%)" offset="0.640625"/><stop stop-opacity="1" stop-color="rgb(25.897217%, 43.283081%, 9.74884%)" offset="0.644531"/><stop stop-opacity="1" stop-color="rgb(25.793457%, 43.077087%, 9.658813%)" offset="0.648438"/><stop stop-opacity="1" stop-color="rgb(25.688171%, 42.87262%, 9.568787%)" offset="0.652344"/><stop stop-opacity="1" stop-color="rgb(25.584412%, 42.666626%, 9.477234%)" offset="0.65625"/><stop stop-opacity="1" stop-color="rgb(25.480652%, 42.462158%, 9.387207%)" offset="0.660156"/><stop stop-opacity="1" stop-color="rgb(25.376892%, 42.256165%, 9.29718%)" offset="0.664062"/><stop stop-opacity="1" stop-color="rgb(25.271606%, 42.051697%, 9.207153%)" offset="0.667969"/><stop stop-opacity="1" stop-color="rgb(25.167847%, 41.845703%, 9.115601%)" offset="0.671875"/><stop stop-opacity="1" stop-color="rgb(25.064087%, 41.641235%, 9.025574%)" offset="0.675781"/><stop stop-opacity="1" stop-color="rgb(24.960327%, 41.435242%, 8.935547%)" offset="0.679688"/><stop stop-opacity="1" stop-color="rgb(24.855042%, 41.230774%, 8.84552%)" offset="0.683594"/><stop stop-opacity="1" stop-color="rgb(24.751282%, 41.02478%, 8.753967%)" offset="0.6875"/><stop stop-opacity="1" stop-color="rgb(24.647522%, 40.820312%, 8.66394%)" offset="0.691406"/><stop stop-opacity="1" stop-color="rgb(24.542236%, 40.614319%, 8.573914%)" offset="0.695312"/><stop stop-opacity="1" stop-color="rgb(24.438477%, 40.409851%, 8.483887%)" offset="0.699219"/><stop stop-opacity="1" stop-color="rgb(24.334717%, 40.203857%, 8.39386%)" offset="0.703125"/><stop stop-opacity="1" stop-color="rgb(24.230957%, 39.99939%, 8.302307%)" offset="0.707031"/><stop stop-opacity="1" stop-color="rgb(24.125671%, 39.793396%, 8.21228%)" offset="0.710938"/><stop stop-opacity="1" stop-color="rgb(24.021912%, 39.588928%, 8.122253%)" offset="0.714844"/><stop stop-opacity="1" stop-color="rgb(23.918152%, 39.382935%, 8.032227%)" offset="0.71875"/><stop stop-opacity="1" stop-color="rgb(23.814392%, 39.178467%, 7.940674%)" offset="0.722656"/><stop stop-opacity="1" stop-color="rgb(23.709106%, 38.972473%, 7.850647%)" offset="0.726562"/><stop stop-opacity="1" stop-color="rgb(23.605347%, 38.768005%, 7.76062%)" offset="0.730469"/><stop stop-opacity="1" stop-color="rgb(23.501587%, 38.562012%, 7.670593%)" offset="0.734375"/><stop stop-opacity="1" stop-color="rgb(23.396301%, 38.357544%, 7.579041%)" offset="0.738281"/><stop stop-opacity="1" stop-color="rgb(23.292542%, 38.15155%, 7.489014%)" offset="0.742188"/><stop stop-opacity="1" stop-color="rgb(23.188782%, 37.947083%, 7.398987%)" offset="0.746094"/><stop stop-opacity="1" stop-color="rgb(23.085022%, 37.741089%, 7.30896%)" offset="0.75"/><stop stop-opacity="1" stop-color="rgb(22.979736%, 37.536621%, 7.217407%)" offset="0.753906"/><stop stop-opacity="1" stop-color="rgb(22.875977%, 37.330627%, 7.12738%)" offset="0.757812"/><stop stop-opacity="1" stop-color="rgb(22.772217%, 37.12616%, 7.037354%)" offset="0.761719"/><stop stop-opacity="1" stop-color="rgb(22.668457%, 36.920166%, 6.947327%)" offset="0.765625"/><stop stop-opacity="1" stop-color="rgb(22.563171%, 36.715698%, 6.855774%)" offset="0.769531"/><stop stop-opacity="1" stop-color="rgb(22.459412%, 36.509705%, 6.765747%)" offset="0.773438"/><stop stop-opacity="1" stop-color="rgb(22.355652%, 36.305237%, 6.67572%)" offset="0.777344"/><stop stop-opacity="1" stop-color="rgb(22.250366%, 36.099243%, 6.585693%)" offset="0.78125"/><stop stop-opacity="1" stop-color="rgb(22.146606%, 35.894775%, 6.495667%)" offset="0.785156"/><stop stop-opacity="1" stop-color="rgb(22.042847%, 35.688782%, 6.404114%)" offset="0.789062"/><stop stop-opacity="1" stop-color="rgb(21.939087%, 35.484314%, 6.314087%)" offset="0.792969"/><stop stop-opacity="1" stop-color="rgb(21.833801%, 35.27832%, 6.22406%)" offset="0.796875"/><stop stop-opacity="1" stop-color="rgb(21.730042%, 35.073853%, 6.134033%)" offset="0.800781"/><stop stop-opacity="1" stop-color="rgb(21.626282%, 34.867859%, 6.04248%)" offset="0.804688"/><stop stop-opacity="1" stop-color="rgb(21.520996%, 34.663391%, 5.952454%)" offset="0.808594"/><stop stop-opacity="1" stop-color="rgb(21.417236%, 34.457397%, 5.862427%)" offset="0.8125"/><stop stop-opacity="1" stop-color="rgb(21.313477%, 34.25293%, 5.7724%)" offset="0.816406"/><stop stop-opacity="1" stop-color="rgb(21.209717%, 34.046936%, 5.680847%)" offset="0.820312"/><stop stop-opacity="1" stop-color="rgb(21.104431%, 33.842468%, 5.59082%)" offset="0.824219"/><stop stop-opacity="1" stop-color="rgb(21.000671%, 33.636475%, 5.500793%)" offset="0.828125"/><stop stop-opacity="1" stop-color="rgb(20.896912%, 33.432007%, 5.410767%)" offset="0.832031"/><stop stop-opacity="1" stop-color="rgb(20.793152%, 33.226013%, 5.319214%)" offset="0.835938"/><stop stop-opacity="1" stop-color="rgb(20.687866%, 33.021545%, 5.229187%)" offset="0.839844"/><stop stop-opacity="1" stop-color="rgb(20.584106%, 32.815552%, 5.13916%)" offset="0.84375"/><stop stop-opacity="1" stop-color="rgb(20.480347%, 32.611084%, 5.049133%)" offset="0.847656"/><stop stop-opacity="1" stop-color="rgb(20.375061%, 32.40509%, 4.957581%)" offset="0.851562"/><stop stop-opacity="1" stop-color="rgb(20.271301%, 32.200623%, 4.867554%)" offset="0.855469"/><stop stop-opacity="1" stop-color="rgb(20.167542%, 31.994629%, 4.777527%)" offset="0.859375"/><stop stop-opacity="1" stop-color="rgb(20.063782%, 31.790161%, 4.6875%)" offset="0.863281"/><stop stop-opacity="1" stop-color="rgb(19.958496%, 31.584167%, 4.597473%)" offset="0.867188"/><stop stop-opacity="1" stop-color="rgb(19.854736%, 31.3797%, 4.50592%)" offset="0.871094"/><stop stop-opacity="1" stop-color="rgb(19.750977%, 31.173706%, 4.415894%)" offset="0.875"/><stop stop-opacity="1" stop-color="rgb(19.647217%, 30.969238%, 4.325867%)" offset="0.878906"/><stop stop-opacity="1" stop-color="rgb(19.541931%, 30.763245%, 4.23584%)" offset="0.882812"/><stop stop-opacity="1" stop-color="rgb(19.438171%, 30.558777%, 4.144287%)" offset="0.886719"/><stop stop-opacity="1" stop-color="rgb(19.334412%, 30.352783%, 4.05426%)" offset="0.890625"/><stop stop-opacity="1" stop-color="rgb(19.229126%, 30.148315%, 3.964233%)" offset="0.894531"/><stop stop-opacity="1" stop-color="rgb(19.125366%, 29.942322%, 3.874207%)" offset="0.898438"/><stop stop-opacity="1" stop-color="rgb(19.021606%, 29.737854%, 3.782654%)" offset="0.902344"/><stop stop-opacity="1" stop-color="rgb(18.917847%, 29.53186%, 3.692627%)" offset="0.90625"/><stop stop-opacity="1" stop-color="rgb(18.812561%, 29.325867%, 3.6026%)" offset="0.910156"/><stop stop-opacity="1" stop-color="rgb(18.708801%, 29.121399%, 3.512573%)" offset="0.914062"/><stop stop-opacity="1" stop-color="rgb(18.605042%, 28.915405%, 3.421021%)" offset="0.917969"/><stop stop-opacity="1" stop-color="rgb(18.501282%, 28.710938%, 3.330994%)" offset="0.921875"/><stop stop-opacity="1" stop-color="rgb(18.395996%, 28.504944%, 3.240967%)" offset="0.925781"/><stop stop-opacity="1" stop-color="rgb(18.292236%, 28.300476%, 3.15094%)" offset="0.929688"/><stop stop-opacity="1" stop-color="rgb(18.188477%, 28.094482%, 3.059387%)" offset="0.933594"/><stop stop-opacity="1" stop-color="rgb(18.083191%, 27.890015%, 2.96936%)" offset="0.9375"/><stop stop-opacity="1" stop-color="rgb(17.979431%, 27.684021%, 2.879333%)" offset="0.941406"/><stop stop-opacity="1" stop-color="rgb(17.875671%, 27.479553%, 2.789307%)" offset="0.945312"/><stop stop-opacity="1" stop-color="rgb(17.771912%, 27.27356%, 2.69928%)" offset="0.949219"/><stop stop-opacity="1" stop-color="rgb(17.666626%, 27.069092%, 2.607727%)" offset="0.953125"/><stop stop-opacity="1" stop-color="rgb(17.562866%, 26.863098%, 2.5177%)" offset="0.957031"/><stop stop-opacity="1" stop-color="rgb(17.459106%, 26.65863%, 2.427673%)" offset="0.960938"/><stop stop-opacity="1" stop-color="rgb(17.353821%, 26.452637%, 2.337646%)" offset="0.964844"/><stop stop-opacity="1" stop-color="rgb(17.250061%, 26.248169%, 2.246094%)" offset="0.96875"/><stop stop-opacity="1" stop-color="rgb(17.146301%, 26.042175%, 2.156067%)" offset="0.972656"/><stop stop-opacity="1" stop-color="rgb(17.042542%, 25.837708%, 2.06604%)" offset="0.976562"/><stop stop-opacity="1" stop-color="rgb(16.937256%, 25.631714%, 1.976013%)" offset="0.980469"/><stop stop-opacity="1" stop-color="rgb(16.833496%, 25.427246%, 1.88446%)" offset="0.984375"/><stop stop-opacity="1" stop-color="rgb(16.729736%, 25.221252%, 1.794434%)" offset="0.988281"/><stop stop-opacity="1" stop-color="rgb(16.625977%, 25.016785%, 1.704407%)" offset="0.992188"/><stop stop-opacity="1" stop-color="rgb(16.520691%, 24.810791%, 1.61438%)" offset="0.996094"/><stop stop-opacity="1" stop-color="rgb(16.468811%, 24.708557%, 1.568604%)" offset="1"/></radialGradient><clipPath id="59b46de553"><path d="M 152 246.40625 L 621 246.40625 L 621 765.902344 L 152 765.902344 Z M 152 246.40625 " clip-rule="nonzero"/></clipPath></defs><g clip-path="url(#af5b37811b)"><path fill="#ffffff" d="M 0.199219 0 L 809.800781 0 L 809.800781 1012 L 0.199219 1012 Z M 0.199219 0 " fill-opacity="1" fill-rule="nonzero"/><path fill="url(#196e0ab912)" d="M 0.199219 0 L 0.199219 1012 L 809.800781 1012 L 809.800781 0 Z M 0.199219 0 " fill-rule="nonzero"/></g><g clip-path="url(#59b46de553)"><path fill="#ff3f30" d="M 154.648438 529.546875 C 170.980469 665.003906 309.660156 762.0625 442.582031 729.394531 C 443.722656 730.753906 444.898438 732.078125 446.109375 733.375 C 447.320312 734.671875 448.566406 735.9375 449.84375 737.167969 C 451.121094 738.398438 452.429688 739.59375 453.769531 740.757812 C 455.113281 741.917969 456.484375 743.042969 457.882812 744.132812 C 459.285156 745.222656 460.710938 746.273438 462.167969 747.285156 C 463.625 748.300781 465.105469 749.273438 466.613281 750.210938 C 468.121094 751.144531 469.652344 752.039062 471.207031 752.894531 C 472.761719 753.746094 474.339844 754.558594 475.9375 755.332031 C 477.535156 756.101562 479.152344 756.828125 480.789062 757.515625 C 482.425781 758.199219 484.078125 758.839844 485.75 759.4375 C 487.417969 760.035156 489.105469 760.589844 490.804688 761.097656 C 492.503906 761.605469 494.214844 762.070312 495.9375 762.488281 C 497.664062 762.90625 499.398438 763.277344 501.140625 763.605469 C 502.886719 763.929688 504.636719 764.210938 506.394531 764.445312 C 508.152344 764.675781 509.917969 764.863281 511.6875 765.003906 C 513.453125 765.144531 515.226562 765.238281 517 765.285156 C 518.773438 765.332031 520.546875 765.332031 522.320312 765.285156 C 524.09375 765.238281 525.863281 765.140625 527.632812 765 C 529.402344 764.859375 531.164062 764.671875 532.921875 764.4375 C 534.679688 764.203125 536.433594 763.925781 538.175781 763.597656 C 539.917969 763.269531 541.652344 762.898438 543.378906 762.480469 C 545.101562 762.0625 546.8125 761.597656 548.511719 761.085938 C 550.210938 760.578125 551.898438 760.023438 553.566406 759.425781 C 555.238281 758.828125 556.890625 758.1875 558.527344 757.5 C 560.164062 756.816406 561.78125 756.085938 563.378906 755.316406 C 564.976562 754.542969 566.550781 753.730469 568.105469 752.875 C 569.660156 752.019531 571.191406 751.125 572.699219 750.191406 C 574.207031 749.253906 575.6875 748.28125 577.144531 747.265625 C 578.597656 746.253906 580.027344 745.199219 581.425781 744.109375 C 582.828125 743.019531 584.199219 741.894531 585.539062 740.734375 C 586.878906 739.570312 588.1875 738.375 589.464844 737.144531 C 590.742188 735.910156 591.984375 734.648438 593.195312 733.351562 C 594.40625 732.054688 595.582031 730.726562 596.722656 729.367188 C 597.863281 728.007812 598.964844 726.617188 600.03125 725.199219 C 601.097656 723.78125 602.125 722.339844 603.117188 720.867188 C 604.105469 719.394531 605.058594 717.898438 605.96875 716.375 C 606.878906 714.851562 607.75 713.304688 608.578125 711.738281 C 609.40625 710.167969 610.195312 708.582031 610.941406 706.96875 C 611.683594 705.359375 612.386719 703.730469 613.046875 702.085938 C 613.707031 700.4375 614.320312 698.773438 614.890625 697.09375 C 615.460938 695.414062 615.988281 693.722656 616.46875 692.011719 C 616.953125 690.304688 617.386719 688.585938 617.777344 686.855469 C 618.167969 685.125 618.511719 683.386719 618.8125 681.636719 C 619.109375 679.886719 619.359375 678.132812 619.566406 676.371094 C 619.773438 674.609375 619.929688 672.84375 620.042969 671.070312 C 620.15625 669.300781 620.21875 667.527344 620.238281 665.753906 C 620.257812 663.980469 620.226562 662.207031 620.152344 660.433594 C 620.078125 658.664062 619.957031 656.894531 619.785156 655.128906 C 619.617188 653.363281 619.402344 651.601562 619.140625 649.847656 C 618.875 648.09375 618.570312 646.34375 618.214844 644.605469 C 617.859375 642.867188 617.457031 641.140625 617.011719 639.425781 C 616.566406 637.707031 616.074219 636.003906 615.539062 634.3125 C 615.003906 632.621094 614.421875 630.945312 613.796875 629.285156 C 613.171875 627.625 612.503906 625.980469 611.792969 624.355469 C 611.082031 622.730469 610.328125 621.125 609.53125 619.539062 C 608.734375 617.957031 607.894531 616.394531 607.015625 614.851562 C 606.136719 613.3125 605.21875 611.792969 604.257812 610.300781 C 603.296875 608.808594 602.300781 607.34375 601.261719 605.90625 C 600.226562 604.464844 599.152344 603.054688 598.039062 601.671875 C 596.929688 600.289062 595.78125 598.9375 594.597656 597.617188 C 593.414062 596.292969 592.195312 595.003906 590.945312 593.746094 C 589.695312 592.488281 588.410156 591.265625 587.09375 590.078125 C 585.777344 588.886719 584.429688 587.734375 583.054688 586.613281 C 581.675781 585.496094 580.269531 584.414062 578.835938 583.371094 C 577.503906 582.398438 576.234375 581.351562 575.023438 580.230469 C 573.816406 579.109375 572.675781 577.921875 571.605469 576.667969 C 570.535156 575.414062 569.539062 574.101562 568.625 572.730469 C 567.707031 571.359375 566.871094 569.941406 566.121094 568.472656 C 565.371094 567.003906 564.707031 565.5 564.132812 563.953125 C 563.554688 562.40625 563.074219 560.835938 562.683594 559.234375 C 562.289062 557.628906 561.996094 556.011719 561.792969 554.375 C 561.589844 552.738281 561.484375 551.09375 561.472656 549.445312 L 561.472656 288.636719 C 561.476562 287.378906 561.421875 286.121094 561.3125 284.867188 C 561.199219 283.613281 561.03125 282.367188 560.808594 281.128906 C 560.585938 279.890625 560.308594 278.664062 559.976562 277.453125 C 559.644531 276.238281 559.253906 275.042969 558.816406 273.863281 C 558.375 272.6875 557.882812 271.53125 557.335938 270.394531 C 556.792969 269.261719 556.199219 268.152344 555.554688 267.074219 C 554.910156 265.992188 554.21875 264.941406 553.480469 263.921875 C 552.742188 262.90625 551.957031 261.921875 551.132812 260.972656 C 550.304688 260.023438 549.4375 259.113281 548.527344 258.246094 C 547.617188 257.375 546.671875 256.546875 545.6875 255.761719 C 544.707031 254.976562 543.6875 254.238281 542.640625 253.542969 C 541.589844 252.847656 540.511719 252.203125 539.402344 251.605469 C 538.296875 251.011719 537.164062 250.464844 536.007812 249.96875 C 534.851562 249.472656 533.671875 249.03125 532.476562 248.644531 C 531.28125 248.253906 530.070312 247.917969 528.839844 247.636719 C 527.613281 247.359375 526.378906 247.132812 525.132812 246.964844 C 523.882812 246.796875 522.632812 246.683594 521.375 246.625 C 520.117188 246.570312 518.863281 246.570312 517.605469 246.625 C 516.347656 246.683594 515.09375 246.796875 513.847656 246.964844 C 512.601562 247.132812 511.363281 247.359375 510.136719 247.636719 C 508.910156 247.917969 507.699219 248.253906 506.503906 248.640625 C 505.308594 249.03125 504.128906 249.472656 502.972656 249.96875 C 501.816406 250.464844 500.683594 251.007812 499.578125 251.605469 C 498.46875 252.203125 497.390625 252.847656 496.339844 253.542969 C 495.289062 254.234375 494.273438 254.972656 493.289062 255.757812 C 492.308594 256.542969 491.359375 257.371094 490.453125 258.242188 C 489.542969 259.113281 488.675781 260.023438 487.847656 260.96875 C 487.019531 261.917969 486.238281 262.902344 485.5 263.921875 C 484.761719 264.9375 484.070312 265.988281 483.425781 267.070312 C 482.78125 268.152344 482.1875 269.257812 481.640625 270.390625 C 481.097656 271.527344 480.605469 272.683594 480.164062 273.863281 C 479.722656 275.039062 479.335938 276.234375 479.003906 277.449219 C 311.179688 209.082031 129.667969 350.398438 154.648438 529.546875 Z M 300.085938 592.5625 L 350.972656 592.5625 C 351.898438 592.488281 352.824219 592.464844 353.753906 592.484375 C 354.683594 592.507812 355.609375 592.574219 356.53125 592.691406 C 357.449219 592.804688 358.363281 592.964844 359.269531 593.171875 C 360.175781 593.378906 361.066406 593.632812 361.949219 593.929688 C 362.828125 594.226562 363.691406 594.566406 364.535156 594.949219 C 365.382812 595.332031 366.207031 595.757812 367.007812 596.226562 C 367.8125 596.691406 368.589844 597.199219 369.339844 597.746094 C 370.09375 598.289062 370.816406 598.871094 371.507812 599.488281 C 372.199219 600.109375 372.859375 600.757812 373.488281 601.445312 C 374.117188 602.128906 374.707031 602.84375 375.261719 603.589844 C 375.816406 604.332031 376.332031 605.101562 376.8125 605.898438 C 377.289062 606.695312 377.726562 607.515625 378.121094 608.355469 C 378.515625 609.195312 378.867188 610.054688 379.175781 610.929688 C 379.484375 611.804688 379.746094 612.695312 379.964844 613.597656 C 380.183594 614.5 380.359375 615.410156 380.484375 616.332031 C 380.613281 617.25 380.691406 618.175781 380.726562 619.105469 C 380.757812 620.03125 380.746094 620.960938 380.6875 621.886719 C 380.625 622.8125 380.519531 623.734375 380.367188 624.652344 C 380.214844 625.566406 380.015625 626.472656 379.773438 627.367188 C 379.527344 628.265625 379.238281 629.144531 378.90625 630.011719 C 378.574219 630.878906 378.199219 631.726562 377.78125 632.558594 C 377.359375 633.386719 376.902344 634.191406 376.402344 634.976562 C 375.902344 635.757812 375.363281 636.511719 374.789062 637.242188 C 374.210938 637.96875 373.601562 638.667969 372.953125 639.335938 C 372.308594 640.003906 371.628906 640.632812 370.921875 641.234375 C 370.210938 641.832031 369.472656 642.394531 368.703125 642.917969 C 367.9375 643.441406 367.148438 643.925781 366.332031 644.371094 C 365.515625 644.8125 364.679688 645.214844 363.824219 645.574219 C 362.96875 645.9375 362.097656 646.253906 361.207031 646.523438 C 360.320312 646.796875 359.421875 647.023438 358.507812 647.203125 C 357.597656 647.386719 356.679688 647.519531 355.757812 647.609375 C 354.832031 647.699219 353.90625 647.738281 352.976562 647.734375 L 231.484375 647.734375 C 224.300781 640.160156 217.699219 632.105469 211.675781 623.578125 C 205.652344 615.046875 200.273438 606.128906 195.539062 596.824219 C 190.804688 587.519531 186.761719 577.921875 183.410156 568.03125 C 180.058594 558.140625 177.4375 548.0625 175.539062 537.796875 L 291.34375 537.796875 C 292.445312 537.699219 293.550781 537.707031 294.652344 537.816406 C 295.753906 537.925781 296.835938 538.132812 297.898438 538.441406 C 298.960938 538.753906 299.988281 539.15625 300.976562 539.65625 C 301.964844 540.15625 302.898438 540.742188 303.777344 541.414062 C 304.65625 542.089844 305.464844 542.835938 306.207031 543.660156 C 306.949219 544.484375 307.605469 545.367188 308.183594 546.3125 C 308.757812 547.257812 309.246094 548.25 309.636719 549.285156 C 310.03125 550.320312 310.324219 551.382812 310.519531 552.472656 C 310.714844 553.5625 310.808594 554.660156 310.800781 555.765625 C 310.792969 556.875 310.683594 557.972656 310.472656 559.058594 C 310.261719 560.144531 309.953125 561.203125 309.542969 562.234375 C 309.136719 563.261719 308.636719 564.246094 308.046875 565.183594 C 307.457031 566.121094 306.785156 566.996094 306.035156 567.808594 C 305.28125 568.621094 304.460938 569.355469 303.574219 570.015625 C 302.683594 570.675781 301.742188 571.25 300.746094 571.734375 C 299.75 572.222656 298.71875 572.609375 297.652344 572.90625 C 297.074219 573.058594 296.515625 573.265625 295.976562 573.519531 C 295.433594 573.777344 294.921875 574.078125 294.433594 574.425781 C 293.949219 574.773438 293.496094 575.160156 293.078125 575.589844 C 292.660156 576.019531 292.285156 576.480469 291.953125 576.976562 C 291.617188 577.472656 291.332031 577.996094 291.089844 578.542969 C 290.851562 579.089844 290.660156 579.65625 290.519531 580.238281 C 290.382812 580.820312 290.296875 581.40625 290.261719 582.003906 C 290.230469 582.601562 290.25 583.199219 290.324219 583.792969 C 290.394531 584.382812 290.523438 584.964844 290.699219 585.539062 C 290.878906 586.109375 291.105469 586.660156 291.382812 587.1875 C 291.660156 587.71875 291.980469 588.222656 292.347656 588.691406 C 292.714844 589.164062 293.121094 589.601562 293.5625 590 C 294.007812 590.402344 294.484375 590.757812 294.996094 591.070312 C 295.503906 591.386719 296.035156 591.652344 296.59375 591.871094 C 297.148438 592.089844 297.722656 592.257812 298.308594 592.371094 C 298.894531 592.488281 299.488281 592.550781 300.085938 592.5625 Z M 514.585938 265.96875 C 515.421875 265.804688 516.265625 265.691406 517.117188 265.621094 C 517.96875 265.550781 518.820312 265.527344 519.671875 265.550781 C 520.523438 265.570312 521.371094 265.640625 522.21875 265.757812 C 523.0625 265.875 523.898438 266.035156 524.726562 266.242188 C 525.554688 266.453125 526.367188 266.703125 527.167969 267 C 527.964844 267.296875 528.746094 267.636719 529.511719 268.019531 C 530.273438 268.402344 531.011719 268.824219 531.726562 269.289062 C 532.445312 269.753906 533.132812 270.253906 533.792969 270.792969 C 534.453125 271.332031 535.085938 271.90625 535.683594 272.511719 C 536.28125 273.121094 536.84375 273.761719 537.371094 274.429688 C 537.902344 275.101562 538.390625 275.796875 538.84375 276.519531 C 539.292969 277.242188 539.707031 277.988281 540.074219 278.757812 C 540.445312 279.527344 540.773438 280.3125 541.058594 281.117188 C 541.339844 281.921875 541.578125 282.738281 541.773438 283.570312 C 541.96875 284.398438 542.117188 285.238281 542.21875 286.085938 C 542.320312 286.933594 542.378906 287.78125 542.386719 288.636719 L 542.386719 549.445312 C 542.398438 551.839844 542.550781 554.226562 542.839844 556.605469 C 543.128906 558.980469 543.558594 561.335938 544.121094 563.660156 C 544.6875 565.988281 545.386719 568.273438 546.21875 570.519531 C 547.050781 572.765625 548.011719 574.957031 549.101562 577.089844 C 550.1875 579.222656 551.398438 581.285156 552.726562 583.277344 C 554.058594 585.269531 555.5 587.175781 557.050781 589 C 558.601562 590.824219 560.257812 592.550781 562.011719 594.179688 C 563.765625 595.8125 565.609375 597.335938 567.542969 598.75 C 570.136719 600.632812 572.609375 602.660156 574.960938 604.839844 C 577.3125 607.015625 579.527344 609.320312 581.609375 611.761719 C 583.6875 614.199219 585.617188 616.753906 587.390625 619.421875 C 589.167969 622.089844 590.78125 624.851562 592.230469 627.710938 C 593.679688 630.570312 594.953125 633.503906 596.054688 636.511719 C 597.15625 639.523438 598.074219 642.585938 598.8125 645.707031 C 599.550781 648.824219 600.101562 651.976562 600.464844 655.160156 C 600.832031 658.34375 601.003906 661.539062 600.992188 664.742188 C 597.230469 771.160156 446.414062 773.730469 437.59375 667.996094 C 437.46875 664.726562 437.539062 661.464844 437.804688 658.207031 C 438.070312 654.945312 438.53125 651.714844 439.183594 648.511719 C 439.835938 645.308594 440.675781 642.152344 441.703125 639.050781 C 442.734375 635.945312 443.941406 632.914062 445.335938 629.957031 C 446.726562 626.996094 448.289062 624.128906 450.023438 621.359375 C 451.753906 618.585938 453.648438 615.925781 455.699219 613.378906 C 457.75 610.835938 459.945312 608.417969 462.289062 606.136719 C 464.628906 603.851562 467.09375 601.714844 469.691406 599.726562 C 471.726562 598.207031 473.667969 596.574219 475.515625 594.828125 C 477.363281 593.082031 479.101562 591.234375 480.734375 589.289062 C 482.367188 587.339844 483.882812 585.304688 485.28125 583.183594 C 486.679688 581.0625 487.949219 578.863281 489.09375 576.59375 C 490.234375 574.324219 491.242188 571.996094 492.117188 569.613281 C 492.992188 567.226562 493.726562 564.796875 494.316406 562.324219 C 494.910156 559.855469 495.359375 557.355469 495.660156 554.832031 C 495.964844 552.308594 496.121094 549.777344 496.132812 547.238281 L 496.132812 291.726562 C 496.015625 290.292969 496.027344 288.859375 496.164062 287.425781 C 496.296875 285.996094 496.558594 284.585938 496.945312 283.199219 C 497.328125 281.8125 497.832031 280.46875 498.453125 279.171875 C 499.074219 277.871094 499.800781 276.636719 500.640625 275.46875 C 501.476562 274.296875 502.414062 273.210938 503.441406 272.207031 C 504.472656 271.199219 505.582031 270.292969 506.769531 269.480469 C 507.960938 268.671875 509.210938 267.972656 510.523438 267.382812 C 511.835938 266.792969 513.191406 266.320312 514.585938 265.96875 Z M 477.042969 297.414062 L 477.042969 547.238281 C 477.03125 549.046875 476.914062 550.851562 476.691406 552.648438 C 476.46875 554.445312 476.144531 556.222656 475.71875 557.980469 C 475.289062 559.738281 474.761719 561.464844 474.136719 563.164062 C 473.507812 564.863281 472.785156 566.515625 471.964844 568.132812 C 471.144531 569.746094 470.234375 571.308594 469.234375 572.816406 C 468.234375 574.324219 467.152344 575.769531 465.984375 577.152344 C 464.816406 578.535156 463.574219 579.847656 462.253906 581.085938 C 460.9375 582.328125 459.550781 583.484375 458.097656 584.5625 C 454.898438 587.015625 451.855469 589.648438 448.96875 592.464844 C 446.082031 595.277344 443.375 598.257812 440.847656 601.394531 C 438.316406 604.535156 435.984375 607.8125 433.847656 611.230469 C 431.710938 614.648438 429.78125 618.179688 428.066406 621.828125 C 426.351562 625.476562 424.859375 629.210938 423.589844 633.039062 C 422.324219 636.867188 421.285156 640.753906 420.484375 644.703125 C 419.679688 648.652344 419.113281 652.636719 418.785156 656.65625 C 418.457031 660.671875 418.371094 664.695312 418.523438 668.722656 C 419.664062 714.058594 453.816406 714.519531 390.199219 716.265625 C 383.949219 716.285156 377.707031 716.039062 371.476562 715.519531 C 365.246094 715 359.050781 714.210938 352.890625 713.152344 C 346.726562 712.097656 340.621094 710.777344 334.574219 709.191406 C 328.527344 707.605469 322.558594 705.757812 316.671875 703.65625 C 310.785156 701.554688 305 699.199219 299.316406 696.59375 C 293.632812 693.988281 288.074219 691.144531 282.636719 688.058594 C 277.199219 684.96875 271.90625 681.652344 266.757812 678.109375 C 261.609375 674.5625 256.625 670.800781 251.800781 666.824219 L 352.976562 666.824219 C 353.839844 666.816406 354.699219 666.789062 355.558594 666.734375 C 356.421875 666.679688 357.277344 666.605469 358.132812 666.503906 C 358.992188 666.402344 359.84375 666.277344 360.691406 666.132812 C 361.542969 665.984375 362.386719 665.8125 363.226562 665.621094 C 364.066406 665.425781 364.898438 665.207031 365.726562 664.96875 C 366.554688 664.730469 367.375 664.464844 368.191406 664.183594 C 369.003906 663.898438 369.808594 663.589844 370.605469 663.261719 C 371.402344 662.929688 372.1875 662.582031 372.964844 662.207031 C 373.742188 661.835938 374.507812 661.441406 375.265625 661.027344 C 376.019531 660.613281 376.765625 660.175781 377.496094 659.722656 C 378.226562 659.265625 378.945312 658.789062 379.652344 658.296875 C 380.355469 657.800781 381.046875 657.285156 381.726562 656.753906 C 382.402344 656.21875 383.066406 655.667969 383.710938 655.097656 C 384.359375 654.527344 384.988281 653.941406 385.605469 653.335938 C 386.21875 652.734375 386.816406 652.113281 387.398438 651.476562 C 387.976562 650.839844 388.539062 650.183594 389.085938 649.515625 C 389.628906 648.847656 390.15625 648.167969 390.660156 647.46875 C 391.167969 646.773438 391.65625 646.0625 392.125 645.335938 C 392.589844 644.613281 393.039062 643.878906 393.464844 643.128906 C 393.894531 642.378906 394.300781 641.621094 394.6875 640.851562 C 395.070312 640.078125 395.433594 639.296875 395.777344 638.507812 C 396.121094 637.714844 396.441406 636.917969 396.738281 636.109375 C 397.039062 635.300781 397.3125 634.484375 397.566406 633.660156 C 397.820312 632.835938 398.050781 632.003906 398.261719 631.167969 C 398.46875 630.332031 398.652344 629.492188 398.816406 628.644531 C 398.976562 627.796875 399.113281 626.945312 399.230469 626.09375 C 399.34375 625.238281 399.4375 624.382812 399.503906 623.523438 C 399.570312 622.664062 399.617188 621.804688 399.636719 620.941406 C 399.65625 620.078125 399.652344 619.21875 399.625 618.355469 C 399.597656 617.496094 399.546875 616.632812 399.472656 615.777344 C 399.398438 614.917969 399.300781 614.0625 399.179688 613.207031 C 399.058594 612.355469 398.914062 611.503906 398.746094 610.660156 C 398.4375 609.328125 398.074219 608.015625 397.652344 606.71875 C 397.230469 605.417969 396.757812 604.140625 396.226562 602.882812 C 395.695312 601.621094 395.113281 600.390625 394.480469 599.179688 C 393.84375 597.972656 393.160156 596.792969 392.425781 595.640625 C 391.691406 594.492188 390.90625 593.375 390.078125 592.292969 C 389.246094 591.207031 388.371094 590.160156 387.453125 589.152344 C 386.53125 588.144531 385.570312 587.175781 384.570312 586.25 C 383.566406 585.320312 382.527344 584.4375 381.449219 583.597656 C 380.371094 582.761719 379.261719 581.96875 378.117188 581.226562 C 376.972656 580.480469 375.796875 579.789062 374.59375 579.144531 C 373.390625 578.5 372.160156 577.910156 370.90625 577.371094 C 369.652344 576.832031 368.378906 576.347656 367.082031 575.914062 C 365.785156 575.484375 364.476562 575.109375 363.148438 574.792969 C 361.820312 574.472656 360.480469 574.210938 359.132812 574.007812 C 357.78125 573.800781 356.425781 573.65625 355.0625 573.566406 C 353.699219 573.476562 352.335938 573.445312 350.972656 573.472656 L 325.539062 573.472656 C 325.917969 572.753906 326.269531 572.023438 326.601562 571.28125 C 326.929688 570.542969 327.234375 569.789062 327.515625 569.027344 C 327.796875 568.265625 328.054688 567.496094 328.285156 566.71875 C 328.515625 565.9375 328.722656 565.152344 328.902344 564.363281 C 329.082031 563.570312 329.234375 562.773438 329.363281 561.972656 C 329.492188 561.171875 329.59375 560.363281 329.667969 559.554688 C 329.746094 558.746094 329.792969 557.9375 329.816406 557.125 C 329.839844 556.316406 329.835938 555.503906 329.804688 554.691406 C 329.773438 553.878906 329.71875 553.070312 329.636719 552.261719 C 329.550781 551.457031 329.445312 550.652344 329.308594 549.851562 C 329.171875 549.050781 329.011719 548.253906 328.824219 547.464844 C 328.636719 546.675781 328.425781 545.890625 328.1875 545.113281 C 327.949219 544.339844 327.683594 543.570312 327.398438 542.8125 C 327.109375 542.054688 326.796875 541.304688 326.460938 540.566406 C 326.121094 539.828125 325.761719 539.101562 325.378906 538.382812 C 324.992188 537.667969 324.585938 536.96875 324.15625 536.277344 C 323.726562 535.589844 323.273438 534.914062 322.800781 534.257812 C 322.328125 533.597656 321.832031 532.953125 321.316406 532.328125 C 320.800781 531.699219 320.265625 531.089844 319.707031 530.5 C 319.152344 529.90625 318.578125 529.332031 317.984375 528.777344 C 317.394531 528.222656 316.78125 527.6875 316.15625 527.175781 C 315.527344 526.660156 314.882812 526.164062 314.222656 525.691406 C 313.5625 525.21875 312.886719 524.769531 312.199219 524.339844 C 311.507812 523.910156 310.808594 523.503906 310.089844 523.121094 C 309.375 522.738281 308.648438 522.378906 307.910156 522.042969 C 307.167969 521.707031 306.421875 521.394531 305.660156 521.109375 C 304.902344 520.820312 304.132812 520.558594 303.355469 520.320312 C 302.578125 520.085938 301.796875 519.875 301.003906 519.6875 C 300.214844 519.5 299.417969 519.339844 298.617188 519.207031 C 297.816406 519.074219 297.015625 518.964844 296.207031 518.882812 C 295.398438 518.800781 294.589844 518.746094 293.777344 518.71875 C 292.964844 518.6875 292.152344 518.6875 291.34375 518.710938 L 172.722656 518.707031 C 172.050781 511.710938 171.609375 504.796875 171.609375 497.839844 C 171.609375 494.707031 171.800781 491.617188 171.9375 488.511719 L 223.363281 488.511719 C 227.65625 488.523438 231.941406 488.324219 236.21875 487.910156 C 240.492188 487.5 244.734375 486.875 248.949219 486.042969 C 253.160156 485.210938 257.324219 484.171875 261.433594 482.929688 C 265.542969 481.6875 269.582031 480.242188 273.550781 478.597656 C 277.519531 476.957031 281.394531 475.121094 285.183594 473.09375 C 288.96875 471.066406 292.644531 468.859375 296.210938 466.46875 C 299.78125 464.078125 303.222656 461.515625 306.535156 458.785156 C 309.851562 456.054688 313.023438 453.167969 316.050781 450.121094 C 317.996094 448.1875 320.113281 446.460938 322.398438 444.9375 C 324.683594 443.417969 327.09375 442.132812 329.628906 441.082031 C 332.164062 440.03125 334.777344 439.238281 337.46875 438.699219 C 340.160156 438.160156 342.878906 437.882812 345.625 437.875 L 405.53125 437.875 C 472.199219 435.808594 472.269531 339.011719 405.53125 336.914062 C 404.8125 336.910156 404.097656 336.875 403.382812 336.804688 C 402.667969 336.734375 401.957031 336.628906 401.253906 336.488281 C 400.546875 336.347656 399.851562 336.171875 399.164062 335.964844 C 398.476562 335.757812 397.800781 335.515625 397.136719 335.238281 C 396.476562 334.964844 395.828125 334.65625 395.191406 334.320312 C 394.558594 333.980469 393.945312 333.613281 393.347656 333.210938 C 392.75 332.8125 392.171875 332.386719 391.617188 331.929688 C 391.0625 331.476562 390.53125 330.992188 390.023438 330.484375 C 389.515625 329.976562 389.03125 329.445312 388.578125 328.890625 C 388.121094 328.335938 387.691406 327.761719 387.292969 327.164062 C 386.894531 326.566406 386.523438 325.953125 386.1875 325.320312 C 385.847656 324.683594 385.539062 324.035156 385.261719 323.375 C 384.988281 322.710938 384.746094 322.035156 384.535156 321.347656 C 384.328125 320.660156 384.152344 319.964844 384.011719 319.261719 C 383.871094 318.554688 383.765625 317.847656 383.691406 317.132812 C 383.621094 316.417969 383.585938 315.699219 383.582031 314.984375 L 383.582031 279.574219 C 391.582031 279.269531 399.574219 279.417969 407.558594 280.023438 C 415.542969 280.625 423.464844 281.675781 431.328125 283.175781 C 439.191406 284.675781 446.945312 286.617188 454.589844 289 C 462.234375 291.378906 469.71875 294.183594 477.042969 297.414062 Z M 255.945312 325.429688 C 263.75 319.3125 271.9375 313.761719 280.511719 308.773438 C 289.082031 303.789062 297.957031 299.417969 307.132812 295.65625 C 316.308594 291.898438 325.699219 288.789062 335.304688 286.328125 C 344.914062 283.863281 354.640625 282.078125 364.496094 280.960938 L 364.496094 314.984375 C 364.496094 316.328125 364.566406 317.667969 364.699219 319.003906 C 364.832031 320.339844 365.03125 321.667969 365.292969 322.984375 C 365.558594 324.300781 365.882812 325.601562 366.273438 326.886719 C 366.667969 328.171875 367.117188 329.433594 367.632812 330.675781 C 368.148438 331.917969 368.722656 333.128906 369.359375 334.3125 C 369.992188 335.496094 370.683594 336.648438 371.429688 337.765625 C 372.175781 338.878906 372.976562 339.957031 373.828125 340.996094 C 374.679688 342.035156 375.582031 343.027344 376.53125 343.976562 C 377.480469 344.925781 378.476562 345.828125 379.515625 346.679688 C 380.554688 347.53125 381.628906 348.332031 382.746094 349.078125 C 383.863281 349.824219 385.015625 350.515625 386.199219 351.148438 C 387.382812 351.78125 388.597656 352.355469 389.835938 352.871094 C 391.078125 353.382812 392.339844 353.835938 393.625 354.226562 C 394.914062 354.617188 396.214844 354.945312 397.53125 355.207031 C 398.847656 355.46875 400.175781 355.667969 401.511719 355.800781 C 402.847656 355.933594 404.1875 356 405.53125 356 C 406.554688 356.011719 407.570312 356.074219 408.585938 356.183594 C 409.601562 356.292969 410.609375 356.453125 411.609375 356.664062 C 412.605469 356.871094 413.59375 357.128906 414.566406 357.433594 C 415.542969 357.738281 416.5 358.089844 417.441406 358.488281 C 418.378906 358.886719 419.296875 359.332031 420.195312 359.820312 C 421.09375 360.308594 421.960938 360.835938 422.808594 361.410156 C 423.652344 361.984375 424.46875 362.597656 425.253906 363.25 C 426.039062 363.902344 426.789062 364.589844 427.507812 365.316406 C 428.226562 366.042969 428.90625 366.800781 429.550781 367.59375 C 430.195312 368.386719 430.796875 369.207031 431.363281 370.058594 C 431.925781 370.910156 432.445312 371.789062 432.925781 372.691406 C 433.402344 373.59375 433.835938 374.515625 434.226562 375.460938 C 434.613281 376.40625 434.953125 377.367188 435.25 378.34375 C 435.542969 379.320312 435.789062 380.308594 435.988281 381.3125 C 436.183594 382.3125 436.332031 383.324219 436.433594 384.339844 C 436.53125 385.355469 436.582031 386.375 436.582031 387.394531 C 436.582031 388.414062 436.53125 389.433594 436.433594 390.449219 C 436.332031 391.46875 436.183594 392.476562 435.988281 393.476562 C 435.789062 394.480469 435.542969 395.46875 435.25 396.445312 C 434.953125 397.425781 434.613281 398.386719 434.222656 399.328125 C 433.835938 400.273438 433.402344 401.199219 432.925781 402.101562 C 432.445312 403 431.925781 403.878906 431.363281 404.730469 C 430.796875 405.582031 430.195312 406.402344 429.550781 407.195312 C 428.90625 407.988281 428.226562 408.746094 427.507812 409.472656 C 426.789062 410.199219 426.039062 410.886719 425.253906 411.539062 C 424.46875 412.191406 423.652344 412.804688 422.808594 413.378906 C 421.960938 413.953125 421.089844 414.484375 420.195312 414.972656 C 419.296875 415.460938 418.378906 415.902344 417.4375 416.300781 C 416.5 416.699219 415.542969 417.050781 414.566406 417.355469 C 413.59375 417.660156 412.605469 417.917969 411.605469 418.128906 C 410.605469 418.335938 409.601562 418.496094 408.585938 418.605469 C 407.570312 418.71875 406.550781 418.777344 405.53125 418.789062 L 345.625 418.789062 C 341.621094 418.777344 337.660156 419.160156 333.734375 419.9375 C 329.808594 420.710938 326 421.867188 322.304688 423.398438 C 318.605469 424.929688 315.097656 426.808594 311.773438 429.035156 C 308.449219 431.261719 305.378906 433.792969 302.554688 436.628906 C 299.96875 439.230469 297.257812 441.695312 294.425781 444.027344 C 291.59375 446.363281 288.652344 448.550781 285.605469 450.59375 C 282.558594 452.632812 279.414062 454.519531 276.179688 456.253906 C 272.945312 457.984375 269.632812 459.550781 266.242188 460.957031 C 262.851562 462.359375 259.402344 463.59375 255.890625 464.65625 C 252.378906 465.71875 248.824219 466.605469 245.222656 467.316406 C 241.625 468.027344 237.996094 468.558594 234.34375 468.910156 C 230.691406 469.261719 227.03125 469.433594 223.363281 469.425781 L 173.578125 469.425781 C 174.46875 462.382812 175.703125 455.398438 177.28125 448.476562 C 178.859375 441.554688 180.773438 434.726562 183.023438 427.992188 C 185.277344 421.257812 187.851562 414.652344 190.753906 408.171875 C 193.65625 401.695312 196.871094 395.371094 200.394531 389.210938 C 203.921875 383.046875 207.742188 377.074219 211.855469 371.285156 C 215.96875 365.5 220.355469 359.929688 225.019531 354.578125 C 229.683594 349.222656 234.597656 344.109375 239.765625 339.242188 C 244.933594 334.371094 250.324219 329.769531 255.945312 325.429688 Z M 255.945312 325.429688 " fill-opacity="1" fill-rule="nonzero"/></g><path fill="#ff3f30" d="M 480.078125 604.554688 C 426.246094 637.417969 440.285156 724.925781 504.613281 737.210938 C 506.675781 737.636719 508.753906 737.96875 510.84375 738.210938 C 512.933594 738.453125 515.03125 738.605469 517.136719 738.667969 C 519.242188 738.730469 521.34375 738.699219 523.445312 738.578125 C 525.546875 738.457031 527.640625 738.246094 529.722656 737.941406 C 531.808594 737.636719 533.875 737.246094 535.921875 736.765625 C 537.972656 736.28125 539.996094 735.710938 541.996094 735.054688 C 543.996094 734.394531 545.964844 733.652344 547.898438 732.824219 C 549.835938 731.996094 551.730469 731.085938 553.585938 730.09375 C 555.441406 729.097656 557.253906 728.027344 559.015625 726.878906 C 560.78125 725.726562 562.488281 724.503906 564.148438 723.207031 C 565.804688 721.90625 567.402344 720.539062 568.941406 719.101562 C 570.480469 717.664062 571.953125 716.164062 573.359375 714.601562 C 574.769531 713.035156 576.105469 711.414062 577.375 709.730469 C 578.640625 708.050781 579.835938 706.316406 580.953125 704.535156 C 582.070312 702.75 583.105469 700.921875 584.066406 699.046875 C 585.023438 697.171875 585.898438 695.257812 586.691406 693.308594 C 587.484375 691.359375 588.191406 689.378906 588.8125 687.367188 C 589.433594 685.355469 589.964844 683.320312 590.410156 681.261719 C 590.855469 679.203125 591.207031 677.128906 591.472656 675.042969 C 591.738281 672.953125 591.910156 670.855469 591.992188 668.753906 C 592.074219 666.648438 592.066406 664.546875 591.96875 662.445312 C 591.867188 660.339844 591.675781 658.246094 591.394531 656.160156 C 591.113281 654.074219 590.742188 652.003906 590.28125 649.949219 C 589.820312 647.894531 589.269531 645.863281 588.632812 643.859375 C 587.996094 641.851562 587.273438 639.878906 586.464844 637.933594 C 585.65625 635.988281 584.761719 634.085938 583.789062 632.21875 C 582.816406 630.351562 581.761719 628.53125 580.628906 626.757812 C 579.5 624.980469 578.292969 623.257812 577.011719 621.589844 C 575.730469 619.917969 574.378906 618.304688 572.957031 616.753906 C 571.535156 615.199219 570.050781 613.710938 568.5 612.289062 C 566.949219 610.863281 565.339844 609.507812 563.671875 608.222656 C 562.003906 606.9375 560.285156 605.730469 558.511719 604.59375 C 556.851562 603.585938 555.265625 602.476562 553.746094 601.265625 C 552.230469 600.058594 550.792969 598.757812 549.4375 597.367188 C 548.085938 595.976562 546.824219 594.507812 545.652344 592.957031 C 544.484375 591.410156 543.414062 589.792969 542.449219 588.109375 C 541.484375 586.425781 540.628906 584.691406 539.878906 582.898438 C 539.132812 581.105469 538.5 579.277344 537.984375 577.40625 C 537.46875 575.535156 537.070312 573.640625 536.792969 571.71875 C 536.515625 569.796875 536.359375 567.867188 536.324219 565.925781 L 536.324219 392.398438 C 536.351562 391.835938 536.347656 391.269531 536.320312 390.707031 C 536.292969 390.140625 536.234375 389.578125 536.148438 389.019531 C 536.066406 388.460938 535.953125 387.90625 535.8125 387.359375 C 535.671875 386.8125 535.507812 386.273438 535.3125 385.742188 C 535.121094 385.210938 534.902344 384.6875 534.65625 384.179688 C 534.410156 383.671875 534.140625 383.171875 533.847656 382.691406 C 533.554688 382.207031 533.234375 381.742188 532.894531 381.289062 C 532.554688 380.839844 532.191406 380.40625 531.808594 379.992188 C 531.425781 379.574219 531.019531 379.179688 530.597656 378.804688 C 530.175781 378.429688 529.734375 378.078125 529.277344 377.746094 C 528.816406 377.414062 528.34375 377.105469 527.855469 376.820312 C 527.367188 376.539062 526.863281 376.277344 526.351562 376.042969 C 525.835938 375.808594 525.3125 375.601562 524.777344 375.417969 C 524.242188 375.238281 523.699219 375.082031 523.148438 374.953125 C 522.597656 374.824219 522.039062 374.722656 521.480469 374.652344 C 520.917969 374.578125 520.355469 374.53125 519.792969 374.515625 C 519.226562 374.5 518.660156 374.507812 518.097656 374.546875 C 517.535156 374.585938 516.972656 374.652344 516.414062 374.75 C 515.859375 374.84375 515.304688 374.964844 514.761719 375.113281 C 514.214844 375.265625 513.679688 375.441406 513.152344 375.644531 C 512.625 375.84375 512.105469 376.074219 511.601562 376.328125 C 511.097656 376.582031 510.605469 376.859375 510.128906 377.164062 C 509.652344 377.464844 509.191406 377.792969 508.746094 378.140625 C 508.300781 378.488281 507.871094 378.859375 507.464844 379.25 C 507.054688 379.640625 506.667969 380.050781 506.300781 380.480469 C 505.933594 380.910156 505.589844 381.359375 505.265625 381.824219 C 504.941406 382.285156 504.640625 382.765625 504.367188 383.257812 C 504.089844 383.753906 503.839844 384.257812 503.617188 384.777344 C 503.390625 385.296875 503.191406 385.824219 503.019531 386.363281 C 502.847656 386.902344 502.699219 387.445312 502.582031 388 C 502.464844 388.554688 502.371094 389.109375 502.308594 389.671875 C 502.246094 390.234375 502.210938 390.796875 502.203125 391.363281 L 502.203125 566.035156 C 502.167969 567.96875 502.011719 569.890625 501.734375 571.804688 C 501.457031 573.71875 501.0625 575.609375 500.546875 577.472656 C 500.03125 579.335938 499.402344 581.160156 498.65625 582.945312 C 497.910156 584.730469 497.058594 586.460938 496.09375 588.140625 C 495.132812 589.816406 494.066406 591.425781 492.898438 592.96875 C 491.734375 594.511719 490.476562 595.976562 489.125 597.359375 C 487.773438 598.746094 486.34375 600.039062 484.828125 601.242188 C 483.316406 602.445312 481.730469 603.550781 480.078125 604.554688 Z M 480.078125 604.554688 " fill-opacity="1" fill-rule="nonzero"/><path fill="#ff3f30" d="M 578.0625 298.890625 L 658.429688 298.890625 L 658.429688 317.976562 L 578.0625 317.976562 Z M 578.0625 298.890625 " fill-opacity="1" fill-rule="nonzero"/><path fill="#ff3f30" d="M 578.0625 353.289062 L 658.429688 353.289062 L 658.429688 372.375 L 578.0625 372.375 Z M 578.0625 353.289062 " fill-opacity="1" fill-rule="nonzero"/><path fill="#ff3f30" d="M 578.0625 407.695312 L 658.429688 407.695312 L 658.429688 426.785156 L 578.0625 426.785156 Z M 578.0625 407.695312 " fill-opacity="1" fill-rule="nonzero"/><path fill="#ff3f30" d="M 578.0625 462.097656 L 658.429688 462.097656 L 658.429688 481.183594 L 578.0625 481.183594 Z M 578.0625 462.097656 " fill-opacity="1" fill-rule="nonzero"/><path fill="#ff3f30" d="M 578.0625 516.503906 L 658.429688 516.503906 L 658.429688 535.589844 L 578.0625 535.589844 Z M 578.0625 516.503906 " fill-opacity="1" fill-rule="nonzero"/><path fill="#ff3f30" d="M 578.0625 326.367188 L 613.890625 326.367188 L 613.890625 345.453125 L 578.0625 345.453125 Z M 578.0625 326.367188 " fill-opacity="1" fill-rule="nonzero"/><path fill="#ff3f30" d="M 578.0625 380.496094 L 613.890625 380.496094 L 613.890625 399.585938 L 578.0625 399.585938 Z M 578.0625 380.496094 " fill-opacity="1" fill-rule="nonzero"/><path fill="#ff3f30" d="M 578.0625 434.621094 L 613.890625 434.621094 L 613.890625 453.707031 L 578.0625 453.707031 Z M 578.0625 434.621094 " fill-opacity="1" fill-rule="nonzero"/><path fill="#ff3f30" d="M 578.0625 488.75 L 613.890625 488.75 L 613.890625 507.839844 L 578.0625 507.839844 Z M 578.0625 488.75 " fill-opacity="1" fill-rule="nonzero"/></svg>