<svg xmlns="http://www.w3.org/2000/svg" xmlns:xlink="http://www.w3.org/1999/xlink" width="1080" zoomAndPan="magnify" viewBox="0 0 810 1012.49997" height="1350" preserveAspectRatio="xMidYMid meet" version="1.0"><defs><clipPath id="3a2aea0b63"><path d="M 0.199219 0 L 809.800781 0 L 809.800781 1012 L 0.199219 1012 Z M 0.199219 0 " clip-rule="nonzero"/></clipPath><radialGradient gradientTransform="matrix(1, 0, 0, 1, 0.199913, 0)" gradientUnits="userSpaceOnUse" r="647.996483" cx="404.800087" id="3449df3a42" cy="506.000108" fx="404.800087" fy="506.000108"><stop stop-opacity="1" stop-color="rgb(21.897888%, 23.855591%, 50.856018%)" offset="0"/><stop stop-opacity="1" stop-color="rgb(21.743774%, 23.698425%, 50.549316%)" offset="0.0078125"/><stop stop-opacity="1" stop-color="rgb(21.560669%, 23.510742%, 50.18158%)" offset="0.0195312"/><stop stop-opacity="1" stop-color="rgb(21.376038%, 23.321533%, 49.813843%)" offset="0.03125"/><stop stop-opacity="1" stop-color="rgb(21.192932%, 23.13385%, 49.446106%)" offset="0.0429688"/><stop stop-opacity="1" stop-color="rgb(21.008301%, 22.944641%, 49.079895%)" offset="0.0546875"/><stop stop-opacity="1" stop-color="rgb(20.825195%, 22.756958%, 48.712158%)" offset="0.0664062"/><stop stop-opacity="1" stop-color="rgb(20.640564%, 22.567749%, 48.344421%)" offset="0.078125"/><stop stop-opacity="1" stop-color="rgb(20.457458%, 22.380066%, 47.976685%)" offset="0.0898438"/><stop stop-opacity="1" stop-color="rgb(20.272827%, 22.190857%, 47.608948%)" offset="0.101562"/><stop stop-opacity="1" stop-color="rgb(20.089722%, 22.003174%, 47.241211%)" offset="0.113281"/><stop stop-opacity="1" stop-color="rgb(19.90509%, 21.813965%, 46.873474%)" offset="0.125"/><stop stop-opacity="1" stop-color="rgb(19.721985%, 21.626282%, 46.505737%)" offset="0.136719"/><stop stop-opacity="1" stop-color="rgb(19.537354%, 21.437073%, 46.138%)" offset="0.148438"/><stop stop-opacity="1" stop-color="rgb(19.354248%, 21.24939%, 45.770264%)" offset="0.160156"/><stop stop-opacity="1" stop-color="rgb(19.169617%, 21.060181%, 45.402527%)" offset="0.171875"/><stop stop-opacity="1" stop-color="rgb(18.986511%, 20.872498%, 45.03479%)" offset="0.183594"/><stop stop-opacity="1" stop-color="rgb(18.80188%, 20.683289%, 44.667053%)" offset="0.195312"/><stop stop-opacity="1" stop-color="rgb(18.618774%, 20.495605%, 44.300842%)" offset="0.207031"/><stop stop-opacity="1" stop-color="rgb(18.434143%, 20.306396%, 43.933105%)" offset="0.21875"/><stop stop-opacity="1" stop-color="rgb(18.251038%, 20.118713%, 43.565369%)" offset="0.230469"/><stop stop-opacity="1" stop-color="rgb(18.066406%, 19.929504%, 43.197632%)" offset="0.242188"/><stop stop-opacity="1" stop-color="rgb(17.913818%, 19.773865%, 42.89093%)" offset="0.253906"/><stop stop-opacity="1" stop-color="rgb(17.791748%, 19.647217%, 42.64679%)" offset="0.261719"/><stop stop-opacity="1" stop-color="rgb(17.668152%, 19.522095%, 42.401123%)" offset="0.269531"/><stop stop-opacity="1" stop-color="rgb(17.546082%, 19.396973%, 42.155457%)" offset="0.277344"/><stop stop-opacity="1" stop-color="rgb(17.424011%, 19.270325%, 41.911316%)" offset="0.285156"/><stop stop-opacity="1" stop-color="rgb(17.300415%, 19.145203%, 41.665649%)" offset="0.292969"/><stop stop-opacity="1" stop-color="rgb(17.178345%, 19.020081%, 41.419983%)" offset="0.300781"/><stop stop-opacity="1" stop-color="rgb(17.056274%, 18.893433%, 41.175842%)" offset="0.308594"/><stop stop-opacity="1" stop-color="rgb(16.932678%, 18.768311%, 40.930176%)" offset="0.316406"/><stop stop-opacity="1" stop-color="rgb(16.810608%, 18.643188%, 40.686035%)" offset="0.324219"/><stop stop-opacity="1" stop-color="rgb(16.688538%, 18.516541%, 40.440369%)" offset="0.332031"/><stop stop-opacity="1" stop-color="rgb(16.564941%, 18.391418%, 40.194702%)" offset="0.339844"/><stop stop-opacity="1" stop-color="rgb(16.442871%, 18.266296%, 39.950562%)" offset="0.347656"/><stop stop-opacity="1" stop-color="rgb(16.320801%, 18.139648%, 39.704895%)" offset="0.355469"/><stop stop-opacity="1" stop-color="rgb(16.197205%, 18.014526%, 39.460754%)" offset="0.363281"/><stop stop-opacity="1" stop-color="rgb(16.075134%, 17.889404%, 39.215088%)" offset="0.371094"/><stop stop-opacity="1" stop-color="rgb(15.953064%, 17.762756%, 38.969421%)" offset="0.378906"/><stop stop-opacity="1" stop-color="rgb(15.829468%, 17.637634%, 38.725281%)" offset="0.386719"/><stop stop-opacity="1" stop-color="rgb(15.707397%, 17.512512%, 38.479614%)" offset="0.394531"/><stop stop-opacity="1" stop-color="rgb(15.585327%, 17.385864%, 38.233948%)" offset="0.402344"/><stop stop-opacity="1" stop-color="rgb(15.461731%, 17.260742%, 37.989807%)" offset="0.410156"/><stop stop-opacity="1" stop-color="rgb(15.339661%, 17.13562%, 37.744141%)" offset="0.417969"/><stop stop-opacity="1" stop-color="rgb(15.21759%, 17.008972%, 37.5%)" offset="0.425781"/><stop stop-opacity="1" stop-color="rgb(15.093994%, 16.88385%, 37.254333%)" offset="0.433594"/><stop stop-opacity="1" stop-color="rgb(14.971924%, 16.758728%, 37.008667%)" offset="0.441406"/><stop stop-opacity="1" stop-color="rgb(14.849854%, 16.63208%, 36.764526%)" offset="0.449219"/><stop stop-opacity="1" stop-color="rgb(14.726257%, 16.506958%, 36.51886%)" offset="0.457031"/><stop stop-opacity="1" stop-color="rgb(14.604187%, 16.381836%, 36.274719%)" offset="0.464844"/><stop stop-opacity="1" stop-color="rgb(14.482117%, 16.255188%, 36.029053%)" offset="0.472656"/><stop stop-opacity="1" stop-color="rgb(14.358521%, 16.130066%, 35.783386%)" offset="0.480469"/><stop stop-opacity="1" stop-color="rgb(14.23645%, 16.004944%, 35.539246%)" offset="0.488281"/><stop stop-opacity="1" stop-color="rgb(14.11438%, 15.878296%, 35.293579%)" offset="0.496094"/><stop stop-opacity="1" stop-color="rgb(13.960266%, 15.72113%, 34.986877%)" offset="0.503906"/><stop stop-opacity="1" stop-color="rgb(13.777161%, 15.533447%, 34.619141%)" offset="0.515625"/><stop stop-opacity="1" stop-color="rgb(13.592529%, 15.344238%, 34.251404%)" offset="0.527344"/><stop stop-opacity="1" stop-color="rgb(13.409424%, 15.156555%, 33.883667%)" offset="0.539062"/><stop stop-opacity="1" stop-color="rgb(13.224792%, 14.967346%, 33.517456%)" offset="0.550781"/><stop stop-opacity="1" stop-color="rgb(13.041687%, 14.779663%, 33.149719%)" offset="0.5625"/><stop stop-opacity="1" stop-color="rgb(12.857056%, 14.590454%, 32.781982%)" offset="0.574219"/><stop stop-opacity="1" stop-color="rgb(12.67395%, 14.402771%, 32.414246%)" offset="0.585938"/><stop stop-opacity="1" stop-color="rgb(12.489319%, 14.213562%, 32.046509%)" offset="0.597656"/><stop stop-opacity="1" stop-color="rgb(12.306213%, 14.025879%, 31.678772%)" offset="0.609375"/><stop stop-opacity="1" stop-color="rgb(12.121582%, 13.838196%, 31.311035%)" offset="0.621094"/><stop stop-opacity="1" stop-color="rgb(11.968994%, 13.68103%, 31.004333%)" offset="0.632812"/><stop stop-opacity="1" stop-color="rgb(11.846924%, 13.554382%, 30.760193%)" offset="0.640625"/><stop stop-opacity="1" stop-color="rgb(11.723328%, 13.42926%, 30.514526%)" offset="0.648438"/><stop stop-opacity="1" stop-color="rgb(11.601257%, 13.304138%, 30.270386%)" offset="0.65625"/><stop stop-opacity="1" stop-color="rgb(11.479187%, 13.17749%, 30.024719%)" offset="0.664062"/><stop stop-opacity="1" stop-color="rgb(11.355591%, 13.052368%, 29.779053%)" offset="0.671875"/><stop stop-opacity="1" stop-color="rgb(11.233521%, 12.927246%, 29.534912%)" offset="0.679688"/><stop stop-opacity="1" stop-color="rgb(11.11145%, 12.800598%, 29.289246%)" offset="0.6875"/><stop stop-opacity="1" stop-color="rgb(10.987854%, 12.675476%, 29.043579%)" offset="0.695312"/><stop stop-opacity="1" stop-color="rgb(10.865784%, 12.550354%, 28.799438%)" offset="0.703125"/><stop stop-opacity="1" stop-color="rgb(10.743713%, 12.423706%, 28.553772%)" offset="0.710938"/><stop stop-opacity="1" stop-color="rgb(10.620117%, 12.298584%, 28.309631%)" offset="0.71875"/><stop stop-opacity="1" stop-color="rgb(10.498047%, 12.173462%, 28.063965%)" offset="0.726562"/><stop stop-opacity="1" stop-color="rgb(10.375977%, 12.046814%, 27.818298%)" offset="0.734375"/><stop stop-opacity="1" stop-color="rgb(10.25238%, 11.921692%, 27.574158%)" offset="0.742188"/><stop stop-opacity="1" stop-color="rgb(10.13031%, 11.79657%, 27.328491%)" offset="0.75"/><stop stop-opacity="1" stop-color="rgb(9.976196%, 11.639404%, 27.02179%)" offset="0.757812"/><stop stop-opacity="1" stop-color="rgb(9.793091%, 11.450195%, 26.654053%)" offset="0.769531"/><stop stop-opacity="1" stop-color="rgb(9.608459%, 11.262512%, 26.286316%)" offset="0.78125"/><stop stop-opacity="1" stop-color="rgb(9.425354%, 11.073303%, 25.918579%)" offset="0.792969"/><stop stop-opacity="1" stop-color="rgb(9.240723%, 10.88562%, 25.552368%)" offset="0.804688"/><stop stop-opacity="1" stop-color="rgb(9.088135%, 10.728455%, 25.245667%)" offset="0.816406"/><stop stop-opacity="1" stop-color="rgb(8.966064%, 10.603333%, 25%)" offset="0.824219"/><stop stop-opacity="1" stop-color="rgb(8.842468%, 10.476685%, 24.755859%)" offset="0.832031"/><stop stop-opacity="1" stop-color="rgb(8.720398%, 10.351562%, 24.510193%)" offset="0.839844"/><stop stop-opacity="1" stop-color="rgb(8.598328%, 10.22644%, 24.264526%)" offset="0.847656"/><stop stop-opacity="1" stop-color="rgb(8.474731%, 10.099792%, 24.020386%)" offset="0.855469"/><stop stop-opacity="1" stop-color="rgb(8.352661%, 9.97467%, 23.774719%)" offset="0.863281"/><stop stop-opacity="1" stop-color="rgb(8.230591%, 9.849548%, 23.530579%)" offset="0.871094"/><stop stop-opacity="1" stop-color="rgb(8.076477%, 9.692383%, 23.223877%)" offset="0.878906"/><stop stop-opacity="1" stop-color="rgb(7.893372%, 9.503174%, 22.85614%)" offset="0.890625"/><stop stop-opacity="1" stop-color="rgb(7.70874%, 9.315491%, 22.488403%)" offset="0.902344"/><stop stop-opacity="1" stop-color="rgb(7.556152%, 9.158325%, 22.181702%)" offset="0.914062"/><stop stop-opacity="1" stop-color="rgb(7.434082%, 9.031677%, 21.937561%)" offset="0.921875"/><stop stop-opacity="1" stop-color="rgb(7.310486%, 8.906555%, 21.691895%)" offset="0.929688"/><stop stop-opacity="1" stop-color="rgb(7.188416%, 8.781433%, 21.446228%)" offset="0.9375"/><stop stop-opacity="1" stop-color="rgb(7.034302%, 8.624268%, 21.139526%)" offset="0.945312"/><stop stop-opacity="1" stop-color="rgb(6.881714%, 8.467102%, 20.834351%)" offset="0.957031"/><stop stop-opacity="1" stop-color="rgb(6.759644%, 8.34198%, 20.588684%)" offset="0.964844"/><stop stop-opacity="1" stop-color="rgb(6.60553%, 8.184814%, 20.281982%)" offset="0.972656"/><stop stop-opacity="1" stop-color="rgb(6.452942%, 8.027649%, 19.976807%)" offset="0.984375"/><stop stop-opacity="1" stop-color="rgb(6.330872%, 7.902527%, 19.73114%)" offset="0.992188"/><stop stop-opacity="1" stop-color="rgb(6.269836%, 7.839966%, 19.60907%)" offset="1"/></radialGradient><clipPath id="dfa1637f9a"><path d="M 480 262 L 615.140625 262 L 615.140625 580 L 480 580 Z M 480 262 " clip-rule="nonzero"/></clipPath><clipPath id="31729d06b6"><path d="M 194.851562 488 L 340 488 L 340 565 L 194.851562 565 Z M 194.851562 488 " clip-rule="nonzero"/></clipPath><clipPath id="899a42b7c7"><path d="M 212 175.597656 L 504 175.597656 L 504 616 L 212 616 Z M 212 175.597656 " clip-rule="nonzero"/></clipPath><clipPath id="8d6dfd29e1"><path d="M 329 623 L 508 623 L 508 769.636719 L 329 769.636719 Z M 329 623 " clip-rule="nonzero"/></clipPath></defs><g clip-path="url(#3a2aea0b63)"><path fill="#ffffff" d="M 0.199219 0 L 809.800781 0 L 809.800781 1012 L 0.199219 1012 Z M 0.199219 0 " fill-opacity="1" fill-rule="nonzero"/><path fill="url(#3449df3a42)" d="M 0.199219 0 L 0.199219 1012 L 809.800781 1012 L 809.800781 0 Z M 0.199219 0 " fill-rule="nonzero"/></g><g clip-path="url(#dfa1637f9a)"><path fill="#697fe6" d="M 579.074219 515.289062 C 580.960938 565.40625 544.617188 563.105469 544.617188 563.105469 C 510.519531 560.847656 513.039062 517.542969 513.039062 517.542969 C 513.75 482.15625 544.714844 461.65625 544.714844 461.65625 C 578.230469 486.460938 579.074219 515.289062 579.074219 515.289062 M 615.128906 513.070312 C 614.558594 470.222656 566.308594 439.378906 566.308594 439.378906 C 626.238281 365.171875 599.757812 313.328125 595.828125 303.988281 C 591.980469 294.863281 589.542969 284.570312 589.542969 284.570312 C 587.1875 269 574.503906 264.648438 574.503906 264.648438 C 556.570312 257.339844 537.648438 270.722656 537.648438 270.722656 C 575.195312 260.03125 587.808594 299.796875 587.808594 299.796875 C 622.082031 379.199219 561.929688 436.140625 561.929688 436.140625 C 554.988281 431.332031 548.792969 425.480469 548.792969 425.480469 C 598.488281 364.355469 575.921875 318.703125 575.921875 318.703125 C 585.90625 326.511719 589.058594 343.273438 589.058594 343.273438 C 589.628906 318.703125 572.492188 302.714844 554.214844 295.855469 C 535.933594 289 533.5625 274.855469 533.5625 274.855469 C 533.5625 300.566406 552.5 306.140625 559.355469 308.996094 C 566.207031 311.851562 567.925781 315.851562 567.925781 315.851562 C 596.488281 369.546875 544.414062 421.742188 544.414062 421.742188 C 530.515625 409.484375 536.605469 391.96875 536.605469 391.96875 C 540.707031 380.105469 549.640625 375.832031 549.640625 375.832031 C 582.203125 355.839844 562.214844 327.277344 562.214844 327.277344 C 525.308594 326.765625 527.363281 348.414062 527.363281 348.414062 C 527.464844 353.878906 524.511719 356.984375 524.511719 356.984375 C 488.519531 402.679688 525.183594 440.519531 525.183594 440.519531 C 481.765625 475.558594 480.816406 512.5 480.816406 512.5 C 477.886719 558.363281 516.855469 577.824219 516.855469 577.824219 C 519.042969 576.417969 520.96875 575.371094 520.96875 575.371094 C 484.058594 553.734375 487.929688 515.085938 487.929688 515.085938 C 490.507812 472.1875 528.988281 444.328125 528.988281 444.328125 C 535.082031 451.945312 542.222656 458.089844 542.222656 458.089844 C 506.898438 483.9375 507.164062 518.019531 507.164062 518.019531 C 506.710938 568.097656 544.792969 567.148438 544.792969 567.148438 C 586.691406 566.769531 585.804688 518.019531 585.804688 518.019531 C 586.546875 484.578125 548.984375 457.085938 548.984375 457.085938 C 483.863281 402.816406 530.097656 360.285156 530.097656 360.285156 C 534.773438 356.046875 535.242188 350.574219 535.242188 350.574219 C 540.292969 329.574219 560.410156 335.601562 560.410156 335.601562 C 567.835938 360.167969 549.070312 365.550781 549.070312 365.550781 C 519.9375 371.832031 523.277344 398.4375 523.277344 398.4375 C 526.332031 380.699219 537.648438 376.40625 537.648438 376.40625 C 528.511719 388.972656 518.109375 413.90625 561.644531 444.953125 C 607.9375 477.972656 607.828125 512.691406 607.828125 512.691406 C 611.628906 554.195312 574.039062 576.511719 574.039062 576.511719 C 576.757812 578.40625 577.851562 579.238281 577.851562 579.238281 C 616.695312 554.863281 615.128906 513.070312 615.128906 513.070312 " fill-opacity="1" fill-rule="nonzero"/></g><path fill="#697fe6" d="M 374.042969 622.394531 C 374.042969 622.394531 403.066406 639.417969 392.492188 676.734375 C 392.492188 676.734375 382.363281 710.320312 336.515625 710.269531 C 336.515625 710.269531 324.378906 711.179688 311.152344 704.28125 C 300.609375 698.78125 293.289062 700.285156 293.289062 700.285156 C 284.507812 700.089844 275.574219 706.761719 275.574219 706.761719 L 344.066406 619.605469 C 344.066406 619.605469 356.921875 611.949219 374.042969 622.394531 M 274.167969 685.878906 C 274.167969 685.878906 274.011719 679.117188 265.816406 670.492188 C 255.542969 659.679688 252.460938 646.875 252.460938 646.875 C 239.773438 602.8125 271.371094 584.386719 271.371094 584.386719 C 304.328125 563.9375 326.792969 586.785156 326.792969 586.785156 C 326.792969 586.785156 340.964844 600.257812 337.988281 615.320312 L 333.960938 620.777344 L 268.363281 598.910156 L 267.226562 600.425781 L 330.082031 625.664062 L 320.421875 638.507812 L 269.183594 628.355469 L 267.800781 629.824219 L 316.53125 643.3125 L 307.242188 656.070312 L 273.261719 658.226562 L 272.066406 659.808594 L 303.789062 661.027344 L 272.835938 704.691406 C 272.835938 704.691406 276.785156 694.269531 274.167969 685.878906 M 377.96875 493.960938 C 358.003906 482.519531 334.777344 507.332031 330.917969 511.1875 C 327.0625 515.042969 323.980469 513.375 323.980469 513.375 C 314.464844 504.519531 310.097656 508.230469 310.097656 508.230469 C 310.097656 508.230469 319.570312 509.945312 321.410156 519.027344 C 322.953125 526.664062 330.019531 533.421875 335.675781 534.453125 C 335.675781 534.453125 327.875 528.714844 327.875 522.328125 C 327.875 522.328125 336.96875 519.882812 339.535156 516.199219 C 339.535156 516.199219 342.777344 530.324219 359.476562 542.960938 C 359.476562 542.960938 363.597656 545.9375 363.597656 551.441406 C 363.597656 581.441406 343.34375 611.066406 343.34375 611.066406 C 343.34375 611.066406 342.5625 594.804688 325.789062 580.875 C 325.789062 580.875 292.441406 552.496094 258.46875 581.191406 C 258.46875 581.191406 229.625 606.382812 246.375 646.855469 C 246.375 646.855469 249.105469 655.3125 260.425781 673.375 C 260.425781 673.375 277.75 698.210938 265.832031 716.441406 L 266.414062 716.878906 C 280.425781 701.554688 309.117188 710.070312 309.117188 710.070312 C 329.597656 715.96875 338.484375 716.265625 338.484375 716.265625 C 382.003906 721.210938 398.269531 686.542969 398.269531 686.542969 C 416.972656 645.6875 380.015625 621.738281 380.015625 621.738281 C 364.09375 610.125 348.664062 613.242188 348.664062 613.242188 C 348.664062 613.242188 370.394531 584.621094 369.695312 544.960938 C 369.695312 544.960938 369.433594 542.441406 367.691406 540.699219 C 354.5625 527.570312 348.914062 509.257812 348.914062 509.257812 C 356.117188 504.632812 360.585938 501.292969 367.507812 500.777344 C 375.011719 500.214844 380.28125 505.234375 380.28125 505.234375 C 423.730469 546.539062 416.53125 629.144531 416.53125 629.144531 C 418.425781 629.96875 420.386719 632.144531 420.386719 632.144531 C 425.4375 518.941406 377.96875 493.960938 377.96875 493.960938 " fill-opacity="1" fill-rule="nonzero"/><path fill="#697fe6" d="M 372.527344 279.296875 C 363.511719 278.417969 357.101562 281.867188 357.101562 281.867188 L 357.742188 273.769531 C 366.097656 269.011719 373.8125 270.554688 373.8125 270.554688 C 387.566406 272.351562 388.339844 287.265625 388.339844 287.265625 C 388.339844 287.265625 383.066406 280.324219 372.527344 279.296875 M 358.003906 300.246094 L 356.972656 293.820312 C 379.082031 289.453125 380.496094 301.148438 380.496094 301.148438 C 369.4375 306.546875 358.003906 300.246094 358.003906 300.246094 M 371.753906 265.667969 C 371.753906 265.667969 365.113281 265.285156 356.972656 270.9375 C 356.972656 270.9375 354.316406 272.996094 350.714844 272.484375 C 350.714844 272.484375 352.214844 274.496094 354.402344 274.453125 L 354.144531 285.46875 C 354.144531 285.46875 363.910156 280.582031 373.425781 282.769531 C 373.425781 282.769531 380.75 283.792969 388.078125 290.226562 C 388.078125 290.226562 388.589844 294.847656 384.996094 298.195312 C 384.996094 298.195312 377.15625 285.210938 354.011719 291.765625 L 354.65625 302.5625 C 354.65625 302.5625 359.542969 307.574219 371.753906 306.800781 C 383.65625 306.050781 393.347656 297.597656 393.347656 286.234375 C 393.347656 274.878906 383.679688 265.667969 371.753906 265.667969 " fill-opacity="1" fill-rule="nonzero"/><path fill="#697fe6" d="M 236.742188 359.378906 C 236.742188 359.378906 242.910156 360.75 252.164062 371.203125 C 252.164062 371.203125 260.929688 381.277344 264.074219 391.003906 C 268.101562 403.425781 275.6875 407.519531 281.558594 410.285156 C 290.300781 414.394531 292.355469 418.253906 292.355469 418.253906 C 292.097656 413.109375 285.074219 404.796875 285.074219 404.796875 C 285.074219 404.796875 299.46875 409.765625 298.789062 432.5625 C 298.097656 455.359375 307.011719 457.242188 308.382812 457.585938 C 308.382812 457.585938 296.558594 458.101562 292.785156 442.332031 C 292.785156 442.332031 291.417969 434.621094 292.445312 429.992188 C 292.445312 429.992188 293 425.660156 288.15625 424.679688 C 283.699219 423.773438 264.679688 417.480469 255.59375 390.058594 C 255.59375 390.058594 246.339844 366.578125 236.570312 365.550781 C 236.570312 365.550781 233.828125 364.691406 230.058594 366.234375 C 226.285156 367.78125 225.429688 370.691406 220.804688 371.550781 C 216.175781 372.402344 208.121094 370.519531 204.691406 364.351562 C 204.691406 364.351562 198.519531 363.492188 197.320312 359.890625 L 205.550781 354.066406 C 205.550781 354.066406 204.609375 345.324219 212.574219 344.125 C 212.578125 344.125 215.828125 343.785156 218.574219 344.636719 C 221.371094 345.511719 225.90625 343.65625 225.90625 341.078125 C 225.90625 338.828125 225.007812 337.179688 217.714844 334.699219 C 209.921875 332.042969 199.804688 318.757812 206.75 300.761719 L 196.636719 294.421875 C 196.636719 294.421875 201.261719 284.996094 211.203125 284.308594 C 211.203125 284.308594 216.175781 280.195312 223.375 283.453125 C 223.375 283.453125 232.320312 287.390625 232.96875 300.761719 C 233.652344 314.816406 232.628906 325.269531 246.851562 333.324219 L 246.339844 336.070312 C 246.339844 336.070312 236.910156 330.929688 233.488281 324.929688 C 233.488281 324.929688 230.742188 320.476562 230.398438 317.214844 C 229.859375 312.058594 229.027344 295.109375 220.628906 291.679688 C 220.628906 291.679688 211.71875 288.25 209.832031 296.992188 C 209.832031 296.992188 206.75 294.25 209.320312 288.25 C 209.320312 288.25 204.519531 288.164062 201.089844 293.304688 L 209.578125 298.707031 C 209.578125 298.707031 206.578125 310.535156 210.175781 319.097656 C 210.175781 319.097656 213.433594 327.671875 225.597656 333.5 C 225.597656 333.5 229.539062 335.46875 229.539062 341.042969 C 229.539062 344.441406 227.40625 348.753906 219.773438 349.097656 C 219.773438 349.097656 207.4375 347.378906 207.773438 357.320312 L 200.921875 359.71875 C 200.921875 359.71875 202.464844 361.949219 206.230469 361.777344 C 206.230469 361.777344 209.320312 367.261719 216.6875 365.378906 C 216.6875 365.378906 221.277344 364.648438 224.234375 361.695312 C 224.234375 361.695312 229.023438 356.382812 236.742188 359.378906 " fill-opacity="1" fill-rule="nonzero"/><g clip-path="url(#31729d06b6)"><path fill="#697fe6" d="M 214.597656 496.6875 C 214.597656 496.6875 221.175781 495.75 226.082031 501.597656 C 232.140625 508.820312 237.847656 511.914062 243.652344 513.152344 C 243.652344 513.152344 251.796875 514.632812 257.394531 513.625 L 256.492188 511.09375 C 247.179688 511.09375 243.085938 509.539062 242.582031 509.414062 C 235.480469 507.546875 232.566406 500.144531 232.566406 500.144531 C 227.757812 488.125 217.386719 488.542969 217.386719 488.542969 C 203.84375 488.542969 203.625 501.078125 203.625 501.078125 C 194.792969 501.800781 194.851562 514.382812 194.851562 514.382812 L 205.265625 514.347656 C 208.402344 536.621094 242.824219 530.21875 242.824219 530.21875 C 248.339844 531.546875 233.230469 541.324219 233.230469 541.324219 C 227 545.21875 229.589844 549.890625 229.589844 549.890625 L 222.320312 554.046875 C 226.476562 560.535156 233.484375 558.71875 233.484375 558.71875 L 234.269531 561.054688 C 239.980469 566.25 247.511719 563.652344 247.511719 563.652344 C 266.460938 560.019531 270 542.136719 270.878906 537.6875 C 271.917969 532.421875 276.289062 534.054688 276.289062 534.054688 C 285.960938 537.0625 302.554688 530.15625 302.554688 530.15625 C 306.710938 535.867188 312.941406 537.6875 312.941406 537.6875 C 322.550781 541.0625 331.117188 538.464844 331.117188 538.464844 C 335.757812 537.515625 339.554688 538.738281 339.554688 538.738281 C 337.535156 535.292969 327.742188 534.828125 327.742188 534.828125 C 317.488281 533.414062 311.90625 527.300781 311.90625 527.300781 C 294.539062 510.367188 277.632812 515.355469 277.632812 515.355469 C 291.390625 516.394531 295.695312 523.71875 295.695312 523.71875 C 293.472656 528.539062 273.476562 528.710938 273.476562 528.710938 C 263.949219 528.710938 262.3125 537.167969 262.3125 537.167969 C 252.183594 566.511719 237.121094 558.460938 237.121094 558.460938 L 235.824219 555.339844 C 230.113281 556.382812 227.515625 553.789062 227.515625 553.789062 L 235.304688 549.890625 C 235.046875 545.21875 240.757812 542.101562 240.757812 542.101562 C 247.675781 537.503906 250.351562 533.765625 250.105469 528.898438 C 249.886719 524.484375 245.25 524.484375 245.25 524.484375 C 212.273438 532.011719 208.832031 511.207031 208.832031 511.207031 L 198.136719 511.207031 C 198.710938 503.605469 203.765625 504.5 203.765625 504.5 C 204.558594 506.992188 207.3125 507.71875 207.3125 507.71875 C 207.3125 507.71875 204.773438 496.6875 214.597656 496.6875 " fill-opacity="1" fill-rule="nonzero"/></g><path fill="#697fe6" d="M 218.632812 467.921875 C 218.632812 467.921875 215.714844 468.136719 213.671875 469.46875 C 213.671875 469.46875 213.832031 463.886719 218.632812 463.347656 Z M 390.304688 442.15625 C 353.273438 425.101562 343.773438 398.453125 360.484375 372.488281 C 360.484375 372.488281 336.574219 391.769531 353.027344 427.503906 C 353.027344 427.503906 350.714844 434.449219 341.976562 439.585938 C 333.234375 444.734375 318.109375 447.644531 299.554688 469.15625 C 288.117188 482.414062 277.105469 486.921875 270.835938 487.707031 C 260.554688 488.992188 255.054688 483.578125 251.203125 475.277344 C 248.839844 470.183594 242.089844 448.867188 226.546875 452.839844 C 226.546875 452.839844 218.839844 454.71875 218.839844 460.695312 C 218.839844 460.695312 211.386719 461.710938 211.386719 470.585938 C 211.386719 470.585938 207.605469 473.351562 207.265625 478.664062 C 207.265625 478.664062 199.722656 480.207031 199.292969 489.976562 L 209.0625 489.976562 L 209.148438 487.917969 L 202.378906 488.003906 C 202.378906 488.003906 202.464844 482.003906 207.519531 482.175781 C 207.519531 482.175781 209.671875 485.179688 212.496094 485.605469 C 212.496094 485.605469 207.601562 475.3125 220.96875 473.828125 C 228.910156 472.941406 232.035156 480.714844 232.035156 480.714844 C 234.28125 485.082031 238.503906 503.371094 259.625 502.832031 L 258.589844 500.175781 C 258.589844 500.175781 250.515625 500.394531 245.292969 494.597656 C 245.292969 494.597656 241.949219 491.78125 237.042969 478.664062 C 233.171875 468.3125 226.960938 467.1875 220.808594 467.523438 L 220.808594 462.210938 C 220.808594 462.210938 235.5 449.699219 248.824219 478.539062 C 248.824219 478.539062 253.683594 491.035156 269.984375 491.035156 C 269.984375 491.035156 285.550781 491.152344 301.398438 473.3125 C 314.316406 458.769531 319.929688 452.726562 342.402344 446.871094 C 342.402344 446.871094 354.453125 443.570312 358.171875 437.015625 C 358.171875 437.015625 366.65625 447.304688 396.476562 460.152344 C 396.476562 460.152344 420.644531 471.722656 412.929688 507.71875 C 412.929688 507.71875 436.066406 463.242188 390.304688 442.15625 " fill-opacity="1" fill-rule="nonzero"/><g clip-path="url(#899a42b7c7)"><path fill="#697fe6" d="M 391.421875 239.234375 C 395.363281 238.890625 401.960938 240.605469 401.960938 240.605469 C 396.136719 243.515625 392.019531 247.285156 392.019531 247.285156 C 386.960938 243.429688 391.421875 239.234375 391.421875 239.234375 M 482.34375 400.339844 C 477.734375 377.167969 468.972656 371.546875 441.894531 353.894531 C 414.8125 336.242188 433.320312 295.109375 433.320312 295.109375 L 428.699219 295.960938 C 426.808594 305.734375 415.621094 317.375 405.917969 318.597656 C 396.386719 319.796875 385.421875 317.214844 385.421875 317.214844 C 368.996094 314.042969 360.71875 322.109375 349.253906 321.414062 C 336.488281 320.644531 339.175781 310.652344 339.175781 310.652344 C 341.066406 303.449219 349.855469 304.191406 349.855469 304.191406 L 350.484375 292.921875 C 317.0625 302.347656 301.867188 294.25 301.867188 294.25 C 284.257812 283.796875 301.867188 268.199219 301.867188 268.199219 C 296.085938 299.222656 350.058594 286.621094 350.058594 286.621094 L 348.3125 274.882812 C 335.125 272.824219 337.007812 261.515625 337.007812 261.515625 C 339.066406 248.832031 360.140625 249.515625 360.140625 249.515625 L 359.113281 247.804688 C 351.828125 245.746094 341.117188 249.175781 341.117188 249.175781 C 338.71875 239.835938 350.203125 238.847656 350.203125 238.847656 C 363.054688 237.136719 386.535156 238.722656 386.535156 238.722656 C 382.421875 245.574219 388.765625 250.027344 388.765625 250.027344 C 387.222656 253.976562 390.992188 255 390.992188 255 C 394.9375 250.375 409.332031 239.835938 409.332031 239.835938 C 398.871094 234.523438 379.386719 233.921875 379.386719 233.921875 C 380.578125 229.746094 388.273438 229.0625 388.273438 229.0625 C 417.921875 224.601562 441.839844 234.289062 441.839844 234.289062 C 438.808594 237.316406 438.464844 238.863281 438.464844 238.863281 L 440.523438 241.632812 C 447.382812 230.148438 456.976562 231.519531 456.976562 231.519531 C 470.347656 232.71875 471.03125 241.804688 471.03125 241.804688 C 472.402344 258.429688 448.613281 266.316406 448.613281 266.316406 C 448.265625 277.289062 438.46875 307.289062 467.941406 320.128906 C 488.371094 329.023438 493.242188 345.667969 493.242188 345.667969 C 504.472656 380.765625 482.34375 400.339844 482.34375 400.339844 M 372.664062 190.199219 C 372.664062 190.199219 375.574219 191.507812 380.171875 192.753906 C 380.171875 192.753906 390.539062 194.679688 392.8125 199.667969 C 392.8125 199.667969 394.539062 202.53125 391.210938 205.832031 C 391.210938 205.832031 389.515625 207.359375 390.632812 210.605469 C 391.511719 213.152344 395.746094 217.390625 405.695312 216.613281 C 405.695312 216.613281 416.949219 215.210938 418.476562 203.769531 C 418.476562 203.769531 411.625 207.238281 408.511719 202.628906 C 408.511719 202.628906 405.117188 198.964844 412.476562 190.882812 C 418.074219 184.746094 421.101562 180.761719 421.101562 180.761719 C 421.101562 180.761719 423.589844 184.390625 429.503906 191.15625 C 436.699219 199.378906 433.085938 203.023438 433.085938 203.023438 C 429.679688 207.574219 423.09375 203.84375 423.09375 203.84375 C 425 215.507812 435.472656 217.125 435.472656 217.125 C 445.5 218.46875 449.355469 213.867188 450.519531 211.460938 C 451.996094 208.414062 450.097656 206.671875 450.097656 206.671875 C 446.875 203.261719 448.949219 200.042969 448.949219 200.042969 C 451.375 195.128906 461.808594 193.535156 461.808594 193.535156 C 466.4375 192.4375 469.394531 191.21875 469.394531 191.21875 C 459.035156 204.226562 452.9375 228.550781 452.9375 228.550781 C 452.9375 228.550781 450.425781 228.5 446.601562 230.382812 C 446.601562 230.382812 423.214844 218.4375 387.277344 224.542969 C 387.277344 224.542969 382.597656 203.535156 372.664062 190.199219 M 474.449219 252.246094 C 507.578125 280.6875 493.816406 333.65625 493.816406 333.65625 C 493.816406 333.65625 489.550781 320.476562 470.867188 310.703125 C 449.054688 299.300781 452.265625 269.65625 452.265625 269.65625 C 470.246094 264.984375 474.449219 252.246094 474.449219 252.246094 M 497.769531 341.382812 C 517.566406 271.199219 476.171875 246.261719 476.171875 246.261719 C 476.925781 236.90625 470.507812 232.378906 470.507812 232.378906 C 465.367188 228.261719 457.78125 228.332031 457.78125 228.332031 C 457.78125 228.332031 464.875 200.320312 476.59375 186.492188 L 473.261719 185.519531 C 473.261719 185.519531 465.453125 188.664062 459.46875 190.242188 C 453.488281 191.828125 447.78125 194.003906 444.9375 198.65625 C 444.9375 198.65625 441.414062 204.050781 446.042969 208.320312 C 446.042969 208.320312 447.855469 210.109375 446.15625 211.679688 C 443.878906 213.777344 433.535156 217.183594 427.710938 208.949219 C 427.710938 208.949219 432.136719 210.109375 435.699219 207.816406 C 435.699219 207.816406 440.113281 204.789062 438.351562 199.050781 C 438.351562 199.050781 437.09375 194.167969 431.398438 188.285156 C 431.398438 188.285156 423.589844 179.746094 422.789062 175.644531 L 419.597656 175.597656 C 418.792969 179.671875 410.679688 187.957031 410.679688 187.957031 C 404.796875 193.652344 403.378906 198.496094 403.378906 198.496094 C 401.441406 204.167969 405.753906 207.335938 405.753906 207.335938 C 409.242188 209.75 413.699219 208.722656 413.699219 208.722656 C 407.613281 216.769531 397.367188 213.347656 395.152344 211.183594 C 393.5 209.566406 395.378906 207.832031 395.378906 207.832031 C 400.140625 203.710938 396.792969 198.207031 396.792969 198.207031 C 394.097656 193.464844 386.167969 191.074219 380.234375 189.300781 C 374.308594 187.527344 368.90625 184.167969 368.90625 184.167969 L 365.542969 185.039062 C 376.804688 199.230469 382.59375 225.664062 382.59375 225.664062 C 373.855469 228.175781 372.652344 233.75 372.652344 233.75 C 362.878906 232.71875 349.34375 233.75 349.34375 233.75 C 326.125 235.121094 336.234375 252.257812 336.234375 252.257812 C 329.976562 257.144531 331.070312 265.261719 331.070312 265.261719 C 331.585938 276.082031 345.230469 278.824219 345.230469 278.824219 L 346.933594 284.953125 C 322.425781 289.578125 310.226562 280.066406 310.226562 280.066406 C 300.96875 273.726562 306.839844 261.339844 306.839844 261.339844 C 281.132812 271.800781 291.414062 291.851562 291.414062 291.851562 C 303.410156 314.476562 347.113281 296.523438 347.113281 296.523438 L 346.601562 300.378906 C 332.460938 303.429688 333.847656 316.433594 333.847656 316.433594 C 334.574219 323.199219 341.347656 333.460938 357.054688 327.160156 C 375.53125 319.738281 381.398438 323.308594 381.398438 323.308594 C 381.152344 329.035156 380.832031 330.78125 378.488281 334.355469 C 376.132812 337.933594 367.679688 341.554688 367.679688 341.554688 C 338.25 352.03125 328.257812 378.574219 328.257812 378.574219 C 324.09375 376.867188 323.804688 376.175781 313.523438 372.914062 C 312.566406 372.617188 310.441406 369.144531 310.441406 369.144531 C 310.441406 369.144531 300.15625 352.179688 276.160156 338.8125 C 273.253906 337.191406 271.359375 331.78125 271.359375 331.78125 C 269.820312 325.269531 264.988281 314.207031 262.449219 310.1875 C 260.394531 306.933594 261.765625 304.015625 261.765625 304.015625 C 264.335938 296.648438 263.816406 289.796875 263.816406 289.796875 C 263.816406 283.625 260.046875 280.195312 260.046875 280.195312 C 253.195312 272.996094 245.308594 278.3125 245.308594 278.3125 C 242.050781 271.453125 236.054688 271.113281 236.054688 271.113281 C 231.597656 270.082031 226.796875 274.023438 226.796875 274.023438 C 214.121094 272.996094 212.742188 282.9375 212.742188 282.9375 C 213.464844 282.167969 214.972656 282.285156 215.457031 281.546875 C 219.910156 274.738281 225.085938 277.964844 225.085938 277.964844 C 223.375 281.90625 225.257812 283.453125 225.257812 283.453125 C 228.171875 276.425781 236.054688 279.335938 236.054688 279.335938 C 248.050781 282.597656 243.421875 307.273438 243.421875 307.273438 C 242.398438 313.617188 245.824219 317.558594 245.824219 317.558594 C 248.222656 321.328125 254.90625 329.042969 254.90625 329.042969 L 255.59375 326.128906 C 255.59375 326.128906 250.933594 319.980469 248.222656 315.332031 C 245.824219 311.214844 246.679688 307.617188 246.679688 307.617188 C 250.792969 290.136719 247.539062 281.226562 247.539062 281.226562 C 262.792969 278.652344 257.304688 306.933594 257.304688 306.933594 C 256.792969 309.675781 258.164062 311.214844 258.164062 311.214844 C 261.417969 315.847656 266.390625 329.816406 268.449219 335.210938 C 270.5 340.609375 273.078125 342.667969 273.078125 342.667969 C 289.527344 354.238281 293.125 358.09375 293.125 358.09375 C 303.667969 367.859375 307.265625 378.660156 307.265625 378.660156 C 321.667969 384.3125 322.945312 388.945312 322.945312 388.945312 C 311.894531 427.507812 322.691406 442.164062 322.691406 442.164062 C 319.054688 396.777344 336.046875 363.679688 363.914062 351.835938 C 393.566406 339.238281 389.894531 324.289062 389.894531 324.289062 C 389.894531 324.289062 397.3125 326.402344 407.121094 324.824219 C 418.296875 323.023438 424.5 312.847656 424.5 312.847656 C 411.902344 358.867188 449.433594 370.175781 462.800781 381.488281 C 476.171875 392.800781 477.628906 408.726562 477.628906 408.726562 C 480.289062 440.863281 454.992188 458.679688 454.992188 458.679688 C 459.382812 430.160156 438.671875 416.042969 410.019531 400.769531 C 381.582031 385.609375 390.835938 352.105469 390.835938 352.105469 C 373.777344 402.746094 405.730469 413.367188 426.554688 423.136719 C 426.554688 423.136719 458.007812 439.414062 448.070312 464.101562 C 438.128906 488.777344 431.09375 492.890625 431.09375 516.898438 C 431.09375 545.667969 463.804688 577.386719 463.804688 577.386719 C 483.214844 596.796875 492.980469 614.761719 492.980469 614.761719 C 495.460938 615.535156 496.089844 615.832031 496.089844 615.832031 C 496.382812 611.601562 496.550781 610.296875 496.550781 610.296875 C 487.8125 588.957031 460.636719 568.726562 451.136719 552.207031 C 439.808594 532.515625 440.324219 521.484375 440.324219 521.484375 C 437.5 500.449219 449.945312 476.351562 449.945312 476.351562 C 452.4375 470.976562 453.648438 465.929688 453.648438 465.929688 C 488.328125 444.371094 482.859375 408.542969 482.859375 408.542969 C 514.90625 380.234375 497.769531 341.382812 497.769531 341.382812 " fill-opacity="1" fill-rule="nonzero"/></g><path fill="#697fe6" d="M 405.683594 253.917969 C 405.683594 253.917969 393.769531 259.058594 396.6875 270.277344 C 396.6875 270.277344 397.390625 274.949219 405.105469 281.726562 C 414.101562 289.636719 402.765625 300.890625 400.542969 302.523438 C 400.542969 302.523438 415.734375 296.566406 411.523438 282.777344 C 411.523438 282.777344 410.710938 279.390625 406.273438 275.535156 C 406.273438 275.535156 394.703125 266.773438 405.683594 253.917969 " fill-opacity="1" fill-rule="nonzero"/><path fill="#697fe6" d="M 443.96875 244.71875 L 443.96875 250.820312 C 443.96875 250.820312 457.917969 253.5625 463.226562 244.425781 C 463.226562 244.425781 451.136719 248.773438 443.96875 244.71875 " fill-opacity="1" fill-rule="nonzero"/><g clip-path="url(#8d6dfd29e1)"><path fill="#e4200e" d="M 471.929688 721.742188 C 471.929688 721.742188 462.703125 729.839844 447.859375 732.316406 C 436.023438 734.289062 431.035156 739.945312 431.035156 739.945312 C 423.835938 745.121094 420.691406 755.921875 420.691406 755.921875 L 422.320312 644.851562 C 422.320312 644.851562 427.847656 629.882812 448.808594 628.132812 C 448.808594 628.132812 480.789062 623.363281 494.929688 659.855469 C 494.929688 659.855469 508.910156 693.9375 471.929688 721.742188 M 406.878906 739.945312 C 406.878906 739.945312 402.640625 734.59375 390.800781 732.617188 C 375.957031 730.144531 365.695312 721.699219 365.695312 721.699219 C 328.714844 693.894531 342.984375 659.855469 342.984375 659.855469 C 357.125 623.363281 389.105469 628.132812 389.105469 628.132812 C 389.105469 628.132812 408.679688 631.054688 415.429688 645.007812 L 415.429688 662.40625 L 349.804688 686.179688 L 349.804688 688.089844 L 415.429688 668.40625 L 415.429688 690.601562 L 385.988281 712.328125 L 385.988281 714.601562 L 415.65625 698.328125 L 417.226562 755.921875 C 417.226562 755.921875 414.074219 745.121094 406.878906 739.945312 M 507.078125 665.117188 C 497.339844 620.835938 453.011719 623.984375 453.011719 623.984375 C 425.289062 625.816406 418.96875 640.472656 418.96875 640.472656 C 418.96875 640.472656 411.402344 625.550781 384.5 623.984375 C 384.5 623.984375 340.398438 621.359375 330.4375 665.117188 C 330.4375 665.117188 322.492188 702.929688 360.570312 725.375 C 360.570312 725.375 367.90625 730.53125 388 738.21875 C 388 738.21875 417.046875 747.710938 418.511719 769.640625 L 419.246094 769.640625 C 421.234375 748.78125 449.519531 738.21875 449.519531 738.21875 C 469.609375 730.53125 476.945312 725.375 476.945312 725.375 C 515.027344 702.929688 507.078125 665.117188 507.078125 665.117188 " fill-opacity="1" fill-rule="nonzero"/></g><path fill="#0052a0" d="M 585.964844 646.875 C 585.964844 646.875 582.882812 659.675781 572.601562 670.492188 C 564.410156 679.113281 564.246094 685.882812 564.246094 685.882812 C 561.636719 694.265625 565.589844 704.691406 565.589844 704.691406 L 534.632812 661.027344 L 566.355469 659.808594 L 565.15625 658.226562 L 531.183594 656.070312 L 521.894531 643.3125 L 570.617188 629.824219 L 569.242188 628.359375 L 517.996094 638.507812 L 508.335938 625.664062 L 571.195312 600.421875 L 570.058594 598.910156 L 504.988281 621.3125 L 500.867188 615.839844 C 497.882812 600.773438 511.632812 586.789062 511.632812 586.789062 C 511.632812 586.789062 534.097656 563.9375 567.050781 584.386719 C 567.050781 584.386719 598.648438 602.816406 585.964844 646.875 M 545.132812 700.289062 C 545.132812 700.289062 537.8125 698.785156 527.265625 704.28125 C 514.039062 711.179688 501.910156 710.273438 501.910156 710.273438 C 456.058594 710.320312 445.929688 676.734375 445.929688 676.734375 C 435.355469 639.417969 464.378906 622.394531 464.378906 622.394531 C 481.5 611.953125 494.351562 619.605469 494.351562 619.605469 L 562.847656 706.757812 C 562.847656 706.757812 553.914062 700.089844 545.132812 700.289062 M 580.117188 581.0625 C 546.144531 552.375 512.796875 580.753906 512.796875 580.753906 C 495.921875 593.300781 496.085938 615.835938 496.085938 615.835938 C 477.917969 608.410156 458.574219 621.617188 458.574219 621.617188 C 458.574219 621.617188 421.617188 645.5625 440.316406 686.414062 C 440.316406 686.414062 456.578125 721.089844 500.101562 716.140625 C 500.101562 716.140625 508.988281 715.847656 529.46875 709.945312 C 529.46875 709.945312 558.160156 701.433594 572.171875 716.757812 L 572.753906 716.320312 C 560.835938 698.089844 578.164062 673.25 578.164062 673.25 C 589.480469 655.1875 592.214844 646.730469 592.214844 646.730469 C 608.960938 606.261719 580.117188 581.0625 580.117188 581.0625 " fill-opacity="1" fill-rule="nonzero"/></svg>